<svg width="19" height="18" viewBox="0 0 19 18" fill="none" xmlns="http://www.w3.org/2000/svg">
<path d="M6.11338 11.7661H6.11425C6.11497 11.7661 6.11569 11.7659 6.11642 11.7659H16.195C16.4431 11.7659 16.6613 11.6013 16.7295 11.3628L18.9531 3.58026C19.001 3.41248 18.9674 3.23211 18.8624 3.09284C18.7573 2.95358 18.593 2.87164 18.4186 2.87164H4.83135L4.43397 1.08338C4.37737 0.829026 4.15183 0.648071 3.89125 0.648071H0.555893C0.248849 0.648071 0 0.89692 0 1.20396C0 1.51101 0.248849 1.75986 0.555893 1.75986H3.44538C3.51573 2.07675 5.347 10.3176 5.45238 10.7917C4.8616 11.0485 4.44714 11.6375 4.44714 12.3218C4.44714 13.2414 5.19528 13.9895 6.11482 13.9895H16.195C16.5021 13.9895 16.7509 13.7407 16.7509 13.4336C16.7509 13.1266 16.5021 12.8777 16.195 12.8777H6.11482C5.80836 12.8777 5.55893 12.6283 5.55893 12.3218C5.55893 12.0158 5.80749 11.7668 6.11338 11.7661ZM17.6816 3.98343L15.7756 10.6541H6.5607L5.07832 3.98343H17.6816Z" fill="#2D3047"/>
<path d="M5.55896 15.6571C5.55896 16.5767 6.3071 17.3248 7.22664 17.3248C8.14618 17.3248 8.89432 16.5767 8.89432 15.6571C8.89432 14.7376 8.14618 13.9894 7.22664 13.9894C6.3071 13.9894 5.55896 14.7376 5.55896 15.6571ZM7.22664 15.1012C7.5331 15.1012 7.78253 15.3507 7.78253 15.6571C7.78253 15.9636 7.5331 16.213 7.22664 16.213C6.92017 16.213 6.67075 15.9636 6.67075 15.6571C6.67075 15.3507 6.92017 15.1012 7.22664 15.1012Z" fill="#2D3047"/>
<path d="M13.4155 15.6571C13.4155 16.5767 14.1637 17.3248 15.0832 17.3248C16.0027 17.3248 16.7509 16.5767 16.7509 15.6571C16.7509 14.7376 16.0027 13.9894 15.0832 13.9894C14.1637 13.9894 13.4155 14.7376 13.4155 15.6571ZM15.0832 15.1012C15.3897 15.1012 15.6391 15.3507 15.6391 15.6571C15.6391 15.9636 15.3897 16.213 15.0832 16.213C14.7767 16.213 14.5273 15.9636 14.5273 15.6571C14.5273 15.3507 14.7767 15.1012 15.0832 15.1012Z" fill="#2D3047"/>
</svg>
