<svg width="436" height="431" viewBox="0 0 436 431" fill="none" xmlns="http://www.w3.org/2000/svg">
<path d="M22.9259 378.474C33.8176 408.635 65.2882 426.395 96.089 429.504C126.89 432.614 157.514 423.827 187.354 415.267C217.195 406.707 247.943 398.192 278.688 401.834C300.288 404.393 321.57 412.947 343.14 410.163C364.428 407.413 383.382 393.653 396.81 376.226C410.237 358.798 418.822 337.871 426.075 316.835C433.06 296.583 439.053 274.678 434.027 253.804C428.916 232.53 413.33 216.072 400.088 199.019C383.354 177.48 369.601 153.436 359.373 127.862C347.996 99.4472 340.105 67.8015 318.345 46.9876C304.893 34.1333 287.497 26.8507 270.401 20.1627C231.554 4.94747 187.968 -8.61462 149.447 7.56184C128.119 16.5209 110.981 33.7469 96.3115 52.1956C61.115 96.4474 36.9939 150.191 26.973 206.706C22.6755 230.936 20.9142 255.7 14.5035 279.408C10.0222 296.006 3.28277 312.053 1.18203 329.134C-0.918722 346.215 2.64587 365.408 15.3796 376.378" fill="#DAF6F6"/>
</svg>
