<svg width="168" height="142" viewBox="0 0 168 142" fill="none" xmlns="http://www.w3.org/2000/svg">
<path d="M53.0062 4.95121C38.1543 7.38755 23.3453 12.9266 12.8287 23.3799C2.29075 33.8333 -3.13921 49.8465 1.90443 63.6108C6.77637 76.9378 19.7396 85.4963 29.8913 95.6165C40.1717 105.862 48.0484 118.376 59.4663 127.414C73.889 138.846 93.5699 143.802 111.899 140.595C130.228 137.388 146.904 126.123 156.304 110.526C165.34 95.554 167.615 77.625 167.529 60.2791C167.508 53.3865 167.078 46.2649 163.88 40.122C160.06 32.7297 152.784 27.6696 145.573 23.2758C116.663 5.61754 80.3491 -6.43922 48.542 5.6592" fill="#DAF6F6"/>
</svg>
