<svg width="14" height="14" viewBox="0 0 14 14" fill="none" xmlns="http://www.w3.org/2000/svg">
<path fill-rule="evenodd" clip-rule="evenodd" d="M11.9602 2.0348C11.3144 1.38788 10.5461 0.874917 9.69971 0.525639C8.85333 0.17636 7.94573 -0.00229539 7.02949 2.22636e-05C3.18746 2.22636e-05 0.0597892 3.11207 0.0582362 6.93742C0.0582362 8.15998 0.378923 9.35318 0.988461 10.4057L0 14L3.69528 13.0348C4.71743 13.5886 5.86259 13.8789 7.02639 13.8794H7.02949C10.8707 13.8794 13.9984 10.7674 14 6.94205C14.0026 6.03053 13.8237 5.12752 13.4736 4.28522C13.1235 3.44293 12.6091 2.67805 11.9602 2.0348ZM7.02949 12.7087H7.02716C5.98941 12.7088 4.97075 12.4309 4.07808 11.9042L3.86688 11.779L1.6741 12.3516L2.25879 10.2241L2.12135 10.0062C1.54115 9.08689 1.23401 8.02303 1.23538 6.93742C1.23694 3.75813 3.83582 1.17158 7.03182 1.17158C7.79297 1.1699 8.54689 1.31848 9.24996 1.60871C9.95303 1.89895 10.5913 2.32509 11.1278 2.86246C11.6671 3.39727 12.0946 4.03316 12.3856 4.7334C12.6765 5.43363 12.8251 6.18431 12.8228 6.94205C12.8213 10.1213 10.2224 12.7087 7.02949 12.7087ZM10.2076 8.3895C10.0329 8.30217 9.17724 7.88332 9.01729 7.82536C8.85811 7.7674 8.74241 7.73881 8.62594 7.91191C8.50947 8.08502 8.17558 8.47528 8.07386 8.5912C7.97214 8.70712 7.87042 8.72103 7.69649 8.63448C7.52256 8.54792 6.96116 8.36477 6.29572 7.77435C5.7778 7.31454 5.42838 6.74731 5.32667 6.57343C5.22495 6.39955 5.3158 6.30604 5.40354 6.21949C5.48196 6.14221 5.57747 6.01701 5.66444 5.91578C5.7514 5.81454 5.78013 5.74267 5.83837 5.62675C5.8966 5.51083 5.86787 5.4096 5.82362 5.32304C5.78013 5.23572 5.43149 4.38255 5.28629 4.03556C5.14575 3.6994 5.0021 3.74422 4.89494 3.73958C4.78397 3.73507 4.6729 3.733 4.56183 3.7334C4.47351 3.73564 4.38661 3.75602 4.30657 3.79325C4.22653 3.83049 4.15509 3.88378 4.09672 3.94978C3.93676 4.12366 3.48718 4.54252 3.48718 5.39569C3.48718 6.24885 4.11147 7.07343 4.19844 7.18935C4.2854 7.30527 5.42683 9.05565 7.17392 9.80681C7.59011 9.98532 7.91468 10.092 8.16704 10.1723C8.58401 10.3045 8.96371 10.2852 9.26421 10.2411C9.59887 10.1917 10.2946 9.82226 10.4398 9.41732C10.585 9.01237 10.585 8.66539 10.5415 8.59274C10.498 8.5201 10.3808 8.47605 10.2076 8.3895Z" fill="white"/>
</svg>
