<svg width="12" height="12" viewBox="0 0 12 12" fill="none" xmlns="http://www.w3.org/2000/svg">
<path fill-rule="evenodd" clip-rule="evenodd" d="M11.3911 8.54234C11.095 8.38213 9.64464 7.61368 9.37351 7.50735C9.1037 7.40101 8.9076 7.34855 8.71018 7.66614C8.51276 7.98373 7.94682 8.69972 7.77441 8.91239C7.60199 9.12506 7.42958 9.15058 7.13477 8.99179C6.83995 8.83299 5.88839 8.49697 4.76046 7.41377C3.8826 6.57018 3.29034 5.52951 3.11792 5.21051C2.94551 4.8915 3.0995 4.71995 3.24822 4.56116C3.38115 4.41938 3.54304 4.18969 3.69044 4.00396C3.83785 3.81823 3.88655 3.68637 3.98526 3.4737C4.08397 3.26103 4.03527 3.0753 3.96025 2.91651C3.88655 2.75629 3.2956 1.19104 3.04948 0.554449C2.81126 -0.0622949 2.56778 0.0199378 2.38615 0.011431C2.19805 0.00314271 2.00979 -0.00063958 1.82153 8.80487e-05C1.67183 0.00419769 1.52453 0.041581 1.38887 0.109894C1.2532 0.178207 1.13211 0.275977 1.03317 0.397072C0.762042 0.716078 0 1.48453 0 3.04978C0 4.61503 1.05817 6.12783 1.20558 6.3405C1.35299 6.55317 3.2877 9.76449 6.24901 11.1426C6.95446 11.4701 7.5046 11.6658 7.93234 11.8132C8.63911 12.0557 9.2827 12.0202 9.79204 11.9394C10.3593 11.8487 11.5386 11.1709 11.7847 10.428C12.0308 9.68509 12.0308 9.0485 11.9571 8.91522C11.8834 8.78195 11.6846 8.70113 11.3911 8.54234Z" fill="white"/>
</svg>
