<svg width="10" height="14" viewBox="0 0 10 14" fill="none" xmlns="http://www.w3.org/2000/svg">
<path d="M5 0C2.24301 0 0 2.32002 0 5.17166C0 6.11055 0.406985 7.12016 0.424265 7.16276C0.555882 7.4856 0.815074 7.9868 1.00221 8.28075L4.43051 13.6536C4.57096 13.8737 4.77831 14 5.00037 14C5.22243 14 5.42978 13.8737 5.57022 13.654L8.9989 8.28075C9.1864 7.9868 9.44522 7.4856 9.57684 7.16276C9.59338 7.12055 10 6.11093 10 5.17166C10 2.32002 7.75699 0 5 0ZM9.03382 6.92661C8.91654 7.21599 8.675 7.6822 8.50699 7.94573L5.07831 13.3189C5.01066 13.425 4.98934 13.425 4.92169 13.3189L1.49301 7.94573C1.325 7.6822 1.08346 7.21561 0.966177 6.92623C0.961397 6.91406 0.588235 5.98468 0.588235 5.17166C0.588235 2.65542 2.56728 0.608431 5 0.608431C7.43272 0.608431 9.41177 2.65542 9.41177 5.17166C9.41177 5.98582 9.0375 6.91748 9.03382 6.92661Z" fill="white"/>
<path d="M4.99999 2.43408C3.54044 2.43408 2.35294 3.66235 2.35294 5.17202C2.35294 6.68169 3.54044 7.90996 4.99999 7.90996C6.45955 7.90996 7.64705 6.68169 7.64705 5.17202C7.64705 3.66235 6.45955 2.43408 4.99999 2.43408ZM4.99999 7.30153C3.86507 7.30153 2.94117 6.34629 2.94117 5.17202C2.94117 3.99775 3.86507 3.04251 4.99999 3.04251C6.13492 3.04251 7.05882 3.99775 7.05882 5.17202C7.05882 6.34629 6.13492 7.30153 4.99999 7.30153Z" fill="white"/>
</svg>
