<svg width="15" height="10" viewBox="0 0 15 10" fill="none" xmlns="http://www.w3.org/2000/svg">
<g clip-path="url(#clip0)">
<path d="M0.769337 0H14.2307C14.654 0 15 0.346292 15 0.769344V9.23095C15 9.654 14.654 10.0003 14.2307 10.0003H0.769043C0.345996 10.0003 -0.000293732 9.654 -0.000293732 9.23095V0.769344C0 0.346292 0.34629 0 0.769337 0ZM1.05791 0.576861L7.05762 5.07691C7.16543 5.15894 7.33096 5.21021 7.5 5.20962C7.66904 5.2105 7.83457 5.15894 7.94238 5.07691L13.9421 0.576861H1.05791ZM4.2627 5.37398L0.993457 9.41259C0.990234 9.41669 0.986133 9.41962 0.982617 9.42343H14.0174C14.0139 9.41962 14.0098 9.41669 14.0065 9.41259L10.7373 5.37398C10.6371 5.25005 10.6562 5.0687 10.7801 4.96821C10.904 4.86802 11.0854 4.88706 11.1855 5.01099L14.4229 9.01005V0.937509L8.28838 5.53863C8.05781 5.71031 7.77715 5.7859 7.5 5.78678C7.22314 5.78619 6.94219 5.7106 6.71162 5.53863L0.577148 0.937509V9.00976L3.81445 5.01069C3.91465 4.88677 4.09629 4.86772 4.21992 4.96792C4.34385 5.06841 4.36289 5.25005 4.2627 5.37398Z" fill="white"/>
</g>
<defs>
<clipPath id="clip0">
<rect width="15" height="10" fill="white" transform="matrix(-1 0 0 1 15 0)"/>
</clipPath>
</defs>
</svg>
