<svg width="40" height="40" viewBox="0 0 40 40" fill="none" xmlns="http://www.w3.org/2000/svg">
<circle cx="20" cy="20" r="19.5" stroke="#00D3D2"/>
<circle cx="20" cy="20" r="19.5" stroke="#00D3D2"/>
<path d="M17.7869 27V20.4308H16V18.0656H17.7869V16.0454C17.7869 14.4578 18.8425 13 21.2747 13C22.2595 13 22.9877 13.0918 22.9877 13.0918L22.9303 15.3005C22.9303 15.3005 22.1876 15.2935 21.3772 15.2935C20.5002 15.2935 20.3596 15.6864 20.3596 16.3385V18.0656H23L22.8851 20.4308H20.3596V27H17.7869Z" fill="#00D3D2"/>
<path d="M17.7869 27V20.4308H16V18.0656H17.7869V16.0454C17.7869 14.4578 18.8425 13 21.2747 13C22.2595 13 22.9877 13.0918 22.9877 13.0918L22.9303 15.3005C22.9303 15.3005 22.1876 15.2935 21.3772 15.2935C20.5002 15.2935 20.3596 15.6864 20.3596 16.3385V18.0656H23L22.8851 20.4308H20.3596V27H17.7869Z" fill="#00D3D2"/>
</svg>
