<svg width="40" height="40" viewBox="0 0 40 40" fill="none" xmlns="http://www.w3.org/2000/svg">
<circle cx="20" cy="20" r="19.5" stroke="#00D3D2"/>
<circle cx="20" cy="20" r="19.5" stroke="#00D3D2"/>
<path d="M19.9978 15.8952C17.7264 15.8952 15.8932 17.7285 15.8932 20C15.8932 22.2715 17.7264 24.1048 19.9978 24.1048C22.2693 24.1048 24.1025 22.2715 24.1025 20C24.1025 17.7285 22.2693 15.8952 19.9978 15.8952ZM19.9978 22.6678C18.5289 22.6678 17.3301 21.469 17.3301 20C17.3301 18.531 18.5289 17.3322 19.9978 17.3322C21.4668 17.3322 22.6656 18.531 22.6656 20C22.6656 21.469 21.4668 22.6678 19.9978 22.6678ZM24.2707 14.7705C23.7403 14.7705 23.312 15.1988 23.312 15.7291C23.312 16.2595 23.7403 16.6878 24.2707 16.6878C24.801 16.6878 25.2293 16.2615 25.2293 15.7291C25.2294 15.6032 25.2048 15.4784 25.1566 15.3621C25.1085 15.2457 25.0379 15.1399 24.9489 15.0509C24.8598 14.9618 24.7541 14.8912 24.6377 14.8431C24.5213 14.795 24.3966 14.7703 24.2707 14.7705V14.7705ZM27.9991 20C27.9991 18.8953 28.0091 17.8005 27.9471 16.6978C27.885 15.4169 27.5928 14.2801 26.6562 13.3435C25.7176 12.4049 24.5829 12.1147 23.302 12.0526C22.1973 11.9906 21.1026 12.0006 19.9999 12.0006C18.8951 12.0006 17.8004 11.9906 16.6977 12.0526C15.4168 12.1147 14.2801 12.4069 13.3435 13.3435C12.4049 14.2821 12.1147 15.4169 12.0526 16.6978C11.9906 17.8025 12.0006 18.8973 12.0006 20C12.0006 21.1027 11.9906 22.1995 12.0526 23.3022C12.1147 24.5831 12.4069 25.7199 13.3435 26.6565C14.2821 27.5951 15.4168 27.8853 16.6977 27.9474C17.8024 28.0094 18.8971 27.9994 19.9999 27.9994C21.1046 27.9994 22.1993 28.0094 23.302 27.9474C24.5829 27.8853 25.7196 27.5931 26.6562 26.6565C27.5948 25.7179 27.885 24.5831 27.9471 23.3022C28.0111 22.1995 27.9991 21.1047 27.9991 20V20ZM26.238 24.7192C26.0919 25.0834 25.9157 25.3556 25.6336 25.6358C25.3514 25.918 25.0812 26.0941 24.717 26.2402C23.6643 26.6585 21.1646 26.5644 19.9978 26.5644C18.8311 26.5644 16.3294 26.6585 15.2767 26.2422C14.9125 26.0961 14.6403 25.92 14.3601 25.6378C14.078 25.3556 13.9018 25.0854 13.7557 24.7212C13.3395 23.6665 13.4335 21.1668 13.4335 20C13.4335 18.8332 13.3395 16.3315 13.7557 15.2788C13.9018 14.9146 14.078 14.6424 14.3601 14.3622C14.6423 14.082 14.9125 13.9039 15.2767 13.7578C16.3294 13.3415 18.8311 13.4356 19.9978 13.4356C21.1646 13.4356 23.6663 13.3415 24.719 13.7578C25.0832 13.9039 25.3554 14.08 25.6356 14.3622C25.9177 14.6444 26.0939 14.9146 26.24 15.2788C26.6562 16.3315 26.5622 18.8332 26.5622 20C26.5622 21.1668 26.6562 23.6665 26.238 24.7192Z" fill="#00D3D2"/>
<path d="M19.9978 15.8952C17.7264 15.8952 15.8932 17.7285 15.8932 20C15.8932 22.2715 17.7264 24.1048 19.9978 24.1048C22.2693 24.1048 24.1025 22.2715 24.1025 20C24.1025 17.7285 22.2693 15.8952 19.9978 15.8952ZM19.9978 22.6678C18.5289 22.6678 17.3301 21.469 17.3301 20C17.3301 18.531 18.5289 17.3322 19.9978 17.3322C21.4668 17.3322 22.6656 18.531 22.6656 20C22.6656 21.469 21.4668 22.6678 19.9978 22.6678ZM24.2707 14.7705C23.7403 14.7705 23.312 15.1988 23.312 15.7291C23.312 16.2595 23.7403 16.6878 24.2707 16.6878C24.801 16.6878 25.2293 16.2615 25.2293 15.7291C25.2294 15.6032 25.2048 15.4784 25.1566 15.3621C25.1085 15.2457 25.0379 15.1399 24.9489 15.0509C24.8598 14.9618 24.7541 14.8912 24.6377 14.8431C24.5213 14.795 24.3966 14.7703 24.2707 14.7705V14.7705ZM27.9991 20C27.9991 18.8953 28.0091 17.8005 27.9471 16.6978C27.885 15.4169 27.5928 14.2801 26.6562 13.3435C25.7176 12.4049 24.5829 12.1147 23.302 12.0526C22.1973 11.9906 21.1026 12.0006 19.9999 12.0006C18.8951 12.0006 17.8004 11.9906 16.6977 12.0526C15.4168 12.1147 14.2801 12.4069 13.3435 13.3435C12.4049 14.2821 12.1147 15.4169 12.0526 16.6978C11.9906 17.8025 12.0006 18.8973 12.0006 20C12.0006 21.1027 11.9906 22.1995 12.0526 23.3022C12.1147 24.5831 12.4069 25.7199 13.3435 26.6565C14.2821 27.5951 15.4168 27.8853 16.6977 27.9474C17.8024 28.0094 18.8971 27.9994 19.9999 27.9994C21.1046 27.9994 22.1993 28.0094 23.302 27.9474C24.5829 27.8853 25.7196 27.5931 26.6562 26.6565C27.5948 25.7179 27.885 24.5831 27.9471 23.3022C28.0111 22.1995 27.9991 21.1047 27.9991 20V20ZM26.238 24.7192C26.0919 25.0834 25.9157 25.3556 25.6336 25.6358C25.3514 25.918 25.0812 26.0941 24.717 26.2402C23.6643 26.6585 21.1646 26.5644 19.9978 26.5644C18.8311 26.5644 16.3294 26.6585 15.2767 26.2422C14.9125 26.0961 14.6403 25.92 14.3601 25.6378C14.078 25.3556 13.9018 25.0854 13.7557 24.7212C13.3395 23.6665 13.4335 21.1668 13.4335 20C13.4335 18.8332 13.3395 16.3315 13.7557 15.2788C13.9018 14.9146 14.078 14.6424 14.3601 14.3622C14.6423 14.082 14.9125 13.9039 15.2767 13.7578C16.3294 13.3415 18.8311 13.4356 19.9978 13.4356C21.1646 13.4356 23.6663 13.3415 24.719 13.7578C25.0832 13.9039 25.3554 14.08 25.6356 14.3622C25.9177 14.6444 26.0939 14.9146 26.24 15.2788C26.6562 16.3315 26.5622 18.8332 26.5622 20C26.5622 21.1668 26.6562 23.6665 26.238 24.7192Z" fill="#00D3D2"/>
</svg>
