<svg width="20" height="20" viewBox="0 0 20 20" fill="none" xmlns="http://www.w3.org/2000/svg">
<path d="M9.99992 9.16668C9.08065 9.16668 8.33325 8.41928 8.33325 7.50001C8.33325 6.58074 9.08065 5.83334 9.99992 5.83334C10.9192 5.83334 11.6666 6.58074 11.6666 7.50001C11.6666 8.41928 10.9192 9.16668 9.99992 9.16668ZM9.99992 7.08334C9.77075 7.08334 9.58325 7.27084 9.58325 7.50001C9.58325 7.72918 9.77075 7.91668 9.99992 7.91668C10.2291 7.91668 10.4166 7.72918 10.4166 7.50001C10.4166 7.27084 10.2291 7.08334 9.99992 7.08334Z" fill="#FFC43D"/>
<path d="M12.7084 13.3333C12.3631 13.3333 12.0834 13.0531 12.0834 12.7083V12.2917C12.0834 11.7177 11.6157 11.25 11.0417 11.25H8.95841C8.38446 11.25 7.91675 11.7177 7.91675 12.2917V12.7083C7.91675 13.0536 7.63706 13.3333 7.29175 13.3333C6.94644 13.3333 6.66675 13.0531 6.66675 12.7083V12.2917C6.66675 11.0276 7.69435 10 8.95841 10H11.0417C12.3058 10 13.3334 11.0276 13.3334 12.2917V12.7083C13.3334 13.0536 13.0532 13.3333 12.7084 13.3333Z" fill="#FFC43D"/>
<path d="M10.0001 18.3333C5.40529 18.3333 1.66675 14.5948 1.66675 9.99999C1.66675 5.4052 5.40529 1.66666 10.0001 1.66666C14.5949 1.66666 18.3334 5.4052 18.3334 9.99999C18.3334 14.5948 14.5949 18.3333 10.0001 18.3333ZM10.0001 2.91666C6.09435 2.91666 2.91675 6.09426 2.91675 9.99999C2.91675 13.9057 6.09435 17.0833 10.0001 17.0833C13.9058 17.0833 17.0834 13.9057 17.0834 9.99999C17.0834 6.09426 13.9058 2.91666 10.0001 2.91666Z" fill="#FFC43D"/>
<path d="M10 4.16667C9.65469 4.16667 9.375 3.88646 9.375 3.54167V0.625C9.375 0.279687 9.65521 0 10 0C10.3448 0 10.625 0.280208 10.625 0.625V3.54167C10.625 3.88698 10.3448 4.16667 10 4.16667Z" fill="#FFC43D"/>
<path d="M10 4.16667C9.65469 4.16667 9.375 3.88646 9.375 3.54167V0.625C9.375 0.279687 9.65521 0 10 0C10.3448 0 10.625 0.280208 10.625 0.625V3.54167C10.625 3.88698 10.3448 4.16667 10 4.16667Z" fill="#FFC43D"/>
<path d="M19.3749 10.625H16.4583C16.1129 10.625 15.8333 10.3448 15.8333 10C15.8333 9.65469 16.1135 9.375 16.4583 9.375H19.3749C19.7202 9.375 19.9999 9.65521 19.9999 10C19.9999 10.3453 19.7202 10.625 19.3749 10.625Z" fill="#FFC43D"/>
<path d="M10 20C9.65469 20 9.375 19.7198 9.375 19.375V16.4583C9.375 16.113 9.65521 15.8333 10 15.8333C10.3448 15.8333 10.625 16.1136 10.625 16.4583V19.375C10.625 19.7203 10.3448 20 10 20Z" fill="#FFC43D"/>
<path d="M3.54167 10.625H0.625C0.279687 10.625 0 10.3448 0 10C0 9.65469 0.280208 9.375 0.625 9.375H3.54167C3.88698 9.375 4.16667 9.65521 4.16667 10C4.16667 10.3453 3.88646 10.625 3.54167 10.625Z" fill="#FFC43D"/>
</svg>
