<svg width="648" height="307" viewBox="0 0 648 307" fill="none" xmlns="http://www.w3.org/2000/svg">
<path d="M471.719 81.9999C471.519 81.9999 456.019 66.6999 444.919 54.6999L461.219 49.3999C461.219 49.3999 466.519 47.7999 464.919 44.9999C463.319 42.1999 460.519 42.5999 460.519 42.5999C460.519 42.5999 454.219 43.7999 443.819 45.4999C444.319 44.7999 444.719 44.1999 445.119 43.6999C448.619 39.4999 455.419 30.7999 449.319 27.0999C443.119 23.3999 436.519 36.1999 435.919 41.1999C435.819 41.6999 435.619 42.3999 435.119 43.4999C434.419 42.5999 434.019 41.8999 433.819 41.4999C432.119 36.6999 422.919 25.5999 417.719 30.4999C412.519 35.4999 421.019 42.4999 425.319 45.8999C425.919 46.3999 426.819 47.1999 427.819 48.1999C415.119 50.1999 399.719 52.4999 383.419 54.5999C378.119 51.0999 374.019 48.7999 370.819 47.1999C371.619 46.6999 372.419 46.1999 372.619 46.0999C374.819 44.6999 390.619 45.9999 395.119 42.3999C395.919 41.7999 396.319 38.9999 393.719 38.8999C391.519 38.7999 375.319 39.8999 370.219 40.2999L369.019 37.1999C367.819 34.2999 364.519 32.9999 361.519 34.1999L339.119 43.2999C336.119 44.4999 334.619 47.7999 335.819 50.6999L337.619 55.0999C338.119 56.2999 338.919 57.1999 339.919 57.6999C337.219 61.6999 334.419 66.7999 331.419 73.2999C322.819 91.7999 311.219 92.2999 311.219 92.2999C287.019 91.9999 280.319 69.1999 276.819 61.6999C273.119 53.5999 260.419 19.6999 257.419 5.09994C256.319 -0.400065 257.019 -0.500059 254.119 1.69994C251.219 3.99994 243.619 13.1999 242.519 21.2999C241.419 29.3999 253.619 71.4999 254.219 73.4999C254.819 75.4999 254.319 76.6999 253.619 76.3999C253.019 76.0999 233.219 50.9999 231.919 44.6999C230.519 38.3999 229.119 42.5999 229.119 42.5999C229.119 42.5999 225.219 56.1999 225.019 65.0999C224.819 73.9999 244.419 98.4999 246.119 100.9C247.819 103.3 245.519 102.7 245.519 102.7C245.519 102.7 228.519 90.5999 226.119 88.2999C223.719 85.9999 223.419 86.4999 223.319 89.3999C223.219 92.1999 227.519 114.9 228.119 117.4C228.719 119.9 226.519 119.9 226.519 119.9L170.019 137.9C162.719 139.2 163.119 141.5 163.119 141.5C163.119 141.5 159.719 144.7 175.519 143.5C199.419 141.8 227.219 148.5 227.219 148.5C227.519 148.7 236.419 152.2 249.419 155.1C264.619 158.5 286.519 161 310.219 148.7C331.319 138.2 335.719 123.9 350.919 102.6C366.219 81.2999 378.019 76.6999 378.019 76.6999L425.119 61.3999C417.119 74.4999 407.619 89.0999 407.419 89.0999C407.119 89.0999 394.919 105.9 400.119 120.3C405.419 134.8 412.019 147.7 440.519 145.4C442.619 145.2 444.319 144.7 445.819 143.9C447.419 144.4 449.319 144.5 451.319 144.2C479.619 140.4 483.319 126.3 485.419 111.1C487.519 95.6999 472.019 81.9999 471.719 81.9999ZM449.519 75.9999C447.119 75.6999 441.619 78.2999 438.819 78.5999C436.119 78.8999 430.119 77.4999 427.819 78.2999C425.519 79.0999 425.019 78.8999 431.619 66.9999C431.619 66.9999 433.919 62.6999 436.619 57.7999C440.319 61.9999 443.419 65.6999 443.419 65.6999C452.319 75.9999 451.919 76.3999 449.519 75.9999Z" fill="#00D3D2"/>
<path d="M30.219 281.3C38.319 282 46.519 282.6 54.819 283.1C55.819 283.1 56.619 283.5 57.219 284.2C57.819 284.9 58.019 285.7 58.019 286.6C57.419 291.7 56.719 296.8 56.019 301.8C55.919 302.7 55.519 303.5 54.719 304.2C53.919 304.9 53.019 305.2 52.019 305.3C35.619 305.2 19.319 303.6 3.21896 300.5C2.21896 300.2 1.41895 299.7 0.818953 298.9C0.218953 298.1 -0.0810501 297.2 0.0189499 296.3C1.51895 269.1 4.21896 242 8.11896 215C8.21896 214.1 8.61896 213.3 9.41896 212.6C10.219 211.9 11.1189 211.6 12.0189 211.6C19.2189 211.6 26.419 211.9 33.619 212.5C34.519 212.6 35.219 213 35.819 213.8C36.419 214.6 36.619 215.4 36.519 216.4C34.419 238.2 32.319 259.8 30.219 281.3Z" fill="#00D3D2"/>
<path d="M93.819 211.7C95.119 214.4 97.619 219.6 101.319 227.2C104.919 234.8 107.719 240.5 109.419 244.3C111.219 248.1 113.419 253 116.219 259.1C119.019 265.2 121.519 270.8 123.719 275.8C125.919 280.8 128.019 285.8 129.919 290.7C130.319 291.7 130.219 292.8 129.519 293.9C128.919 295 128.019 295.6 126.919 295.8C120.119 297.1 113.219 298.3 106.319 299.4C104.719 299.6 103.619 298.9 102.919 297.4C101.419 294.2 99.819 290.8 98.119 287.3C90.019 288.4 81.919 289.4 73.719 290.3C73.019 294.1 72.319 297.8 71.719 301.3C71.419 302.9 70.419 303.8 68.819 304C61.819 304.6 54.819 305.2 47.819 305.6C46.619 305.7 45.619 305.2 44.819 304.4C43.919 303.5 43.619 302.5 43.819 301.4C44.519 296.2 45.219 290.8 46.119 285.4C47.019 280 48.019 274 49.319 267.4C50.619 260.8 51.619 255.5 52.419 251.4C53.219 247.3 54.419 241.1 56.119 232.9C57.819 224.6 58.919 219 59.419 216C59.819 214.3 60.819 213.3 62.419 213C71.619 211.7 80.919 210.5 90.219 209.5C91.919 209.4 93.119 210.1 93.819 211.7ZM77.319 269.5C81.319 269 85.419 268.5 89.519 268C89.419 267.8 86.419 260.4 80.619 245.5C80.419 247.3 80.119 249.8 79.619 253C79.119 256.3 78.719 259.2 78.319 261.9C77.919 264.6 77.519 267.1 77.319 269.5Z" fill="#00D3D2"/>
<path d="M231.419 276.6C235.819 281.4 239.919 285.8 243.619 289.7C244.219 290.4 244.419 291.3 244.419 292.2C244.319 293.1 243.919 293.9 243.119 294.6C232.519 303.1 220.419 306.6 206.919 305.1C191.419 303.4 180.219 297 173.419 285.8C167.819 276.7 165.819 265.8 167.419 253.2C168.819 240.4 173.219 230.3 180.419 222.8C189.519 213.6 202.019 209.9 217.819 211.9C229.219 213.3 238.819 218.1 246.819 226.1C247.619 226.8 247.919 227.6 247.919 228.6C247.919 229.6 247.519 230.4 246.819 231.1C242.619 234.9 238.419 238.8 234.219 242.6C233.519 243.2 232.819 243.5 231.919 243.4C231.019 243.4 230.219 243.1 229.519 242.5C226.319 239.5 222.319 237.7 217.419 237.1C214.419 236.7 211.719 236.8 209.419 237.4C207.119 238 205.219 238.8 203.919 240C202.519 241.2 201.319 242.7 200.419 244.6C199.419 246.5 198.719 248.4 198.319 250.2C197.919 252 197.519 254.2 197.219 256.6C196.919 259.1 196.819 261.2 196.819 263.1C196.819 265 197.019 266.9 197.519 269C198.019 271.1 198.819 272.9 199.819 274.3C200.819 275.7 202.419 277 204.519 278.1C206.619 279.2 209.219 279.9 212.219 280.3C217.619 280.9 222.419 279.5 226.619 276.1C227.319 275.5 228.219 275.3 229.119 275.3C230.119 275.6 230.819 276 231.419 276.6Z" fill="#00D3D2"/>
<path d="M276.119 301.3C269.219 303.5 262.019 304.6 254.719 304.6C253.819 304.6 252.919 304.2 252.119 303.5C251.319 302.8 250.819 302 250.719 301.1C246.019 274.3 241.919 247.3 238.419 220.3C238.319 219.3 238.519 218.4 239.019 217.5C239.619 216.6 240.319 216 241.219 215.7C248.219 213.5 255.319 212.4 262.619 212.4C263.519 212.4 264.419 212.8 265.219 213.4C266.019 214.1 266.519 214.9 266.619 215.9C271.319 242.7 275.419 269.6 278.919 296.7C279.019 297.6 278.819 298.5 278.319 299.4C277.719 300.3 277.019 301 276.119 301.3Z" fill="#00D3D2"/>
<path d="M356.319 261.9C355.819 265.8 355.319 269.4 354.619 272.9C353.719 277.9 352.619 283.7 351.319 290.3C351.419 290.4 351.219 290.9 350.819 291.7C350.419 292.6 349.519 293.7 348.219 295.2C346.919 296.7 345.219 298.1 343.119 299.3C333.619 305 322.819 307 310.919 305.1C293.319 302.3 281.119 295.2 274.419 283.6C269.219 274.7 267.819 263.7 269.919 250.8C271.919 238 276.819 228.1 284.519 221.2C294.419 212.4 307.819 209.5 324.719 212.3C337.819 214.5 348.219 220.6 355.919 230.5C356.519 231.3 356.819 232.1 356.719 233.1C356.619 234 356.219 234.8 355.419 235.3C351.119 238.6 346.719 242 342.119 245.4C341.319 245.9 340.419 246.1 339.419 246C338.419 245.8 337.619 245.3 337.019 244.5C333.819 239.8 329.419 236.9 323.619 235.9C319.919 235.3 316.619 235.4 313.819 236.2C311.019 237 308.819 238.4 307.219 240.5C305.519 242.5 304.219 244.8 303.319 247.2C302.419 249.6 301.619 252.4 301.119 255.6C298.519 271.9 303.019 281 314.719 282.9C321.119 283.9 325.419 283.3 327.619 280.9C327.719 280.5 327.819 279.7 328.019 278.6C328.219 277.5 328.319 276.5 328.519 275.7C327.519 275.5 325.719 275.2 323.119 274.8C320.519 274.4 319.019 274.1 318.619 274.1C317.619 273.9 316.919 273.5 316.319 272.8C315.719 272.1 315.519 271.3 315.719 270.3C316.619 265.3 317.519 260.2 318.519 255.2C318.619 254.3 319.119 253.5 319.919 252.9C320.719 252.2 321.619 251.9 322.519 252C333.019 252.6 343.319 254.4 353.519 257.3C354.419 257.6 355.119 258.2 355.719 259C356.319 260 356.519 260.9 356.319 261.9Z" fill="#00D3D2"/>
<path d="M385.119 273C385.419 275.3 386.219 277 387.819 278.1C389.319 279.2 391.219 279.6 393.419 279.3C395.619 279 397.419 278.2 398.719 276.8C400.019 275.4 400.519 273.5 400.319 271.3C398.319 252.6 396.219 234 393.919 215.5C393.819 214.5 394.019 213.6 394.619 212.9C395.219 212.1 396.019 211.7 397.019 211.7C404.219 211.1 411.319 210.7 418.519 210.4C419.419 210.4 420.319 210.7 421.019 211.3C421.819 211.9 422.319 212.7 422.419 213.7C425.519 232.4 427.819 251.1 429.519 269.9C430.419 279.1 427.219 287.1 420.219 293.8C413.719 300 405.719 303.6 396.219 304.5C386.719 305.6 378.119 303.9 370.519 299.3C362.219 294.2 357.519 287.1 356.319 278C353.819 259.3 352.019 240.5 350.919 221.6C350.919 220.6 351.219 219.7 351.819 218.9C352.419 218.1 353.219 217.6 354.119 217.5C361.319 216.1 368.319 215 375.419 214C376.419 213.8 377.219 214 378.019 214.6C378.719 215.2 379.219 216 379.319 217C381.019 235.8 383.019 254.4 385.119 273ZM376.819 195.3C378.919 197 380.119 199.1 380.419 201.6C380.719 204.1 380.019 206.5 378.319 208.6C376.619 210.7 374.519 211.9 372.019 212.2C369.419 212.5 367.019 211.8 365.019 210.2C362.919 208.6 361.819 206.4 361.519 203.8C361.219 201.2 361.919 198.8 363.519 196.8C365.119 194.8 367.319 193.6 369.919 193.3C372.419 192.9 374.719 193.6 376.819 195.3ZM404.819 192.1C406.819 193.7 408.019 195.9 408.319 198.5C408.619 201.1 407.919 203.5 406.319 205.5C404.719 207.5 402.519 208.7 399.919 209C397.319 209.3 394.919 208.6 392.919 206.9C390.819 205.2 389.719 203.1 389.419 200.6C389.119 198.1 389.819 195.7 391.419 193.6C393.019 191.5 395.219 190.3 397.819 190C400.419 189.8 402.719 190.5 404.819 192.1Z" fill="#00D3D2"/>
<path d="M628.119 216.5C628.819 219.5 630.219 225 632.219 233.2C634.219 241.4 635.719 247.5 636.619 251.6C637.519 255.7 638.819 260.9 640.319 267.5C641.819 274 643.119 280 644.219 285.4C645.319 290.8 646.319 296.1 647.219 301.3C647.419 302.4 647.019 303.4 646.219 304.3C645.419 305.2 644.419 305.7 643.219 305.7C636.319 305.5 629.319 305.3 622.319 305C620.719 304.9 619.819 304 619.419 302.4C618.619 298.9 617.819 295.3 616.819 291.5C608.719 290.9 600.519 290.2 592.319 289.5C590.819 293.1 589.419 296.6 588.119 299.8C587.519 301.3 586.319 302 584.719 301.9C577.719 301.1 570.819 300.2 563.819 299.2C562.719 299 561.819 298.4 561.119 297.4C560.419 296.4 560.319 295.3 560.719 294.3C562.419 289.3 564.319 284.2 566.219 279.1C568.219 274 570.419 268.3 573.019 262.1C575.619 255.9 577.719 250.9 579.319 247C580.919 243.2 583.419 237.4 586.719 229.6C590.019 221.8 592.319 216.6 593.419 213.8C594.119 212.2 595.319 211.4 596.919 211.5C606.219 212.1 615.519 212.9 624.819 213.8C626.719 213.8 627.719 214.8 628.119 216.5ZM600.119 269.7C604.119 270 608.219 270.4 612.319 270.7C612.219 270.5 610.919 262.6 608.219 246.9C607.619 248.6 606.819 251 605.719 254.1C604.619 257.2 603.619 260 602.619 262.5C601.719 265 600.819 267.4 600.119 269.7Z" fill="#00D3D2"/>
<path d="M481.919 239.1C473.419 237.8 464.919 236.7 456.219 235.7C455.619 241.2 455.219 245.3 454.919 248C462.219 248.8 469.519 249.6 476.819 250.6C477.819 250.7 478.619 251.1 479.219 251.9C479.819 252.7 480.119 253.5 480.019 254.4C479.419 259.6 478.919 264.7 478.419 269.8C478.319 270.8 477.919 271.6 477.119 272.2C476.319 272.8 475.419 273.1 474.519 273C467.219 272.4 459.919 271.7 452.619 270.9C452.219 274.3 451.919 277.8 451.519 281.4C460.119 282.3 468.719 283 477.319 283.5C478.319 283.5 479.119 283.9 479.719 284.6C480.319 285.3 480.519 286.1 480.419 287C479.719 292.1 479.019 297.1 478.319 302.2C478.119 303.1 477.619 303.9 476.919 304.5C476.119 305.2 475.319 305.5 474.419 305.5C457.619 305.4 440.919 303.6 424.419 300.2C423.519 300 422.719 299.5 422.119 298.7C421.519 297.9 421.219 297 421.319 296.1C423.019 268.9 425.919 241.8 430.019 214.9C430.119 214 430.519 213.2 431.319 212.6C432.119 211.9 432.919 211.6 433.819 211.6C450.619 211.7 467.319 213.5 483.819 216.9C484.719 217.1 485.419 217.6 486.119 218.4C486.719 219.2 487.019 220.1 487.019 221C486.619 226.1 486.219 231.2 485.919 236.2C485.819 237.1 485.419 237.8 484.719 238.4C484.019 239 482.919 239.3 481.919 239.1Z" fill="#00D3D2"/>
<path d="M540.819 255.3C539.319 241.9 537.719 228.6 535.919 215.2C535.819 214.2 536.019 213.3 536.619 212.6C537.219 211.8 538.019 211.4 539.019 211.4C546.219 210.8 553.319 210.3 560.519 210C561.419 210 562.319 210.3 563.019 211C563.819 211.7 564.319 212.4 564.419 213.3C569.019 240.2 572.019 267.3 573.319 294.5C573.419 295 573.319 295.5 573.119 295.9C572.919 296.3 572.719 296.7 572.419 297.1C572.119 297.5 571.719 297.8 571.319 298C570.919 298.3 570.519 298.4 570.119 298.6C562.419 299.9 554.819 301.1 547.219 302.1C546.019 302.3 545.019 301.9 544.219 300.9C537.419 292.2 527.319 279.8 514.119 263.6C515.519 276.3 517.019 289 518.619 301.7C518.719 302.7 518.519 303.5 517.919 304.3C517.319 305 516.619 305.4 515.719 305.5C508.519 306 501.419 306.5 494.219 306.9C493.219 306.9 492.319 306.6 491.519 305.9C490.719 305.2 490.219 304.5 490.119 303.6C485.519 276.7 482.519 249.6 481.219 222.4C481.219 221.5 481.519 220.6 482.119 219.8C482.719 219 483.519 218.5 484.519 218.3C491.519 217 498.519 215.9 505.619 215C506.819 214.8 507.819 215.2 508.519 216.2C515.619 225.1 526.419 238.1 540.819 255.3ZM495.519 205.5C499.419 200 504.219 197 510.119 196.3C513.119 196 516.319 196.5 519.719 198C523.319 199.4 526.419 200 528.919 199.7C533.019 199.3 536.119 197.5 538.219 194.6L543.619 199.5C540.119 204.2 535.619 206.9 529.919 207.5C526.319 207.9 522.819 207.4 519.519 206C519.219 205.9 518.619 205.6 517.819 205.3C517.019 205 516.419 204.7 516.119 204.6C515.819 204.5 515.319 204.3 514.619 204.1C514.019 203.9 513.319 203.8 512.819 203.8C512.219 203.8 511.619 203.8 510.919 203.9C506.719 204.4 503.219 206.4 500.419 210.2L495.519 205.5Z" fill="#00D3D2"/>
</svg>
