<svg width="110" height="56" viewBox="0 0 110 56" fill="none" xmlns="http://www.w3.org/2000/svg">
<path d="M72.2484 44.4577C72.7798 43.4757 72.5416 42.5608 72.7676 41.7313C73.1646 40.2736 73.4639 40.0174 74.9786 40.2553C77.4095 40.6396 79.932 40.3651 82.2774 41.3227C82.7538 41.5179 83.2363 41.1946 83.7066 41.0482C84.8304 40.6945 85.7099 40.731 86.5833 41.835C87.8048 43.372 89.1363 44.8359 90.3273 46.4095C90.5228 46.6656 90.7182 46.9462 91.2496 46.9645C91.5855 45.9947 91.4573 44.9761 91.2802 43.982C91.1336 43.1647 91.103 42.3474 91.0847 41.524C91.0603 40.5359 91.5428 40.1211 92.4956 40.1516C92.9353 40.1638 93.3751 40.1333 93.8149 40.1455C95.2563 40.1943 95.5067 40.4383 95.6655 41.8716C95.8915 43.8844 96.1175 45.9032 96.3496 47.916C96.3923 48.282 96.3068 48.7089 96.8382 48.9773C97.675 47.9038 98.1697 46.6351 98.585 45.3665C99.0492 43.9454 99.8676 42.695 100.338 41.2861C100.619 40.4383 101.26 40.0967 102.146 40.2126C102.201 40.2187 102.256 40.237 102.311 40.237C104.864 40.176 106.653 40.8469 106.916 43.8966C107.038 45.3177 107.631 46.7632 107.887 48.221C108.235 50.2215 108.815 52.1672 109.274 54.1373C109.506 55.1375 109.133 55.6072 108.125 55.6072C107.576 55.6072 107.026 55.6072 106.476 55.6133C105.67 55.6194 105.096 55.3388 104.9 54.4788C104.693 53.5578 104.039 53.2956 103.172 53.2956C102.622 53.2956 102.06 53.2895 101.529 53.1797C100.698 53.0028 100.112 53.2224 99.8066 54.0214C99.489 54.8448 98.8415 54.9607 98.072 54.9607C96.4778 54.9668 94.8837 54.796 93.3018 55.1253C92.5994 55.2717 92.178 54.8875 91.781 54.3812C90.7243 53.0455 89.6494 51.7341 88.5744 50.4106C88.1957 49.9471 87.8415 49.4591 86.9925 49.1846C86.51 51.2889 87.9087 53.1919 87.3834 55.2046C87.3468 55.2473 87.2918 55.3815 87.2063 55.4059C83.7493 56.5343 83.2546 56.2659 82.7538 52.7405C82.485 50.8436 82.3018 48.9285 82.1613 47.0194C81.9903 44.7505 81.5566 44.2625 79.3029 44.0674C78.9731 44.0369 78.6432 44.0186 78.3195 43.9454C77.2812 43.6953 76.9514 44.2869 76.7865 45.1591C76.6155 46.0679 77.1163 46.3241 77.8737 46.4156C78.4722 46.4888 79.0647 46.6534 79.6632 46.7083C80.5916 46.7937 80.897 47.3305 80.7993 48.1661C80.7077 48.9956 80.616 49.8922 79.5105 49.9715C78.802 50.0202 78.0813 49.9593 77.3728 49.9044C76.7987 49.8556 76.3834 50.0081 76.2734 50.618C76.1696 51.1974 76.2551 51.7158 76.8659 52.0086C77.6416 52.3746 78.4722 52.338 79.2968 52.338C80.158 52.3441 80.8176 52.5149 80.8115 53.5944C80.8054 54.8021 80.3595 55.5218 79.3578 55.5889C77.0369 55.7475 74.7587 55.412 72.4805 55.0095C71.8453 54.8997 71.3934 54.5337 71.0635 53.9238C68.9747 55.4608 66.7209 55.967 64.3023 55.412C61.7431 54.8265 60.6865 52.8137 60.0269 50.0934C59.6665 51.1303 59.3855 51.7158 59.2573 52.338C58.7748 54.7045 57.0402 55.4608 54.9025 55.6072C52.1967 55.7902 49.6254 55.4608 47.5182 53.509C47.4022 53.3992 47.2372 53.3444 47.0907 53.2712C47.0479 53.2529 46.9868 53.2651 46.9319 53.2651C46.5837 54.9058 45.2706 55.7841 43.5726 55.5584C42.9191 55.4669 42.6809 55.0278 42.4366 54.5093C41.8075 53.1797 41.8441 51.728 41.5876 50.3313C41.2333 48.4039 41.2211 46.4156 40.6226 44.354C39.456 45.0371 38.4726 44.9457 37.2877 44.3052C35.6997 43.4452 33.7514 44.4943 33.22 46.2448C33.0001 46.9706 32.878 47.7513 32.8413 48.5137C32.7314 50.8985 34.8141 52.4844 37.1656 51.8378C37.7336 51.6793 38.2955 51.2218 38.888 51.6244C39.6514 52.1428 40.6531 52.6307 40.6226 53.6554C40.5981 54.4849 39.6392 54.8204 38.949 55.0644C33.672 56.9124 27.9673 54.5581 28.1261 47.9099C28.175 45.8178 28.8591 43.738 30.4837 42.0973C32.0656 40.4993 33.9651 40.1272 36.0601 40.2248C36.3288 40.237 36.5976 40.3285 36.8663 40.3773C38.6376 40.7188 40.2622 41.3349 42.2411 40.6335C44.0857 39.9808 44.953 40.5603 44.9224 42.512C44.9102 43.2622 45.1789 44.0186 45.3316 44.7749C45.35 44.8664 45.466 44.9395 45.7347 45.2445C46.883 43.9759 47.2861 42.14 48.8497 41.2373C50.511 40.2736 52.2517 40.0784 54.084 40.2553C55.8736 40.4261 57.4738 41.1153 58.9763 42.3108C59.9475 40.9994 61.2545 40.7615 62.6837 40.8164C63.4716 40.8469 63.8931 41.1519 63.9663 41.9814C64.1679 44.3296 64.4305 46.6717 64.6382 49.02C64.6993 49.7397 64.7665 50.4411 65.2368 51.0327C65.6093 51.5024 66.0918 51.7341 66.6904 51.5878C67.2401 51.4536 67.4905 51.0205 67.5638 50.5021C67.7104 49.5201 67.6188 48.5381 67.5088 47.55C67.2951 45.702 67.0874 43.8478 66.9897 41.9875C66.9042 40.359 67.1302 40.2065 68.7548 40.1638C71.0513 40.1089 71.2834 40.3102 71.5888 42.5486C71.6865 43.122 71.7415 43.7258 72.2484 44.4577ZM59.4649 44.5919C59.0985 44.7322 58.8603 44.7566 58.7076 44.8908C57.883 45.6166 57.1562 45.4397 56.4111 44.7566C56.1362 44.5065 55.7759 44.3235 55.4277 44.171C53.797 43.4391 52.4716 43.8173 51.4149 45.2628C50.5171 46.4888 50.4072 47.8977 50.4927 49.331C50.6148 51.2706 52.1357 52.5088 54.0657 52.3258C54.6398 52.2709 55.2017 52.1672 55.3178 51.4963C55.4216 50.8924 54.9758 50.5936 54.481 50.4533C53.6931 50.2276 53.4366 49.7763 53.6321 48.9773C53.8397 48.1295 54.084 47.3854 55.1651 47.3854C55.9347 47.3854 56.692 47.3915 57.4494 47.5439C58.1212 47.6781 58.8114 47.977 59.5627 47.6415C59.8192 46.6656 59.8375 45.7203 59.4649 44.5919ZM103.031 46.4644C102.024 47.2817 101.902 48.2271 101.755 49.0993C101.602 49.9959 102.36 50.191 103.031 50.1971C103.777 50.2032 103.911 49.6604 103.758 49.0505C103.557 48.2637 103.325 47.489 103.031 46.4644Z" fill="#00D3D2"/>
<path d="M20.4243 29.1546C22.281 27.9957 24.2905 27.831 26.1411 27.2211C28.23 26.538 30.3249 25.8732 32.4626 25.3608C33.8674 25.0254 34.1239 24.5374 33.9285 23.0858C33.8002 22.1099 33.6292 21.134 33.4826 20.1581C33.4032 19.6275 33.1895 19.0847 33.6781 18.493C35.0768 19.1335 36.1273 20.3899 37.7153 21.0852C37.7519 20.0971 37.2878 19.4811 36.793 18.9383C35.4249 17.4439 34.6736 15.5837 33.9102 13.7905C33.2078 12.1376 33.9529 10.4664 34.7286 8.78907C36.3838 11.0153 37.5687 13.4672 39.5049 15.4556C40.1034 14.7481 39.7064 14.1686 39.5904 13.6258C39.0101 10.8872 38.3871 8.15474 37.7886 5.42226C37.2755 3.05574 38.662 1.52482 39.8835 0C40.5432 0.0975885 40.7203 0.384255 40.7753 0.713616C41.215 3.21432 42.119 5.58694 42.9191 7.97176C43.878 10.814 44.6964 13.7417 46.3639 16.3156C47.2678 17.7123 48.526 18.6516 50.0346 19.231C51.7753 19.8959 53.3022 19.597 54.6948 18.2064C56.3439 16.5596 57.0219 14.376 58.1884 12.4669C58.4877 11.979 58.0602 11.5276 57.8647 11.0885C57.4433 10.1553 57.6998 9.53318 58.6465 9.10623C59.8497 8.55729 61.0896 8.11815 62.3417 7.71559C63.2029 7.44113 64.0274 7.28254 64.7909 8.03886C65.3039 8.5451 66.0369 8.34992 66.6843 8.39871C67.747 8.4719 68.8403 8.19744 70.068 8.65488C68.5899 10.0516 66.5927 8.66708 65.1024 9.97843C66.2323 10.9665 67.1485 11.9302 68.8098 11.7655C71.1063 11.5398 73.3967 11.3203 75.681 11.0092C76.1635 10.9421 76.6949 11.0031 77.0003 10.3749C76.8903 9.08183 74.2884 8.4841 75.7115 6.60552C77.3851 6.87389 77.8431 8.44141 78.9364 9.43559C79.535 8.5146 79.822 7.54481 80.4878 6.819C80.7932 6.48354 81.1352 6.12978 81.6116 6.32496C82.1796 6.55673 82.1186 7.09347 82.0758 7.59971C82.0086 8.39261 81.2268 8.86226 81.0986 9.65516C82.2529 10.6615 83.6882 9.23431 84.9464 10.1553C83.9387 11.4179 82.1308 10.8567 81.1291 12.101C81.5261 13.083 82.2896 13.8637 83.0225 14.6444C84.1158 15.8032 85.2091 16.9743 86.4062 18.0234C87.8354 19.2737 88.5195 20.9449 89.2341 22.6039C89.5456 23.3237 89.4051 24.1105 89.2035 24.8729C87.9453 29.6242 85.997 30.6855 81.1474 31.0819C79.8892 31.1856 78.6188 31.1368 77.3545 31.1002C73.0425 30.9722 69.8909 26.3855 71.314 22.299C71.9186 20.5668 73.0302 19.1274 74.038 17.6269C74.8809 16.3766 75.6932 15.0957 76.4322 13.9552C76.2307 13.4977 76.0169 13.3574 75.8032 13.4184C72.4622 14.2967 69.0663 15.053 65.9208 16.4864C63.4777 17.6025 61.8225 19.7251 60.2223 21.8415C58.3717 24.2812 56.9302 27.032 54.6215 29.1302C51.8608 31.6309 48.5749 32.8507 44.9041 33.0703C41.9052 33.2472 39.0346 32.6312 36.1761 31.698C31.5648 30.1976 26.8618 29.1302 21.9451 29.4595C21.5237 29.4656 21.0656 29.5266 20.4243 29.1546ZM82.4545 16.5535C81.4528 14.9859 80.6161 13.6441 79.0708 12.6438C78.118 14.0405 77.2629 15.3092 76.7193 16.9377C78.6982 17.5598 80.4084 17.2122 82.4545 16.5535ZM64.797 12.3206C64.1496 11.8875 63.4655 11.4728 62.7143 12.2413C62.4089 12.5462 62.4211 12.9366 62.7876 13.2415C63.325 13.6929 64.1679 13.4245 64.8153 12.6011C64.8337 12.5645 64.8092 12.4913 64.797 12.3206Z" fill="#00D3D2"/>
<path d="M0 51.8562C0.0977238 48.4528 0.70239 45.1043 1.1849 41.7497C1.39867 40.2553 1.85675 40.0297 3.34704 40.2431C3.72572 40.298 4.09829 40.4078 4.48308 40.4444C5.31373 40.5298 5.59469 40.9629 5.50918 41.7802C5.21601 44.6651 4.96559 47.5501 4.69074 50.435C4.5747 51.6488 4.91062 52.0331 6.26043 52.216C7.34761 52.3624 7.74461 52.1062 7.92174 50.9535C8.37982 48.0319 9.35705 45.2141 9.64412 42.262C9.76016 41.0421 10.4503 40.3956 11.6536 40.2675C11.8185 40.2492 11.9773 40.1943 12.1422 40.1821C15.2571 40.0297 15.5259 39.865 16.7413 42.8414C18.0423 46.0314 19.8013 49.02 20.9679 52.277C21.4748 53.6982 21.3343 53.9726 19.8379 54.241C18.5981 54.4667 17.3215 54.8265 16.6741 53.1797C16.5214 52.7833 16.045 52.8199 15.648 52.8504C14.9945 52.9052 14.3349 52.954 13.6752 52.9662C12.753 52.9845 12.0506 53.3688 11.7696 54.2532C11.4215 55.345 10.6763 55.6194 9.62579 55.6072C7.21324 55.5889 4.80679 55.6011 2.40034 55.2718C0.183232 54.9912 0 54.8753 0 52.6796C0 52.4051 0 52.1306 0 51.8562ZM13.4126 46.1411C12.6552 47.0682 12.9362 47.9953 12.7652 48.8126C12.6674 49.2701 12.7224 49.7031 13.2416 49.8922C13.6141 50.0264 13.9989 50.0081 14.341 49.7824C14.7685 49.5018 14.8601 49.0688 14.7074 48.6297C14.4326 47.8184 14.1211 47.0133 13.4126 46.1411Z" fill="#00D3D2"/>
</svg>
