<svg width="196" height="34" viewBox="0 0 196 34" fill="none" xmlns="http://www.w3.org/2000/svg">
<path d="M158.248 16.3445C158.78 15.3625 158.542 14.4476 158.768 13.6181C159.165 12.1604 159.464 11.9042 160.979 12.1421C163.409 12.5263 165.932 12.2519 168.277 13.2095C168.754 13.4046 169.236 13.0814 169.706 12.935C170.83 12.5812 171.71 12.6178 172.583 13.7218C173.805 15.2588 175.136 16.7226 176.327 18.2963C176.523 18.5524 176.718 18.833 177.25 18.8513C177.585 17.8815 177.457 16.8629 177.28 15.8687C177.133 15.0514 177.103 14.2341 177.085 13.4107C177.06 12.4226 177.543 12.0079 178.496 12.0384C178.935 12.0506 179.375 12.0201 179.815 12.0323C181.256 12.0811 181.507 12.3251 181.665 13.7584C181.891 15.7712 182.117 17.79 182.349 19.8028C182.392 20.1687 182.307 20.5957 182.838 20.8641C183.675 19.7906 184.17 18.5219 184.585 17.2533C185.049 15.8321 185.868 14.5818 186.338 13.1729C186.619 12.3251 187.26 11.9835 188.146 12.0994C188.201 12.1055 188.256 12.1238 188.311 12.1238C190.864 12.0628 192.653 12.7337 192.916 15.7834C193.038 17.2045 193.63 18.65 193.887 20.1077C194.235 22.1083 194.815 24.054 195.273 26.024C195.506 27.0243 195.133 27.494 194.125 27.494C193.576 27.494 193.026 27.494 192.476 27.5001C191.67 27.5062 191.096 27.2256 190.9 26.3656C190.693 25.4446 190.039 25.1823 189.172 25.1823C188.622 25.1823 188.06 25.1762 187.529 25.0665C186.698 24.8896 186.112 25.1092 185.806 25.9082C185.489 26.7316 184.841 26.8474 184.072 26.8474C182.478 26.8535 180.884 26.6828 179.302 27.0121C178.599 27.1585 178.178 26.7743 177.781 26.268C176.724 24.9323 175.649 23.6209 174.574 22.2974C174.196 21.8338 173.841 21.3459 172.992 21.0714C172.51 23.1757 173.909 25.0787 173.383 27.0914C173.347 27.1341 173.292 27.2683 173.206 27.2927C169.749 28.4211 169.254 28.1527 168.754 24.6273C168.485 22.7304 168.302 20.8153 168.161 18.9062C167.99 16.6373 167.557 16.1493 165.303 15.9541C164.973 15.9236 164.643 15.9053 164.319 15.8321C163.281 15.5821 162.951 16.1737 162.786 17.0459C162.615 17.9547 163.116 18.2109 163.874 18.3024C164.472 18.3755 165.065 18.5402 165.663 18.5951C166.592 18.6805 166.897 19.2172 166.799 20.0528C166.708 20.8823 166.616 21.7789 165.51 21.8582C164.802 21.907 164.081 21.846 163.373 21.7911C162.799 21.7423 162.383 21.8948 162.273 22.5048C162.17 23.0842 162.255 23.6026 162.866 23.8954C163.641 24.2613 164.472 24.2248 165.297 24.2248C166.158 24.2309 166.818 24.4016 166.811 25.4812C166.805 26.6889 166.359 27.4086 165.358 27.4757C163.037 27.6343 160.759 27.2988 158.48 26.8962C157.845 26.7865 157.393 26.4205 157.063 25.8106C154.975 27.3476 152.721 27.8538 150.302 27.2988C147.743 26.7133 146.686 24.7005 146.027 21.9802C145.666 23.0171 145.385 23.6026 145.257 24.2248C144.775 26.5913 143.04 27.3476 140.902 27.494C138.197 27.6769 135.625 27.3476 133.518 25.3958C133.402 25.286 133.237 25.2311 133.091 25.1579C133.048 25.1396 132.987 25.1518 132.932 25.1518C132.584 26.7925 131.27 27.6708 129.573 27.4452C128.919 27.3537 128.681 26.9145 128.436 26.3961C127.807 25.0665 127.844 23.6148 127.587 22.2181C127.233 20.2907 127.221 18.3024 126.622 16.2408C125.456 16.9239 124.473 16.8324 123.288 16.192C121.7 15.332 119.751 16.3811 119.22 18.1316C119 18.8574 118.878 19.6381 118.841 20.4005C118.731 22.7853 120.814 24.3711 123.165 23.7246C123.734 23.566 124.295 23.1086 124.888 23.5111C125.651 24.0296 126.653 24.5175 126.622 25.5422C126.598 26.3717 125.639 26.7072 124.949 26.9511C119.672 28.7992 113.967 26.4449 114.126 19.7967C114.175 17.7046 114.859 15.6248 116.484 13.9841C118.066 12.3861 119.965 12.014 122.06 12.1116C122.329 12.1238 122.597 12.2153 122.866 12.2641C124.637 12.6056 126.262 13.2217 128.241 12.5202C130.086 11.8676 130.953 12.447 130.922 14.3988C130.91 15.149 131.179 15.9053 131.332 16.6616C131.35 16.7531 131.466 16.8263 131.735 17.1313C132.883 15.8626 133.286 14.0268 134.85 13.1241C136.511 12.1604 138.252 11.9652 140.084 12.1421C141.874 12.3129 143.474 13.0021 144.976 14.1975C145.947 12.8862 147.254 12.6483 148.684 12.7032C149.472 12.7337 149.893 13.0387 149.966 13.8682C150.168 16.2164 150.43 18.5585 150.638 20.9067C150.699 21.6265 150.766 22.3279 151.237 22.9195C151.609 23.3892 152.092 23.6209 152.69 23.4745C153.24 23.3404 153.49 22.9073 153.564 22.3889C153.71 21.4069 153.619 20.4249 153.509 19.4368C153.295 17.5887 153.087 15.7346 152.99 13.8743C152.904 12.2458 153.13 12.0933 154.755 12.0506C157.051 11.9957 157.283 12.197 157.589 14.4354C157.686 15.0087 157.741 15.6126 158.248 16.3445ZM145.465 16.4787C145.098 16.619 144.86 16.6434 144.707 16.7775C143.883 17.5034 143.156 17.3265 142.411 16.6434C142.136 16.3933 141.776 16.2103 141.428 16.0578C139.797 15.3259 138.471 15.7041 137.415 17.1496C136.517 18.3755 136.407 19.7845 136.493 21.2178C136.615 23.1574 138.136 24.3955 140.066 24.2126C140.64 24.1577 141.202 24.054 141.318 23.3831C141.422 22.7792 140.976 22.4804 140.481 22.3401C139.693 22.1144 139.437 21.6631 139.632 20.8641C139.84 20.0163 140.084 19.2721 141.165 19.2721C141.935 19.2721 142.692 19.2782 143.449 19.4307C144.121 19.5649 144.811 19.8638 145.563 19.5283C145.819 18.5524 145.837 17.607 145.465 16.4787ZM189.031 18.3511C188.024 19.1684 187.901 20.1138 187.755 20.986C187.602 21.8826 188.359 22.0778 189.031 22.0839C189.776 22.09 189.911 21.5472 189.758 20.9372C189.557 20.1504 189.325 19.3758 189.031 18.3511Z" fill="#00C2C1"/>
<path d="M0 29.1546C1.85675 27.9957 3.8662 27.831 5.71684 27.2211C7.80569 26.538 9.90065 25.8732 12.0384 25.3608C13.4431 25.0254 13.6997 24.5374 13.5042 23.0858C13.3759 22.1099 13.2049 21.134 13.0583 20.1581C12.9789 19.6275 12.7652 19.0847 13.2538 18.493C14.6525 19.1335 15.703 20.3899 17.291 21.0852C17.3277 20.0971 16.8635 19.4811 16.3687 18.9383C15.0006 17.4439 14.2494 15.5837 13.4859 13.7905C12.7835 12.1376 13.5286 10.4664 14.3043 8.78907C15.9595 11.0153 17.1444 13.4672 19.0806 15.4556C19.6791 14.7481 19.2821 14.1686 19.1661 13.6258C18.5858 10.8872 17.9629 8.15474 17.3643 5.42226C16.8513 3.05574 18.2377 1.52482 19.4593 0C20.1189 0.0975885 20.296 0.384255 20.351 0.713616C20.7907 3.21432 21.6947 5.58694 22.4948 7.97176C23.4537 10.814 24.2722 13.7417 25.9396 16.3156C26.8435 17.7123 28.1017 18.6516 29.6103 19.231C31.351 19.8959 32.878 19.597 34.2705 18.2064C35.9196 16.5596 36.5976 14.376 37.7641 12.4669C38.0634 11.979 37.6359 11.5276 37.4404 11.0885C37.019 10.1553 37.2755 9.53318 38.2222 9.10623C39.4255 8.55729 40.6653 8.11815 41.9174 7.71559C42.7786 7.44113 43.6031 7.28254 44.3666 8.03886C44.8797 8.5451 45.6126 8.34992 46.26 8.39871C47.3228 8.4719 48.416 8.19744 49.6437 8.65488C48.1656 10.0516 46.1684 8.66708 44.6781 9.97843C45.808 10.9665 46.7242 11.9302 48.3855 11.7655C50.682 11.5398 52.9724 11.3203 55.2567 11.0092C55.7392 10.9421 56.2706 11.0031 56.576 10.3749C56.466 9.08183 53.8642 8.4841 55.2873 6.60552C56.9608 6.87389 57.4189 8.44141 58.5121 9.43559C59.1107 8.5146 59.3978 7.54481 60.0635 6.819C60.3689 6.48354 60.7109 6.12978 61.1873 6.32496C61.7553 6.55673 61.6943 7.09347 61.6515 7.59971C61.5843 8.39261 60.8025 8.86226 60.6743 9.65516C61.8286 10.6615 63.264 9.23431 64.5221 10.1553C63.5144 11.4179 61.7065 10.8567 60.7048 12.101C61.1018 13.083 61.8653 13.8637 62.5982 14.6444C63.6915 15.8032 64.7848 16.9743 65.9819 18.0234C67.4111 19.2737 68.0952 20.9449 68.8098 22.6039C69.1213 23.3237 68.9808 24.1105 68.7792 24.8729C67.521 29.6242 65.5727 30.6855 60.7231 31.0819C59.4649 31.1856 58.1945 31.1368 56.9302 31.1002C52.6182 30.9722 49.4666 26.3855 50.8897 22.299C51.4944 20.5668 52.606 19.1274 53.6137 17.6269C54.4566 16.3766 55.2689 15.0957 56.008 13.9552C55.8064 13.4977 55.5926 13.3574 55.3789 13.4184C52.0379 14.2967 48.642 15.053 45.4965 16.4864C43.0535 17.6025 41.3983 19.7251 39.798 21.8415C37.9474 24.2812 36.506 27.032 34.1972 29.1302C31.4365 31.6309 28.1506 32.8507 24.4798 33.0703C21.4809 33.2472 18.6103 32.6312 15.7519 31.698C11.1405 30.1976 6.43756 29.1302 1.52083 29.4595C1.09939 29.4656 0.641313 29.5266 0 29.1546ZM62.0302 16.5535C61.0285 14.9859 60.1918 13.6441 58.6465 12.6438C57.6937 14.0405 56.8386 15.3092 56.295 16.9377C58.2739 17.5598 59.9841 17.2122 62.0302 16.5535ZM44.3727 12.3206C43.7253 11.8875 43.0412 11.4728 42.29 12.2413C41.9846 12.5462 41.9968 12.9366 42.3633 13.2415C42.9008 13.6929 43.7436 13.4245 44.391 12.6011C44.4094 12.5645 44.3849 12.4913 44.3727 12.3206Z" fill="#00C2C1"/>
<path d="M86 23.7429C86.0977 20.3395 86.7024 16.991 87.1849 13.6364C87.3987 12.1421 87.8568 11.9164 89.347 12.1299C89.7257 12.1847 90.0983 12.2945 90.4831 12.3311C91.3137 12.4165 91.5947 12.8496 91.5092 13.6669C91.216 16.5518 90.9656 19.4368 90.6907 22.3218C90.5747 23.5355 90.9106 23.9198 92.2604 24.1027C93.3476 24.2491 93.7446 23.993 93.9217 22.8402C94.3798 19.9186 95.3571 17.1008 95.6441 14.1487C95.7602 12.9289 96.4503 12.2823 97.6536 12.1543C97.8185 12.136 97.9773 12.0811 98.1422 12.0689C101.257 11.9164 101.526 11.7517 102.741 14.7282C104.042 17.9181 105.801 20.9067 106.968 24.1637C107.475 25.5849 107.334 25.8593 105.838 26.1277C104.598 26.3534 103.322 26.7132 102.674 25.0664C102.521 24.67 102.045 24.7066 101.648 24.7371C100.994 24.792 100.335 24.8408 99.6752 24.853C98.753 24.8713 98.0506 25.2555 97.7696 26.1399C97.4215 27.2317 96.6763 27.5062 95.6258 27.494C93.2132 27.4757 90.8068 27.4879 88.4003 27.1585C86.1832 26.8779 86 26.762 86 24.5663C86 24.2918 86 24.0174 86 23.7429ZM99.4126 18.0279C98.6552 18.955 98.9362 19.882 98.7652 20.6994C98.6674 21.1568 98.7224 21.5898 99.2416 21.7789C99.6141 21.9131 99.9989 21.8948 100.341 21.6691C100.769 21.3886 100.86 20.9555 100.707 20.5164C100.433 19.7052 100.121 18.9001 99.4126 18.0279Z" fill="#00C2C1"/>
</svg>
