<svg width="1056" height="179" viewBox="0 0 1056 179" fill="none" xmlns="http://www.w3.org/2000/svg">
<path d="M308.908 85.0333C308.708 85.0333 293.208 69.7333 282.108 57.7333L298.408 52.4332C298.408 52.4332 303.708 50.8333 302.108 48.0333C300.508 45.2333 297.708 45.6333 297.708 45.6333C297.708 45.6333 291.408 46.8333 281.008 48.5333C281.508 47.8333 281.908 47.2333 282.308 46.7333C285.808 42.5333 292.608 33.8333 286.508 30.1333C280.308 26.4333 273.708 39.2333 273.108 44.2333C273.008 44.7333 272.808 45.4333 272.308 46.5333C271.608 45.6333 271.208 44.9333 271.008 44.5333C269.308 39.7333 260.108 28.6333 254.908 33.5333C249.708 38.5333 258.208 45.5332 262.508 48.9332C263.108 49.4332 264.008 50.2333 265.008 51.2333C252.308 53.2333 236.908 55.5333 220.608 57.6333C215.308 54.1333 211.208 51.8333 208.008 50.2333C208.808 49.7333 209.608 49.2333 209.808 49.1333C212.008 47.7333 227.808 49.0332 232.308 45.4332C233.108 44.8332 233.508 42.0332 230.908 41.9332C228.708 41.8332 212.508 42.9332 207.408 43.3332L206.208 40.2333C205.008 37.3333 201.708 36.0333 198.708 37.2333L176.308 46.3332C173.308 47.5332 171.808 50.8333 173.008 53.7333L174.808 58.1333C175.308 59.3333 176.108 60.2333 177.108 60.7333C174.408 64.7333 171.608 69.8332 168.608 76.3332C160.008 94.8332 148.408 95.3332 148.408 95.3332C124.208 95.0332 117.508 72.2333 114.008 64.7333C110.308 56.6333 97.6078 22.7333 94.6078 8.13326C93.5078 2.63326 94.2078 2.53327 91.3078 4.73327C88.4078 7.03327 80.8078 16.2332 79.7078 24.3332C78.6078 32.4332 90.8078 74.5333 91.4078 76.5333C92.0078 78.5333 91.5078 79.7333 90.8078 79.4333C90.2078 79.1332 70.4078 54.0333 69.1078 47.7333C67.7078 41.4333 66.3078 45.6333 66.3078 45.6333C66.3078 45.6333 62.4078 59.2333 62.2078 68.1333C62.0078 77.0333 81.6078 101.533 83.3078 103.933C85.0078 106.333 82.7078 105.733 82.7078 105.733C82.7078 105.733 65.7078 93.6332 63.3078 91.3332C60.9078 89.0332 60.6078 89.5332 60.5078 92.4333C60.4078 95.2333 64.7078 117.933 65.3078 120.433C65.9078 122.933 63.7078 122.933 63.7078 122.933L7.2078 140.933C-0.0921969 142.233 0.307809 144.533 0.307809 144.533C0.307809 144.533 -3.0922 147.733 12.7078 146.533C36.6078 144.833 64.4078 151.533 64.4078 151.533C64.7078 151.733 73.6078 155.233 86.6078 158.133C101.808 161.533 123.708 164.033 147.408 151.733C168.508 141.233 172.908 126.933 188.108 105.633C203.408 84.3333 215.208 79.7333 215.208 79.7333L262.308 64.4332C254.308 77.5332 244.808 92.1333 244.608 92.1333C244.308 92.1333 232.108 108.933 237.308 123.333C242.608 137.833 249.208 150.733 277.708 148.433C279.808 148.233 281.508 147.733 283.008 146.933C284.608 147.433 286.508 147.533 288.508 147.233C316.808 143.433 320.508 129.333 322.608 114.133C324.708 98.7333 309.208 85.0333 308.908 85.0333ZM286.708 79.0333C284.308 78.7333 278.808 81.3333 276.008 81.6333C273.308 81.9333 267.308 80.5332 265.008 81.3332C262.708 82.1332 262.208 81.9333 268.808 70.0333C268.808 70.0333 271.108 65.7332 273.808 60.8332C277.508 65.0332 280.608 68.7333 280.608 68.7333C289.508 79.0333 289.108 79.4333 286.708 79.0333Z" fill="#00D3D2"/>
<path d="M528.619 153.033C529.519 153.033 530.319 153.133 531.019 153.333C531.719 153.533 532.419 153.833 533.019 154.133V147.633C533.019 147.433 533.119 147.233 533.419 147.133C533.619 146.933 534.019 146.833 534.319 146.733C534.719 146.633 535.119 146.633 535.519 146.533C535.919 146.533 536.319 146.533 536.719 146.633C537.119 146.733 537.419 146.833 537.619 147.033C537.819 147.233 538.019 147.533 538.019 147.833C538.019 148.133 538.019 148.633 538.019 149.233C538.019 149.833 538.019 150.533 538.019 151.333C538.019 152.133 538.019 153.033 538.019 153.933C538.019 154.833 538.019 155.833 538.019 156.833C538.019 157.833 538.019 158.833 538.019 159.933C538.019 160.933 538.019 162.033 538.019 162.933C538.019 163.933 538.019 164.833 538.019 165.733C538.019 166.633 538.019 167.433 538.019 168.133C538.019 168.833 538.019 169.433 538.019 169.933C538.019 170.433 538.019 170.733 538.019 170.933C538.019 171.133 537.919 171.233 537.619 171.433C537.419 171.533 537.119 171.633 536.719 171.733C536.319 171.833 536.019 171.833 535.619 171.933C535.219 171.933 534.819 171.933 534.519 171.933C534.219 171.933 533.919 171.833 533.619 171.733C533.419 171.633 533.219 171.433 533.219 171.233V170.733C532.619 171.133 531.919 171.333 531.219 171.533C530.519 171.733 529.619 171.833 528.819 171.833C527.719 171.833 526.719 171.633 525.819 171.333C524.919 171.033 524.119 170.533 523.519 169.933C522.919 169.333 522.319 168.633 521.819 167.833C521.419 167.033 521.019 166.133 520.819 165.233C520.619 164.333 520.519 163.433 520.519 162.433C520.519 161.433 520.619 160.533 520.819 159.633C521.019 158.733 521.419 157.833 521.819 157.033C522.219 156.233 522.819 155.533 523.419 154.933C524.119 154.333 524.819 153.833 525.719 153.433C526.519 153.233 527.519 153.033 528.619 153.033ZM529.219 167.233C529.819 167.233 530.319 167.033 530.819 166.833C531.319 166.633 531.719 166.233 532.019 165.833C532.319 165.433 532.619 164.933 532.819 164.433C533.019 163.933 533.119 163.433 533.119 162.833V161.833C533.119 161.333 532.919 160.733 532.719 160.233C532.519 159.733 532.219 159.333 531.919 158.933C531.619 158.533 531.119 158.233 530.619 158.033C530.119 157.833 529.519 157.633 528.919 157.633C528.219 157.633 527.619 157.733 527.119 158.033C526.619 158.333 526.219 158.633 525.819 159.133C525.519 159.633 525.219 160.133 525.119 160.733C525.019 161.333 524.919 161.933 524.919 162.533C524.919 163.133 525.019 163.733 525.219 164.333C525.419 164.933 525.719 165.433 526.019 165.833C526.419 166.233 526.819 166.633 527.319 166.833C527.919 167.133 528.519 167.233 529.219 167.233Z" fill="#00D3D2"/>
<path d="M559.819 165.733C559.919 165.633 560.119 165.533 560.419 165.533C560.719 165.533 561.019 165.633 561.319 165.833C561.619 165.933 561.919 166.133 562.219 166.433C562.519 166.633 562.819 166.933 563.019 167.133C563.219 167.433 563.419 167.633 563.419 167.833C563.519 168.033 563.419 168.333 563.319 168.433C562.719 169.133 562.019 169.733 561.319 170.233C560.619 170.733 559.819 171.133 559.119 171.433C558.319 171.733 557.619 171.933 556.819 172.133C556.019 172.233 555.219 172.333 554.519 172.233C553.319 172.133 552.219 171.933 551.219 171.433C550.119 170.933 549.219 170.333 548.419 169.533C547.619 168.733 547.019 167.733 546.519 166.533C546.019 165.333 545.819 164.033 545.819 162.533C545.819 161.733 545.919 160.933 546.119 160.133C546.319 159.333 546.619 158.633 546.919 157.833C547.319 157.133 547.719 156.433 548.219 155.833C548.719 155.233 549.319 154.633 550.119 154.233C550.819 153.733 551.619 153.433 552.519 153.133C553.419 152.833 554.319 152.733 555.419 152.733C556.719 152.733 557.919 152.933 558.919 153.433C559.919 153.933 560.719 154.533 561.419 155.333C562.119 156.133 562.619 157.033 563.019 158.033C563.419 159.033 563.619 160.133 563.719 161.133C563.719 161.533 563.719 161.833 563.719 162.233C563.719 162.633 563.619 162.933 563.419 163.233C563.319 163.533 563.119 163.833 562.919 164.033C562.719 164.233 562.419 164.333 562.119 164.333C561.719 164.333 561.219 164.333 560.619 164.333C560.019 164.333 559.419 164.333 558.719 164.333C558.019 164.333 557.319 164.333 556.619 164.333C555.919 164.333 555.119 164.333 554.419 164.333C553.719 164.333 552.919 164.333 552.219 164.333C551.519 164.333 550.819 164.333 550.219 164.333C550.419 164.933 550.619 165.533 550.919 165.933C551.219 166.433 551.519 166.833 551.919 167.133C552.319 167.433 552.719 167.733 553.219 167.833C553.719 168.033 554.219 168.033 554.719 168.133C555.519 168.133 556.419 167.933 557.219 167.533C558.319 167.133 559.019 166.533 559.819 165.733ZM554.719 157.333C553.919 157.333 553.219 157.633 552.619 158.033C552.019 158.433 551.519 158.933 551.119 159.533H558.619C558.519 159.233 558.319 158.933 558.119 158.633C557.919 158.333 557.619 158.133 557.319 157.933C557.019 157.733 556.619 157.633 556.219 157.533C555.719 157.433 555.219 157.333 554.719 157.333Z" fill="#00D3D2"/>
<path d="M576.619 171.333C576.619 171.533 576.519 171.733 576.219 171.833C576.019 172.033 575.619 172.133 575.319 172.233C575.019 172.333 574.519 172.333 574.119 172.433C573.719 172.433 573.319 172.433 572.919 172.333C572.519 172.233 572.219 172.133 572.019 171.933C571.819 171.733 571.619 171.433 571.619 171.133L571.719 147.633C571.719 147.433 571.819 147.333 572.119 147.133C572.319 147.033 572.619 146.933 573.019 146.833C573.419 146.733 573.719 146.733 574.119 146.733C574.519 146.733 574.919 146.733 575.219 146.733C575.619 146.733 575.819 146.833 576.119 147.033C576.319 147.133 576.519 147.333 576.519 147.533L576.619 171.333Z" fill="#00D3D2"/>
<path d="M587.619 152.833C587.019 152.833 586.419 152.733 586.019 152.433C585.619 152.133 585.219 151.833 585.019 151.433C584.819 151.033 584.719 150.633 584.719 150.133C584.719 149.633 584.819 149.233 585.019 148.833C585.219 148.433 585.519 148.133 585.919 147.833C586.319 147.533 586.819 147.433 587.519 147.433C588.119 147.433 588.619 147.533 589.019 147.833C589.419 148.133 589.719 148.433 589.919 148.833C590.119 149.233 590.219 149.633 590.219 150.133C590.219 150.633 590.119 151.033 589.919 151.433C589.719 151.833 589.419 152.133 589.019 152.433C588.719 152.633 588.219 152.833 587.619 152.833ZM589.919 171.333C589.919 171.533 589.819 171.733 589.519 171.833C589.319 172.033 588.919 172.133 588.619 172.233C588.219 172.333 587.819 172.333 587.419 172.433C587.019 172.533 586.619 172.433 586.219 172.333C585.819 172.233 585.519 172.133 585.319 171.933C585.119 171.733 584.919 171.433 584.919 171.133L585.119 154.533C585.119 154.333 585.219 154.233 585.519 154.033C585.719 153.933 586.019 153.833 586.419 153.733C586.819 153.633 587.119 153.633 587.519 153.633C587.919 153.633 588.319 153.633 588.619 153.633C589.019 153.633 589.219 153.733 589.519 153.933C589.719 154.033 589.919 154.233 589.919 154.433V171.333Z" fill="#00D3D2"/>
<path d="M607.719 165.433L613.319 153.933C613.419 153.733 613.619 153.633 613.819 153.633C614.119 153.633 614.419 153.633 614.719 153.733C615.019 153.833 615.419 153.933 615.819 154.133C616.219 154.333 616.519 154.433 616.819 154.633C617.119 154.833 617.319 155.033 617.519 155.233C617.719 155.433 617.719 155.633 617.619 155.733C617.519 155.933 617.319 156.233 617.119 156.733C616.919 157.233 616.619 157.733 616.319 158.433C616.019 159.133 615.719 159.833 615.319 160.633C614.919 161.433 614.519 162.233 614.219 163.033C613.819 163.833 613.419 164.633 613.019 165.533C612.619 166.333 612.219 167.133 611.919 167.833C611.519 168.533 611.219 169.233 610.919 169.833C610.619 170.433 610.419 170.933 610.219 171.233C610.119 171.333 610.019 171.433 609.719 171.533C609.519 171.633 609.219 171.733 608.819 171.733C608.519 171.733 608.119 171.833 607.819 171.733C607.419 171.733 607.119 171.733 606.819 171.633C606.519 171.533 606.219 171.533 606.019 171.433C605.819 171.333 605.619 171.233 605.619 171.033C605.419 170.633 605.219 170.133 605.019 169.533C604.719 168.933 604.419 168.233 604.019 167.533C603.619 166.833 603.319 166.033 602.919 165.233C602.519 164.433 602.119 163.633 601.719 162.733C601.319 161.933 600.919 161.133 600.519 160.333C600.119 159.533 599.719 158.833 599.419 158.233C599.119 157.633 598.819 157.033 598.519 156.533C598.319 156.033 598.119 155.733 598.019 155.533C597.919 155.333 598.019 155.233 598.119 155.033C598.319 154.833 598.519 154.633 598.819 154.433C599.119 154.233 599.419 154.033 599.819 153.933C600.219 153.733 600.519 153.633 600.919 153.533C601.219 153.433 601.519 153.433 601.819 153.433C602.119 153.433 602.219 153.533 602.319 153.733L607.719 165.433Z" fill="#00D3D2"/>
<path d="M638.119 165.733C638.219 165.633 638.419 165.533 638.719 165.533C639.019 165.533 639.319 165.633 639.619 165.833C639.919 165.933 640.219 166.133 640.519 166.433C640.819 166.633 641.119 166.933 641.319 167.133C641.519 167.433 641.719 167.633 641.719 167.833C641.819 168.033 641.719 168.333 641.619 168.433C641.019 169.133 640.319 169.733 639.619 170.233C638.919 170.733 638.119 171.133 637.419 171.433C636.619 171.733 635.919 171.933 635.119 172.133C634.319 172.233 633.519 172.333 632.819 172.233C631.619 172.133 630.519 171.933 629.519 171.433C628.419 170.933 627.519 170.333 626.719 169.533C625.919 168.733 625.319 167.733 624.819 166.533C624.319 165.333 624.119 164.033 624.119 162.533C624.119 161.733 624.219 160.933 624.419 160.133C624.619 159.333 624.919 158.633 625.219 157.833C625.619 157.133 626.019 156.433 626.519 155.833C627.019 155.233 627.619 154.633 628.419 154.233C629.119 153.733 629.919 153.433 630.819 153.133C631.719 152.833 632.619 152.733 633.719 152.733C635.019 152.733 636.219 152.933 637.219 153.433C638.219 153.933 639.019 154.533 639.719 155.333C640.419 156.133 640.919 157.033 641.319 158.033C641.719 159.033 641.919 160.133 642.019 161.133C642.019 161.533 642.019 161.833 642.019 162.233C642.019 162.633 641.919 162.933 641.719 163.233C641.619 163.533 641.419 163.833 641.219 164.033C641.019 164.233 640.719 164.333 640.419 164.333C640.019 164.333 639.519 164.333 638.919 164.333C638.319 164.333 637.719 164.333 637.019 164.333C636.319 164.333 635.619 164.333 634.919 164.333C634.219 164.333 633.419 164.333 632.719 164.333C632.019 164.333 631.219 164.333 630.519 164.333C629.819 164.333 629.119 164.333 628.519 164.333C628.719 164.933 628.919 165.533 629.219 165.933C629.519 166.433 629.819 166.833 630.219 167.133C630.619 167.433 631.019 167.733 631.519 167.833C632.019 168.033 632.519 168.033 633.019 168.133C633.819 168.133 634.719 167.933 635.519 167.533C636.519 167.133 637.319 166.533 638.119 165.733ZM633.019 157.333C632.219 157.333 631.519 157.633 630.919 158.033C630.319 158.433 629.819 158.933 629.419 159.533H636.919C636.819 159.233 636.619 158.933 636.419 158.633C636.219 158.333 635.919 158.133 635.619 157.933C635.319 157.733 634.919 157.633 634.519 157.533C634.019 157.433 633.519 157.333 633.019 157.333Z" fill="#00D3D2"/>
<path d="M654.719 154.633C655.119 154.433 655.619 154.133 656.119 154.033C656.619 153.833 657.219 153.733 657.819 153.633C658.419 153.533 659.019 153.533 659.719 153.633C660.319 153.633 661.019 153.833 661.619 153.933C662.219 154.133 662.819 154.333 663.419 154.733C664.019 155.033 664.519 155.533 665.019 156.033C665.219 156.233 665.219 156.433 665.219 156.733C665.219 157.033 665.119 157.333 665.019 157.633C664.919 157.933 664.719 158.233 664.619 158.533C664.419 158.833 664.219 159.133 664.019 159.333C663.819 159.533 663.619 159.733 663.419 159.833C663.219 159.933 663.019 159.933 662.919 159.833C662.419 159.433 661.919 159.133 661.319 158.933C660.819 158.733 660.219 158.533 659.619 158.533C659.019 158.433 658.519 158.433 658.019 158.533C657.519 158.633 657.019 158.733 656.619 158.833C656.219 159.033 655.819 159.233 655.519 159.433C655.219 159.633 655.019 159.933 654.819 160.233L655.019 171.933C655.019 172.133 654.919 172.333 654.619 172.433C654.419 172.633 654.019 172.733 653.719 172.833C653.319 172.933 652.919 172.933 652.519 173.033C652.119 173.033 651.719 173.033 651.319 172.933C650.919 172.833 650.619 172.733 650.419 172.533C650.219 172.333 650.019 172.033 650.019 171.733C650.019 171.333 650.019 170.833 650.019 170.233C650.019 169.633 650.019 168.833 650.019 168.033C650.019 167.233 650.019 166.333 650.019 165.433C650.019 164.533 650.019 163.533 650.019 162.633C650.019 161.633 650.019 160.733 650.019 159.833C650.019 158.933 650.019 158.033 650.019 157.333C650.019 156.533 650.019 155.833 650.019 155.333C650.019 154.733 650.019 154.333 650.019 154.033C650.019 153.833 650.119 153.733 650.419 153.533C650.619 153.433 650.919 153.333 651.319 153.233C651.719 153.133 652.019 153.133 652.419 153.133C652.819 153.133 653.219 153.133 653.519 153.133C653.919 153.133 654.119 153.233 654.419 153.433C654.619 153.533 654.819 153.733 654.819 153.933L654.719 154.633Z" fill="#00D3D2"/>
<path d="M683.819 162.833C684.119 161.633 684.419 160.533 684.719 159.433C685.019 158.333 685.319 157.333 685.519 156.533C685.719 155.633 685.919 154.933 686.119 154.333C686.319 153.733 686.419 153.333 686.419 153.133C686.419 152.933 686.619 152.833 686.919 152.733C687.219 152.633 687.519 152.633 687.819 152.633C688.219 152.633 688.519 152.733 688.919 152.833C689.319 152.933 689.719 153.033 690.019 153.133C690.319 153.233 690.619 153.433 690.819 153.633C691.019 153.833 691.119 154.033 691.019 154.133L684.619 177.933C684.619 178.133 684.419 178.233 684.119 178.333C683.819 178.433 683.519 178.433 683.119 178.433C682.719 178.433 682.319 178.333 681.919 178.333C681.519 178.233 681.119 178.133 680.819 177.933C680.519 177.733 680.219 177.533 680.019 177.333C679.819 177.033 679.819 176.833 679.819 176.433C679.919 176.133 680.019 175.733 680.119 175.233C680.319 174.733 680.419 174.133 680.619 173.433C680.819 172.733 681.019 172.033 681.219 171.233C681.419 170.433 681.719 169.633 681.919 168.833C681.319 167.933 680.619 167.033 679.919 166.133C679.219 165.233 678.519 164.233 677.919 163.333C677.219 162.433 676.619 161.533 676.019 160.733C675.419 159.933 674.819 159.133 674.419 158.533C673.919 157.833 673.519 157.333 673.219 156.833C672.919 156.333 672.619 156.033 672.519 155.933C672.419 155.733 672.419 155.633 672.519 155.333C672.619 155.133 672.819 154.833 673.019 154.533C673.219 154.233 673.519 154.033 673.819 153.733C674.119 153.433 674.419 153.233 674.719 153.133C675.019 152.933 675.319 152.833 675.619 152.833C675.919 152.833 676.019 152.833 676.219 153.033L683.819 162.833Z" fill="#00D3D2"/>
<path d="M723.019 153.033C723.919 153.033 724.719 153.133 725.419 153.333C726.119 153.533 726.819 153.833 727.419 154.133V147.633C727.419 147.433 727.519 147.233 727.819 147.133C728.019 146.933 728.419 146.833 728.719 146.733C729.119 146.633 729.519 146.633 729.919 146.533C730.319 146.533 730.719 146.533 731.119 146.633C731.519 146.733 731.819 146.833 732.019 147.033C732.219 147.233 732.419 147.533 732.419 147.833C732.419 148.133 732.419 148.633 732.419 149.233C732.419 149.833 732.419 150.533 732.419 151.333C732.419 152.133 732.419 153.033 732.419 153.933C732.419 154.833 732.419 155.833 732.419 156.833C732.419 157.833 732.419 158.833 732.419 159.933C732.419 160.933 732.419 162.033 732.419 162.933C732.419 163.933 732.419 164.833 732.419 165.733C732.419 166.633 732.419 167.433 732.419 168.133C732.419 168.833 732.419 169.433 732.419 169.933C732.419 170.433 732.419 170.733 732.419 170.933C732.419 171.133 732.319 171.233 732.019 171.433C731.719 171.633 731.519 171.633 731.119 171.733C730.719 171.833 730.419 171.833 730.019 171.933C729.619 171.933 729.219 171.933 728.919 171.933C728.619 171.933 728.319 171.833 728.019 171.733C727.819 171.633 727.619 171.433 727.619 171.233V170.733C727.019 171.133 726.319 171.333 725.619 171.533C724.919 171.733 724.019 171.833 723.219 171.833C722.119 171.833 721.119 171.633 720.219 171.333C719.319 171.033 718.519 170.533 717.919 169.933C717.319 169.333 716.719 168.633 716.219 167.833C715.819 167.033 715.419 166.133 715.219 165.233C715.019 164.333 714.919 163.433 714.919 162.433C714.919 161.433 715.019 160.533 715.219 159.633C715.419 158.733 715.819 157.833 716.219 157.033C716.619 156.233 717.219 155.533 717.819 154.933C718.419 154.333 719.219 153.833 720.119 153.433C720.919 153.233 721.919 153.033 723.019 153.033ZM723.719 167.233C724.319 167.233 724.819 167.033 725.319 166.833C725.819 166.533 726.219 166.233 726.519 165.833C726.819 165.433 727.119 164.933 727.319 164.433C727.519 163.933 727.619 163.433 727.619 162.833V161.833C727.619 161.333 727.419 160.733 727.219 160.233C727.019 159.733 726.719 159.333 726.419 158.933C726.119 158.533 725.619 158.233 725.119 158.033C724.619 157.833 724.019 157.633 723.419 157.633C722.719 157.633 722.119 157.733 721.619 158.033C721.119 158.333 720.719 158.633 720.319 159.133C720.019 159.633 719.719 160.133 719.619 160.733C719.419 161.333 719.419 161.933 719.419 162.533C719.419 163.133 719.519 163.733 719.719 164.333C719.919 164.933 720.219 165.433 720.519 165.833C720.919 166.233 721.319 166.633 721.819 166.833C722.419 167.133 723.019 167.233 723.719 167.233Z" fill="#00D3D2"/>
<path d="M754.219 165.733C754.319 165.633 754.519 165.533 754.819 165.533C755.119 165.533 755.419 165.633 755.719 165.833C756.019 165.933 756.319 166.133 756.619 166.433C756.919 166.633 757.219 166.933 757.419 167.133C757.619 167.433 757.819 167.633 757.819 167.833C757.919 168.033 757.819 168.333 757.719 168.433C757.119 169.133 756.419 169.733 755.719 170.233C755.019 170.733 754.219 171.133 753.519 171.433C752.719 171.733 752.019 171.933 751.219 172.133C750.419 172.233 749.619 172.333 748.919 172.233C747.719 172.133 746.619 171.933 745.619 171.433C744.519 170.933 743.619 170.333 742.819 169.533C742.019 168.733 741.419 167.733 740.919 166.533C740.419 165.333 740.219 164.033 740.219 162.533C740.219 161.733 740.319 160.933 740.519 160.133C740.719 159.333 741.019 158.633 741.319 157.833C741.719 157.133 742.119 156.433 742.619 155.833C743.119 155.233 743.719 154.633 744.519 154.233C745.219 153.733 746.019 153.433 746.919 153.133C747.819 152.833 748.719 152.733 749.819 152.733C751.119 152.733 752.319 152.933 753.319 153.433C754.319 153.933 755.119 154.533 755.819 155.333C756.519 156.133 757.019 157.033 757.419 158.033C757.819 159.033 758.019 160.133 758.119 161.133C758.119 161.533 758.119 161.833 758.119 162.233C758.119 162.633 758.019 162.933 757.819 163.233C757.719 163.533 757.519 163.833 757.319 164.033C757.119 164.233 756.819 164.333 756.519 164.333C756.119 164.333 755.619 164.333 755.019 164.333C754.419 164.333 753.819 164.333 753.119 164.333C752.419 164.333 751.719 164.333 751.019 164.333C750.319 164.333 749.519 164.333 748.819 164.333C748.119 164.333 747.319 164.333 746.619 164.333C745.919 164.333 745.219 164.333 744.619 164.333C744.819 164.933 745.019 165.533 745.319 165.933C745.619 166.433 745.919 166.833 746.319 167.133C746.719 167.433 747.119 167.733 747.619 167.833C748.119 168.033 748.619 168.033 749.119 168.133C749.919 168.133 750.819 167.933 751.619 167.533C752.719 167.133 753.519 166.533 754.219 165.733ZM749.119 157.333C748.319 157.333 747.619 157.633 747.019 158.033C746.419 158.433 745.919 158.933 745.519 159.533H753.019C752.919 159.233 752.719 158.933 752.519 158.633C752.319 158.333 752.019 158.133 751.719 157.933C751.419 157.733 751.019 157.633 750.619 157.533C750.219 157.433 749.719 157.333 749.119 157.333Z" fill="#00D3D2"/>
<path d="M791.519 171.733C790.619 171.733 789.819 171.633 789.119 171.433C788.419 171.233 787.719 170.933 787.119 170.633V177.333C787.119 177.533 787.019 177.733 786.719 177.833C786.519 178.033 786.119 178.133 785.819 178.233C785.419 178.333 785.019 178.333 784.619 178.433C784.219 178.433 783.819 178.433 783.419 178.333C783.019 178.233 782.719 178.133 782.519 177.933C782.319 177.733 782.119 177.433 782.119 177.133C782.119 176.833 782.119 176.333 782.119 175.733C782.119 175.133 782.119 174.433 782.119 173.633C782.119 172.833 782.119 171.933 782.119 171.033C782.119 170.033 782.119 169.133 782.119 168.033C782.119 167.033 782.119 165.933 782.119 164.933C782.119 163.833 782.119 162.833 782.119 161.833C782.119 160.833 782.119 159.933 782.119 159.033C782.119 158.133 782.119 157.333 782.119 156.633C782.119 155.933 782.119 155.333 782.119 154.833C782.119 154.333 782.119 154.033 782.119 153.833C782.119 153.633 782.219 153.533 782.519 153.333C782.719 153.233 783.019 153.133 783.419 153.033C783.719 152.933 784.119 152.933 784.519 152.833C784.919 152.833 785.319 152.833 785.619 152.833C785.919 152.833 786.219 152.933 786.519 153.033C786.719 153.133 786.919 153.333 786.919 153.533V154.033C787.519 153.633 788.219 153.433 788.919 153.233C789.619 153.033 790.519 152.933 791.319 152.933C792.419 152.933 793.419 153.133 794.319 153.433C795.219 153.833 796.019 154.233 796.619 154.833C797.319 155.433 797.819 156.133 798.319 156.933C798.719 157.733 799.119 158.633 799.319 159.533C799.519 160.433 799.619 161.333 799.619 162.333C799.619 163.333 799.519 164.233 799.319 165.133C799.119 166.033 798.719 166.933 798.319 167.733C797.919 168.533 797.319 169.233 796.719 169.833C796.019 170.433 795.319 170.933 794.419 171.333C793.519 171.633 792.519 171.733 791.519 171.733ZM790.819 157.533C790.219 157.533 789.719 157.733 789.219 157.933C788.719 158.233 788.319 158.533 788.019 158.933C787.719 159.333 787.419 159.833 787.219 160.333C787.019 160.833 786.919 161.333 786.919 161.933V162.933C786.919 163.433 787.119 164.033 787.319 164.533C787.519 165.033 787.819 165.433 788.119 165.833C788.419 166.233 788.919 166.533 789.419 166.733C789.919 166.933 790.519 167.133 791.119 167.133C791.819 167.133 792.419 167.033 792.919 166.733C793.419 166.433 793.819 166.133 794.219 165.633C794.519 165.133 794.819 164.633 794.919 164.033C795.119 163.433 795.119 162.833 795.119 162.233C795.119 161.633 795.019 161.033 794.819 160.433C794.619 159.833 794.319 159.333 794.019 158.933C793.619 158.533 793.219 158.133 792.719 157.933C792.119 157.633 791.519 157.533 790.819 157.533Z" fill="#00D3D2"/>
<path d="M824.919 171.333C824.919 171.533 824.819 171.733 824.519 171.833C824.319 172.033 823.919 172.133 823.619 172.233C823.219 172.333 822.819 172.433 822.419 172.433C822.019 172.433 821.619 172.433 821.219 172.333C820.819 172.233 820.519 172.133 820.319 171.933C820.119 171.733 819.919 171.533 819.919 171.133V170.833C818.719 171.633 817.519 172.033 816.119 172.033C815.119 172.033 814.319 171.933 813.519 171.633C812.719 171.433 812.019 171.033 811.319 170.633C810.719 170.233 810.119 169.633 809.619 169.133C809.119 168.533 808.719 167.933 808.419 167.233C808.119 166.533 807.819 165.833 807.719 165.033C807.519 164.233 807.419 163.533 807.419 162.733C807.419 161.933 807.419 161.133 807.619 160.233C807.719 159.433 808.019 158.633 808.319 157.933C808.619 157.233 809.019 156.533 809.519 155.833C810.019 155.233 810.619 154.633 811.219 154.133C811.919 153.633 812.619 153.333 813.519 153.033C814.319 152.733 815.319 152.633 816.319 152.633C817.019 152.633 817.719 152.733 818.319 152.833C818.919 153.033 819.519 153.233 820.119 153.533C820.119 153.433 820.119 153.333 820.119 153.333C820.119 153.233 820.119 153.233 820.119 153.133C820.119 152.933 820.219 152.833 820.519 152.633C820.719 152.533 821.019 152.433 821.419 152.333C821.819 152.233 822.119 152.233 822.519 152.233C822.919 152.233 823.319 152.233 823.619 152.333C824.019 152.433 824.219 152.533 824.519 152.633C824.719 152.733 824.919 152.933 824.919 153.133V171.333ZM815.719 157.533C815.119 157.533 814.619 157.733 814.219 157.933C813.719 158.233 813.419 158.533 813.019 159.033C812.719 159.533 812.419 160.033 812.319 160.633C812.119 161.233 812.119 161.933 812.119 162.633C812.119 162.933 812.119 163.333 812.219 163.633C812.319 164.033 812.419 164.333 812.519 164.733C812.619 165.133 812.819 165.433 813.019 165.733C813.219 166.033 813.419 166.333 813.719 166.633C814.019 166.833 814.319 167.033 814.619 167.233C814.919 167.433 815.319 167.433 815.719 167.433C816.419 167.433 817.019 167.233 817.519 166.933C818.019 166.633 818.519 166.233 818.819 165.733C819.219 165.233 819.419 164.633 819.619 164.033C819.819 163.433 819.919 162.733 819.919 162.133C819.919 161.533 819.819 160.933 819.619 160.333C819.419 159.733 819.119 159.233 818.819 158.833C818.419 158.433 818.019 158.033 817.519 157.833C817.019 157.633 816.419 157.533 815.719 157.533Z" fill="#00D3D2"/>
<path d="M837.819 155.033C837.919 154.933 838.119 154.933 838.319 154.833C838.519 154.733 838.619 154.733 838.819 154.633C840.419 154.033 841.719 153.633 842.919 153.633C844.119 153.633 845.119 153.933 845.919 154.533C846.719 155.133 847.419 156.033 847.919 157.333C848.419 158.633 848.719 160.233 848.819 162.133C848.919 163.433 848.919 164.933 849.019 166.333C849.019 167.833 849.019 169.433 848.919 171.233C848.919 171.533 848.819 171.733 848.519 171.933C848.319 172.133 848.019 172.233 847.619 172.333C847.319 172.433 846.919 172.433 846.519 172.433C846.119 172.433 845.719 172.433 845.419 172.333C845.119 172.233 844.819 172.133 844.619 171.933C844.419 171.733 844.319 171.533 844.319 171.233C844.419 169.533 844.419 167.933 844.519 166.533C844.519 165.133 844.519 163.933 844.519 162.833C844.419 161.933 844.319 161.133 844.219 160.533C844.019 159.933 843.819 159.433 843.419 159.033C843.119 158.733 842.619 158.533 842.019 158.533C841.419 158.533 840.719 158.633 839.919 159.033C839.219 159.333 838.619 159.633 838.019 160.033L838.119 171.433C838.119 171.633 838.019 171.833 837.719 171.933C837.519 172.133 837.119 172.233 836.819 172.333C836.519 172.433 836.019 172.433 835.619 172.533C835.219 172.533 834.819 172.533 834.419 172.433C834.019 172.333 833.719 172.233 833.519 172.033C833.319 171.833 833.119 171.533 833.119 171.233C833.119 170.833 833.119 170.333 833.119 169.633C833.119 168.933 833.119 168.233 833.119 167.433C833.119 166.633 833.119 165.733 833.119 164.833C833.119 163.933 833.119 163.033 833.119 162.033C833.119 161.133 833.119 160.233 833.119 159.333C833.119 158.433 833.119 157.633 833.119 156.933C833.119 156.233 833.119 155.633 833.119 155.033C833.119 154.533 833.119 154.133 833.119 153.933C833.119 153.733 833.219 153.633 833.519 153.433C833.719 153.333 834.019 153.233 834.419 153.133C834.819 153.033 835.119 153.033 835.519 153.033C835.919 153.033 836.319 153.033 836.619 153.033C837.019 153.033 837.219 153.133 837.519 153.333C837.719 153.433 837.919 153.633 837.919 153.833L837.819 155.033ZM838.019 150.333C837.919 150.433 837.819 150.533 837.719 150.533C837.619 150.533 837.419 150.533 837.319 150.433C837.119 150.333 837.019 150.233 836.819 150.133C836.619 150.033 836.519 149.933 836.419 149.733C836.319 149.633 836.219 149.433 836.219 149.233C836.219 149.033 836.219 148.933 836.319 148.733C836.719 148.133 837.019 147.633 837.419 147.333C837.819 147.033 838.219 146.833 838.619 146.833C839.019 146.833 839.419 146.833 839.819 147.033C840.219 147.233 840.619 147.433 841.119 147.633C841.419 147.833 841.719 147.933 841.919 148.033C842.119 148.033 842.319 148.033 842.419 148.033C842.619 147.933 842.719 147.833 842.819 147.733C842.919 147.533 843.019 147.433 843.219 147.233C843.319 147.033 843.519 146.933 843.619 146.933C843.819 146.933 843.919 146.833 844.119 146.933C844.319 146.933 844.519 147.033 844.719 147.133C844.919 147.233 845.019 147.333 845.219 147.433C845.319 147.533 845.419 147.733 845.519 147.833C845.619 148.033 845.519 148.133 845.519 148.333C845.219 148.833 844.919 149.333 844.619 149.733C844.219 150.133 843.819 150.333 843.419 150.533C843.019 150.733 842.519 150.733 842.119 150.633C841.619 150.533 841.219 150.333 840.719 150.033C840.419 149.833 840.219 149.733 839.919 149.533C839.719 149.433 839.419 149.333 839.219 149.333C839.019 149.333 838.819 149.433 838.619 149.533C838.419 149.733 838.219 150.033 838.019 150.333Z" fill="#00D3D2"/>
<path d="M874.219 171.333C874.219 171.533 874.119 171.733 873.819 171.833C873.619 172.033 873.219 172.133 872.919 172.233C872.519 172.333 872.119 172.433 871.719 172.433C871.319 172.433 870.919 172.433 870.519 172.333C870.119 172.233 869.819 172.133 869.619 171.933C869.419 171.733 869.219 171.533 869.219 171.133V170.833C868.019 171.633 866.819 172.033 865.419 172.033C864.419 172.033 863.619 171.933 862.819 171.633C862.019 171.433 861.319 171.033 860.619 170.633C860.019 170.233 859.419 169.633 858.919 169.133C858.419 168.533 858.019 167.933 857.719 167.233C857.419 166.533 857.119 165.833 857.019 165.033C856.819 164.233 856.719 163.533 856.719 162.733C856.719 161.933 856.719 161.133 856.919 160.233C857.019 159.433 857.319 158.633 857.619 157.933C857.919 157.233 858.319 156.533 858.819 155.833C859.319 155.133 859.919 154.633 860.519 154.133C861.219 153.633 861.919 153.333 862.819 153.033C863.619 152.733 864.619 152.633 865.619 152.633C866.319 152.633 867.019 152.733 867.619 152.833C868.219 153.033 868.819 153.233 869.419 153.533C869.419 153.433 869.419 153.333 869.419 153.333C869.419 153.233 869.419 153.233 869.419 153.133C869.419 152.933 869.519 152.833 869.819 152.633C870.019 152.533 870.319 152.433 870.719 152.333C871.119 152.233 871.419 152.233 871.819 152.233C872.219 152.233 872.619 152.233 872.919 152.333C873.319 152.433 873.519 152.533 873.819 152.633C874.019 152.733 874.219 152.933 874.219 153.133V171.333ZM865.019 157.533C864.419 157.533 863.919 157.733 863.519 157.933C863.019 158.233 862.719 158.533 862.319 159.033C862.019 159.533 861.719 160.033 861.619 160.633C861.419 161.233 861.419 161.933 861.419 162.633C861.419 162.933 861.419 163.333 861.519 163.633C861.619 164.033 861.719 164.333 861.819 164.733C861.919 165.133 862.119 165.433 862.319 165.733C862.519 166.033 862.719 166.333 863.019 166.633C863.319 166.833 863.619 167.033 863.919 167.233C864.219 167.433 864.619 167.433 865.019 167.433C865.719 167.433 866.319 167.233 866.819 166.933C867.319 166.633 867.819 166.233 868.119 165.733C868.519 165.233 868.719 164.633 868.919 164.033C869.119 163.433 869.219 162.733 869.219 162.133C869.219 161.533 869.119 160.933 868.919 160.333C868.719 159.733 868.419 159.233 868.119 158.833C867.719 158.433 867.319 158.033 866.819 157.833C866.319 157.633 865.719 157.533 865.019 157.533Z" fill="#00D3D2"/>
<path d="M887.319 171.333C887.319 171.533 887.219 171.733 886.919 171.833C886.719 172.033 886.319 172.133 886.019 172.233C885.619 172.333 885.219 172.333 884.819 172.433C884.419 172.433 884.019 172.433 883.619 172.333C883.219 172.233 882.919 172.133 882.719 171.933C882.519 171.733 882.319 171.433 882.319 171.133L882.419 147.633C882.419 147.433 882.519 147.333 882.819 147.133C883.019 147.033 883.319 146.933 883.719 146.833C884.119 146.733 884.419 146.733 884.819 146.733C885.219 146.733 885.619 146.733 885.919 146.733C886.319 146.733 886.519 146.833 886.819 147.033C887.019 147.133 887.219 147.333 887.219 147.533L887.319 171.333Z" fill="#00D3D2"/>
<path d="M909.519 165.733C909.619 165.633 909.819 165.533 910.119 165.533C910.419 165.533 910.719 165.633 911.019 165.833C911.319 165.933 911.619 166.133 911.919 166.433C912.219 166.633 912.519 166.933 912.719 167.133C912.919 167.433 913.119 167.633 913.119 167.833C913.219 168.033 913.119 168.333 913.019 168.433C912.419 169.133 911.719 169.733 911.019 170.233C910.319 170.733 909.519 171.133 908.819 171.433C908.019 171.733 907.319 171.933 906.519 172.133C905.719 172.233 904.919 172.333 904.219 172.233C903.019 172.133 901.919 171.933 900.919 171.433C899.919 170.933 898.919 170.333 898.119 169.533C897.319 168.733 896.719 167.733 896.219 166.533C895.719 165.333 895.519 164.033 895.519 162.533C895.519 161.733 895.619 160.933 895.819 160.133C896.019 159.333 896.319 158.633 896.619 157.833C897.019 157.133 897.419 156.433 897.919 155.833C898.419 155.233 899.019 154.633 899.819 154.233C900.519 153.733 901.319 153.433 902.219 153.133C903.119 152.833 904.019 152.733 905.119 152.733C906.419 152.733 907.619 152.933 908.619 153.433C909.619 153.933 910.419 154.533 911.119 155.333C911.819 156.133 912.319 157.033 912.719 158.033C913.119 159.033 913.319 160.133 913.419 161.133C913.419 161.533 913.419 161.833 913.419 162.233C913.419 162.633 913.319 162.933 913.119 163.233C913.019 163.533 912.819 163.833 912.619 164.033C912.419 164.233 912.119 164.333 911.819 164.333C911.419 164.333 910.919 164.333 910.319 164.333C909.719 164.333 909.119 164.333 908.419 164.333C907.719 164.333 907.019 164.333 906.319 164.333C905.619 164.333 904.819 164.333 904.119 164.333C903.419 164.333 902.619 164.333 901.919 164.333C901.219 164.333 900.519 164.333 899.919 164.333C900.119 164.933 900.319 165.533 900.619 165.933C900.919 166.433 901.219 166.833 901.619 167.133C902.019 167.433 902.419 167.733 902.919 167.833C903.419 168.033 903.919 168.033 904.419 168.133C905.219 168.133 906.119 167.933 906.919 167.533C908.019 167.133 908.819 166.533 909.519 165.733ZM904.419 157.333C903.619 157.333 902.919 157.633 902.319 158.033C901.719 158.433 901.219 158.933 900.819 159.533H908.319C908.219 159.233 908.019 158.933 907.819 158.633C907.619 158.333 907.319 158.133 907.019 157.933C906.719 157.733 906.319 157.633 905.919 157.533C905.519 157.433 905.019 157.333 904.419 157.333Z" fill="#00D3D2"/>
<path d="M935.319 167.333C935.319 168.233 935.119 168.933 934.819 169.633C934.519 170.233 934.119 170.833 933.519 171.233C933.019 171.633 932.419 171.933 931.719 172.133C931.019 172.333 930.319 172.433 929.519 172.433C928.719 172.433 927.919 172.433 927.119 172.233C926.319 172.033 925.519 171.833 924.819 171.533C924.119 171.233 923.419 170.833 922.819 170.433C922.219 170.033 921.719 169.533 921.219 168.933C921.119 168.733 921.019 168.533 921.119 168.333C921.219 168.033 921.319 167.833 921.419 167.533C921.619 167.233 921.719 166.933 922.019 166.633C922.219 166.333 922.519 166.133 922.719 165.933C922.919 165.733 923.219 165.633 923.419 165.533C923.619 165.433 923.819 165.533 923.919 165.633C924.219 165.933 924.619 166.233 925.019 166.533C925.419 166.833 925.819 167.033 926.219 167.233C926.619 167.433 927.019 167.633 927.519 167.733C927.919 167.833 928.319 167.833 928.619 167.833C928.919 167.833 929.219 167.733 929.519 167.533C929.719 167.333 929.919 167.133 930.019 166.833C930.119 166.533 930.019 166.233 929.719 165.933C929.419 165.633 929.019 165.333 928.519 164.933C928.019 164.633 927.419 164.233 926.719 163.833C926.019 163.433 925.419 163.033 924.819 162.633C924.219 162.233 923.619 161.733 923.019 161.233C922.419 160.733 922.019 160.133 921.719 159.633C921.419 159.033 921.219 158.433 921.219 157.833C921.219 157.233 921.319 156.633 921.519 156.133C921.719 155.533 922.019 155.033 922.419 154.533C922.819 154.033 923.319 153.633 923.919 153.333C924.519 153.033 925.119 152.733 925.719 152.533C926.319 152.333 927.119 152.333 927.819 152.433C928.519 152.533 929.219 152.633 929.919 152.833C930.619 153.033 931.319 153.233 931.919 153.533C932.519 153.833 933.119 154.233 933.619 154.633C934.119 155.033 934.519 155.533 934.919 156.033C935.019 156.233 935.119 156.433 935.019 156.733C935.019 157.033 934.919 157.233 934.719 157.533C934.519 157.833 934.319 158.033 934.119 158.333C933.919 158.633 933.619 158.833 933.419 159.033C933.219 159.233 932.919 159.333 932.719 159.433C932.519 159.533 932.319 159.433 932.219 159.333C931.719 158.933 931.219 158.633 930.719 158.233C930.219 157.933 929.619 157.633 929.119 157.433C928.619 157.233 928.219 157.133 927.819 157.133C927.419 157.133 927.119 157.333 926.919 157.633C926.819 157.833 926.819 158.033 926.919 158.133C927.019 158.233 927.119 158.433 927.219 158.633C927.419 158.833 927.519 158.933 927.819 159.133C928.019 159.333 928.319 159.433 928.519 159.533C928.719 159.633 929.019 159.833 929.219 159.933C929.419 160.033 929.619 160.133 929.819 160.233C930.619 160.533 931.319 160.933 932.019 161.433C932.719 161.933 933.319 162.433 933.819 163.033C934.319 163.633 934.719 164.333 935.019 165.133C935.119 165.733 935.319 166.533 935.319 167.333Z" fill="#00D3D2"/>
<path d="M438.219 91.3333C446.319 92.0333 454.519 92.6333 462.819 93.1333C463.819 93.1333 464.619 93.5333 465.219 94.2333C465.819 94.9333 466.019 95.7333 466.019 96.6333C465.419 101.733 464.719 106.833 464.019 111.833C463.919 112.733 463.519 113.533 462.719 114.233C461.919 114.933 461.019 115.233 460.019 115.333C443.619 115.233 427.319 113.633 411.219 110.533C410.219 110.233 409.419 109.733 408.819 108.933C408.219 108.133 407.919 107.233 408.019 106.333C409.519 79.1333 412.219 52.0333 416.119 25.0333C416.219 24.1333 416.619 23.3333 417.419 22.6333C418.219 21.9333 419.119 21.6333 420.019 21.6333C427.219 21.6333 434.419 21.9333 441.619 22.5333C442.519 22.6333 443.219 23.0333 443.819 23.8333C444.419 24.6333 444.619 25.4333 444.519 26.4333C442.419 48.2333 440.319 69.8333 438.219 91.3333Z" fill="#00D3D2"/>
<path d="M501.819 21.7333C503.119 24.4333 505.619 29.6333 509.319 37.2333C512.919 44.8333 515.719 50.5333 517.419 54.3333C519.219 58.1333 521.419 63.0333 524.219 69.1333C527.019 75.2333 529.519 80.8333 531.719 85.8333C533.919 90.8333 536.019 95.8334 537.919 100.733C538.319 101.733 538.219 102.833 537.519 103.933C536.919 105.033 536.019 105.633 534.919 105.833C528.119 107.133 521.219 108.333 514.319 109.433C512.719 109.633 511.619 108.933 510.919 107.433C509.419 104.233 507.819 100.833 506.119 97.3333C498.019 98.4333 489.919 99.4333 481.719 100.333C481.019 104.133 480.319 107.833 479.719 111.333C479.419 112.933 478.419 113.833 476.819 114.033C469.819 114.633 462.819 115.233 455.819 115.633C454.619 115.733 453.619 115.233 452.819 114.433C451.919 113.533 451.619 112.533 451.819 111.433C452.519 106.233 453.219 100.833 454.119 95.4334C455.019 90.0334 456.019 84.0334 457.319 77.4334C458.619 70.8334 459.619 65.5334 460.419 61.4334C461.219 57.3334 462.419 51.1334 464.119 42.9334C465.819 34.6334 466.919 29.0333 467.419 26.0333C467.819 24.3333 468.819 23.3333 470.419 23.0333C479.619 21.7333 488.919 20.5333 498.219 19.5333C499.919 19.4333 501.119 20.1333 501.819 21.7333ZM485.319 79.5333C489.319 79.0333 493.419 78.5333 497.519 78.0333C497.419 77.8333 494.419 70.4333 488.619 55.5333C488.419 57.3333 488.119 59.8333 487.619 63.0333C487.119 66.3333 486.719 69.2334 486.319 71.9334C485.919 74.6334 485.519 77.1333 485.319 79.5333Z" fill="#00D3D2"/>
<path d="M639.419 86.6333C643.819 91.4333 647.919 95.8333 651.619 99.7333C652.219 100.433 652.419 101.333 652.419 102.233C652.319 103.133 651.919 103.933 651.119 104.633C640.519 113.133 628.419 116.633 614.919 115.133C599.419 113.433 588.219 107.033 581.419 95.8333C575.819 86.7333 573.819 75.8333 575.419 63.2333C576.819 50.4333 581.219 40.3333 588.419 32.8333C597.519 23.6333 610.019 19.9333 625.819 21.9333C637.219 23.3333 646.819 28.1333 654.819 36.1333C655.619 36.8333 655.919 37.6333 655.919 38.6333C655.919 39.6333 655.519 40.4333 654.819 41.1333C650.619 44.9333 646.419 48.8333 642.219 52.6333C641.519 53.2333 640.819 53.5333 639.919 53.4333C639.019 53.4333 638.219 53.1333 637.519 52.5333C634.319 49.5333 630.319 47.7333 625.419 47.1333C622.419 46.7333 619.719 46.8333 617.419 47.4333C615.119 48.0333 613.219 48.8333 611.919 50.0333C610.519 51.2333 609.319 52.7333 608.419 54.6333C607.419 56.5333 606.719 58.4333 606.319 60.2333C605.919 62.0333 605.519 64.2333 605.219 66.6333C604.919 69.1333 604.819 71.2333 604.819 73.1333C604.819 75.0333 605.019 76.9333 605.519 79.0333C606.019 81.1333 606.819 82.9333 607.819 84.3333C608.819 85.7333 610.419 87.0333 612.519 88.1333C614.619 89.2333 617.219 89.9333 620.219 90.3333C625.619 90.9333 630.419 89.5333 634.619 86.1333C635.319 85.5333 636.219 85.3333 637.119 85.3333C638.119 85.6333 638.819 86.0333 639.419 86.6333Z" fill="#00D3D2"/>
<path d="M684.119 111.333C677.219 113.533 670.019 114.633 662.719 114.633C661.819 114.633 660.919 114.233 660.119 113.533C659.319 112.833 658.819 112.033 658.719 111.133C654.019 84.3333 649.919 57.3333 646.419 30.3333C646.319 29.3333 646.519 28.4333 647.019 27.5333C647.619 26.6333 648.319 26.0333 649.219 25.7333C656.219 23.5333 663.319 22.4333 670.619 22.4333C671.519 22.4333 672.419 22.8333 673.219 23.4333C674.019 24.1333 674.519 24.9333 674.619 25.9333C679.319 52.7333 683.419 79.6333 686.919 106.733C687.019 107.633 686.819 108.533 686.319 109.433C685.719 110.333 685.019 111.033 684.119 111.333Z" fill="#00D3D2"/>
<path d="M764.319 71.9334C763.819 75.8334 763.319 79.4334 762.619 82.9334C761.719 87.9333 760.619 93.7333 759.319 100.333C759.419 100.433 759.219 100.933 758.819 101.733C758.419 102.633 757.519 103.733 756.219 105.233C754.919 106.733 753.219 108.133 751.119 109.333C741.619 115.033 730.819 117.033 718.919 115.133C701.319 112.333 689.119 105.233 682.419 93.6333C677.219 84.7333 675.819 73.7333 677.919 60.8333C679.919 48.0333 684.819 38.1333 692.519 31.2333C702.419 22.4333 715.819 19.5333 732.719 22.3333C745.819 24.5333 756.219 30.6333 763.919 40.5333C764.519 41.3333 764.819 42.1333 764.719 43.1333C764.619 44.0333 764.219 44.8333 763.419 45.3333C759.119 48.6333 754.719 52.0334 750.119 55.4334C749.319 55.9334 748.419 56.1333 747.419 56.0333C746.419 55.8333 745.619 55.3333 745.019 54.5333C741.819 49.8333 737.419 46.9334 731.619 45.9334C727.919 45.3334 724.619 45.4333 721.819 46.2333C719.019 47.0333 716.819 48.4333 715.219 50.5333C713.519 52.5333 712.219 54.8333 711.319 57.2333C710.419 59.6333 709.619 62.4333 709.119 65.6333C706.519 81.9333 711.019 91.0334 722.719 92.9334C729.119 93.9334 733.419 93.3334 735.619 90.9334C735.719 90.5334 735.819 89.7333 736.019 88.6333C736.219 87.5333 736.319 86.5333 736.519 85.7333C735.519 85.5333 733.719 85.2333 731.119 84.8333C728.519 84.4333 727.019 84.1333 726.619 84.1333C725.619 83.9333 724.919 83.5333 724.319 82.8333C723.719 82.1333 723.519 81.3333 723.719 80.3333C724.619 75.3333 725.519 70.2333 726.519 65.2333C726.619 64.3333 727.119 63.5334 727.919 62.9334C728.719 62.2334 729.619 61.9333 730.519 62.0333C741.019 62.6333 751.319 64.4333 761.519 67.3333C762.419 67.6333 763.119 68.2333 763.719 69.0333C764.319 70.0333 764.519 70.9334 764.319 71.9334Z" fill="#00D3D2"/>
<path d="M793.119 83.0333C793.419 85.3333 794.219 87.0333 795.819 88.1333C797.319 89.2333 799.219 89.6333 801.419 89.3333C803.619 89.0333 805.419 88.2333 806.719 86.8333C808.019 85.4333 808.519 83.5333 808.319 81.3333C806.319 62.6333 804.219 44.0333 801.919 25.5333C801.819 24.5333 802.019 23.6334 802.619 22.9334C803.219 22.1334 804.019 21.7333 805.019 21.7333C812.219 21.1333 819.319 20.7334 826.519 20.4334C827.419 20.4334 828.319 20.7333 829.019 21.3333C829.819 21.9333 830.319 22.7333 830.419 23.7333C833.519 42.4333 835.819 61.1334 837.519 79.9334C838.419 89.1334 835.219 97.1333 828.219 103.833C821.719 110.033 813.719 113.633 804.219 114.533C794.719 115.633 786.119 113.933 778.519 109.333C770.219 104.233 765.519 97.1333 764.319 88.0333C761.819 69.3333 760.019 50.5333 758.919 31.6333C758.919 30.6333 759.219 29.7334 759.819 28.9334C760.419 28.1334 761.219 27.6333 762.119 27.5333C769.319 26.1333 776.319 25.0333 783.419 24.0333C784.419 23.8333 785.219 24.0333 786.019 24.6333C786.719 25.2333 787.219 26.0333 787.319 27.0333C789.019 45.8333 791.019 64.4333 793.119 83.0333ZM784.819 5.33332C786.919 7.03332 788.119 9.13331 788.419 11.6333C788.719 14.1333 788.019 16.5333 786.319 18.6333C784.619 20.7333 782.519 21.9333 780.019 22.2333C777.419 22.5333 775.019 21.8333 773.019 20.2333C770.919 18.6333 769.819 16.4333 769.519 13.8333C769.219 11.2333 769.919 8.83332 771.519 6.83332C773.119 4.83332 775.319 3.63332 777.919 3.33332C780.419 2.93332 782.719 3.63332 784.819 5.33332ZM812.819 2.13331C814.819 3.73331 816.019 5.93333 816.319 8.53333C816.619 11.1333 815.919 13.5333 814.319 15.5333C812.719 17.5333 810.519 18.7333 807.919 19.0333C805.319 19.3333 802.919 18.6334 800.919 16.9334C798.819 15.2334 797.719 13.1333 797.419 10.6333C797.119 8.13331 797.819 5.73331 799.419 3.63331C801.019 1.53331 803.219 0.333334 805.819 0.0333342C808.419 -0.166666 810.719 0.53331 812.819 2.13331Z" fill="#00D3D2"/>
<path d="M1036.12 26.5333C1036.82 29.5333 1038.22 35.0333 1040.22 43.2333C1042.22 51.4333 1043.72 57.5333 1044.62 61.6333C1045.52 65.7333 1046.82 70.9333 1048.32 77.5333C1049.82 84.0333 1051.12 90.0333 1052.22 95.4333C1053.32 100.833 1054.32 106.133 1055.22 111.333C1055.42 112.433 1055.02 113.433 1054.22 114.333C1053.42 115.233 1052.42 115.733 1051.22 115.733C1044.32 115.533 1037.32 115.333 1030.32 115.033C1028.72 114.933 1027.82 114.033 1027.42 112.433C1026.62 108.933 1025.82 105.333 1024.82 101.533C1016.72 100.933 1008.52 100.233 1000.32 99.5333C998.819 103.133 997.419 106.633 996.119 109.833C995.519 111.333 994.319 112.033 992.719 111.933C985.719 111.133 978.819 110.233 971.819 109.233C970.719 109.033 969.819 108.433 969.119 107.433C968.419 106.433 968.319 105.333 968.719 104.333C970.419 99.3333 972.319 94.2333 974.219 89.1333C976.219 84.0333 978.419 78.3333 981.019 72.1333C983.619 65.9333 985.719 60.9333 987.319 57.0333C988.919 53.2333 991.419 47.4333 994.719 39.6333C998.019 31.8333 1000.32 26.6333 1001.42 23.8333C1002.12 22.2333 1003.32 21.4333 1004.92 21.5333C1014.22 22.1333 1023.52 22.9333 1032.82 23.8333C1034.72 23.8333 1035.72 24.8333 1036.12 26.5333ZM1008.12 79.7333C1012.12 80.0333 1016.22 80.4333 1020.32 80.7333C1020.22 80.5333 1018.92 72.6333 1016.22 56.9333C1015.62 58.6333 1014.82 61.0333 1013.72 64.1333C1012.62 67.2333 1011.62 70.0333 1010.62 72.5333C1009.72 75.0333 1008.82 77.4333 1008.12 79.7333Z" fill="#00D3D2"/>
<path d="M889.919 49.1333C881.419 47.8333 872.919 46.7333 864.219 45.7333C863.619 51.2333 863.219 55.3333 862.919 58.0333C870.219 58.8333 877.519 59.6333 884.819 60.6333C885.819 60.7333 886.619 61.1334 887.219 61.9333C887.819 62.7333 888.119 63.5333 888.019 64.4333C887.419 69.6334 886.919 74.7333 886.419 79.8333C886.319 80.8333 885.919 81.6333 885.119 82.2333C884.319 82.8333 883.419 83.1333 882.519 83.0333C875.219 82.4333 867.919 81.7333 860.619 80.9333C860.219 84.3334 859.919 87.8334 859.519 91.4333C868.119 92.3334 876.719 93.0333 885.319 93.5333C886.319 93.5333 887.119 93.9333 887.719 94.6333C888.319 95.3333 888.519 96.1333 888.419 97.0333C887.719 102.133 887.019 107.133 886.319 112.233C886.119 113.133 885.619 113.933 884.919 114.533C884.119 115.233 883.319 115.533 882.419 115.533C865.619 115.433 848.919 113.633 832.419 110.233C831.519 110.033 830.719 109.533 830.119 108.733C829.519 107.933 829.219 107.033 829.319 106.133C831.019 78.9333 833.919 51.8333 838.019 24.9333C838.119 24.0333 838.519 23.2333 839.319 22.6333C840.119 21.9333 840.919 21.6333 841.819 21.6333C858.619 21.7333 875.319 23.5333 891.819 26.9333C892.719 27.1333 893.419 27.6333 894.119 28.4333C894.719 29.2333 895.019 30.1333 895.019 31.0333C894.619 36.1333 894.219 41.2333 893.919 46.2333C893.819 47.1333 893.419 47.8333 892.719 48.4333C892.019 49.0333 890.919 49.3333 889.919 49.1333Z" fill="#00D3D2"/>
<path d="M948.819 65.3333C947.319 51.9333 945.719 38.6333 943.919 25.2333C943.819 24.2333 944.019 23.3333 944.619 22.6333C945.219 21.8333 946.019 21.4333 947.019 21.4333C954.219 20.8333 961.319 20.3333 968.519 20.0333C969.419 20.0333 970.319 20.3333 971.019 21.0333C971.819 21.7333 972.319 22.4333 972.419 23.3333C977.019 50.2333 980.019 77.3333 981.319 104.533C981.419 105.033 981.319 105.533 981.119 105.933C980.919 106.333 980.719 106.733 980.419 107.133C980.119 107.533 979.719 107.833 979.319 108.033C978.919 108.333 978.519 108.433 978.119 108.633C970.419 109.933 962.819 111.133 955.219 112.133C954.019 112.333 953.019 111.933 952.219 110.933C945.419 102.233 935.319 89.8333 922.119 73.6333C923.519 86.3333 925.019 99.0333 926.619 111.733C926.719 112.733 926.519 113.533 925.919 114.333C925.319 115.033 924.619 115.433 923.719 115.533C916.519 116.033 909.419 116.533 902.219 116.933C901.219 116.933 900.319 116.633 899.519 115.933C898.719 115.233 898.219 114.533 898.119 113.633C893.519 86.7333 890.519 59.6334 889.219 32.4333C889.219 31.5333 889.519 30.6333 890.119 29.8333C890.719 29.0333 891.519 28.5333 892.519 28.3333C899.519 27.0333 906.519 25.9333 913.619 25.0333C914.819 24.8333 915.819 25.2333 916.519 26.2333C923.619 35.1333 934.419 48.1333 948.819 65.3333ZM903.519 15.5333C907.419 10.0333 912.219 7.03331 918.119 6.33331C921.119 6.03331 924.319 6.53333 927.719 8.03333C931.319 9.43333 934.419 10.0333 936.919 9.73334C941.019 9.33334 944.119 7.5333 946.219 4.6333L951.619 9.53333C948.119 14.2333 943.619 16.9333 937.919 17.5333C934.319 17.9333 930.819 17.4333 927.519 16.0333C927.219 15.9333 926.619 15.6333 925.819 15.3333C925.019 15.0333 924.419 14.7333 924.119 14.6333C923.819 14.5333 923.319 14.3333 922.619 14.1333C922.019 13.9333 921.319 13.8333 920.819 13.8333C920.219 13.8333 919.619 13.8333 918.919 13.9333C914.719 14.4333 911.219 16.4333 908.419 20.2333L903.519 15.5333Z" fill="#00D3D2"/>
</svg>
