<svg width="648" height="383" viewBox="0 0 648 383" fill="none" xmlns="http://www.w3.org/2000/svg">
<path d="M471.719 81.9999C471.519 81.9999 456.019 66.6999 444.919 54.6999L461.219 49.3999C461.219 49.3999 466.519 47.7999 464.919 44.9999C463.319 42.1999 460.519 42.5999 460.519 42.5999C460.519 42.5999 454.219 43.7999 443.819 45.4999C444.319 44.7999 444.719 44.1999 445.119 43.6999C448.619 39.4999 455.419 30.7999 449.319 27.0999C443.119 23.3999 436.519 36.1999 435.919 41.1999C435.819 41.6999 435.619 42.3999 435.119 43.4999C434.419 42.5999 434.019 41.8999 433.819 41.4999C432.119 36.6999 422.919 25.5999 417.719 30.4999C412.519 35.4999 421.019 42.4999 425.319 45.8999C425.919 46.3999 426.819 47.1999 427.819 48.1999C415.119 50.1999 399.719 52.4999 383.419 54.5999C378.119 51.0999 374.019 48.7999 370.819 47.1999C371.619 46.6999 372.419 46.1999 372.619 46.0999C374.819 44.6999 390.619 45.9999 395.119 42.3999C395.919 41.7999 396.319 38.9999 393.719 38.8999C391.519 38.7999 375.319 39.8999 370.219 40.2999L369.019 37.1999C367.819 34.2999 364.519 32.9999 361.519 34.1999L339.119 43.2999C336.119 44.4999 334.619 47.7999 335.819 50.6999L337.619 55.0999C338.119 56.2999 338.919 57.1999 339.919 57.6999C337.219 61.6999 334.419 66.7999 331.419 73.2999C322.819 91.7999 311.219 92.2999 311.219 92.2999C287.019 91.9999 280.319 69.1999 276.819 61.6999C273.119 53.5999 260.419 19.6999 257.419 5.09994C256.319 -0.400065 257.019 -0.500059 254.119 1.69994C251.219 3.99994 243.619 13.1999 242.519 21.2999C241.419 29.3999 253.619 71.4999 254.219 73.4999C254.819 75.4999 254.319 76.6999 253.619 76.3999C253.019 76.0999 233.219 50.9999 231.919 44.6999C230.519 38.3999 229.119 42.5999 229.119 42.5999C229.119 42.5999 225.219 56.1999 225.019 65.0999C224.819 73.9999 244.419 98.4999 246.119 100.9C247.819 103.3 245.519 102.7 245.519 102.7C245.519 102.7 228.519 90.5999 226.119 88.2999C223.719 85.9999 223.419 86.4999 223.319 89.3999C223.219 92.1999 227.519 114.9 228.119 117.4C228.719 119.9 226.519 119.9 226.519 119.9L170.019 137.9C162.719 139.2 163.119 141.5 163.119 141.5C163.119 141.5 159.719 144.7 175.519 143.5C199.419 141.8 227.219 148.5 227.219 148.5C227.519 148.7 236.419 152.2 249.419 155.1C264.619 158.5 286.519 161 310.219 148.7C331.319 138.2 335.719 123.9 350.919 102.6C366.219 81.2999 378.019 76.6999 378.019 76.6999L425.119 61.3999C417.119 74.4999 407.619 89.0999 407.419 89.0999C407.119 89.0999 394.919 105.9 400.119 120.3C405.419 134.8 412.019 147.7 440.519 145.4C442.619 145.2 444.319 144.7 445.819 143.9C447.419 144.4 449.319 144.5 451.319 144.2C479.619 140.4 483.319 126.3 485.419 111.1C487.519 95.6999 472.019 81.9999 471.719 81.9999ZM449.519 75.9999C447.119 75.6999 441.619 78.2999 438.819 78.5999C436.119 78.8999 430.119 77.4999 427.819 78.2999C425.519 79.0999 425.019 78.8999 431.619 66.9999C431.619 66.9999 433.919 62.6999 436.619 57.7999C440.319 61.9999 443.419 65.6999 443.419 65.6999C452.319 75.9999 451.919 76.3999 449.519 75.9999Z" fill="#00D3D2"/>
<path d="M120.619 357C121.519 357 122.319 357.1 123.019 357.3C123.719 357.5 124.419 357.8 125.019 358.1V351.6C125.019 351.4 125.119 351.2 125.419 351.1C125.619 350.9 126.019 350.8 126.319 350.7C126.719 350.6 127.119 350.6 127.519 350.5C127.919 350.5 128.319 350.5 128.719 350.6C129.119 350.7 129.419 350.8 129.619 351C129.819 351.2 130.019 351.5 130.019 351.8C130.019 352.1 130.019 352.6 130.019 353.2C130.019 353.8 130.019 354.5 130.019 355.3C130.019 356.1 130.019 357 130.019 357.9C130.019 358.8 130.019 359.8 130.019 360.8C130.019 361.8 130.019 362.8 130.019 363.9C130.019 364.9 130.019 366 130.019 366.9C130.019 367.9 130.019 368.8 130.019 369.7C130.019 370.6 130.019 371.4 130.019 372.1C130.019 372.8 130.019 373.4 130.019 373.9C130.019 374.4 130.019 374.7 130.019 374.9C130.019 375.1 129.919 375.2 129.619 375.4C129.419 375.5 129.119 375.6 128.719 375.7C128.319 375.8 128.019 375.8 127.619 375.9C127.219 375.9 126.819 375.9 126.519 375.9C126.219 375.9 125.919 375.8 125.619 375.7C125.419 375.6 125.219 375.4 125.219 375.2V374.7C124.619 375.1 123.919 375.3 123.219 375.5C122.519 375.7 121.619 375.8 120.819 375.8C119.719 375.8 118.719 375.6 117.819 375.3C116.919 375 116.119 374.5 115.519 373.9C114.919 373.3 114.319 372.6 113.819 371.8C113.419 371 113.019 370.1 112.819 369.2C112.619 368.3 112.519 367.4 112.519 366.4C112.519 365.4 112.619 364.5 112.819 363.6C113.019 362.7 113.419 361.8 113.819 361C114.219 360.2 114.819 359.5 115.419 358.9C116.119 358.3 116.819 357.8 117.719 357.4C118.519 357.2 119.519 357 120.619 357ZM121.219 371.2C121.819 371.2 122.319 371 122.819 370.8C123.319 370.6 123.719 370.2 124.019 369.8C124.319 369.4 124.619 368.9 124.819 368.4C125.019 367.9 125.119 367.4 125.119 366.8V365.8C125.119 365.3 124.919 364.7 124.719 364.2C124.519 363.7 124.219 363.3 123.919 362.9C123.619 362.5 123.119 362.2 122.619 362C122.119 361.8 121.519 361.6 120.919 361.6C120.219 361.6 119.619 361.7 119.119 362C118.619 362.3 118.219 362.6 117.819 363.1C117.519 363.6 117.219 364.1 117.119 364.7C117.019 365.3 116.919 365.9 116.919 366.5C116.919 367.1 117.019 367.7 117.219 368.3C117.419 368.9 117.719 369.4 118.019 369.8C118.419 370.2 118.819 370.6 119.319 370.8C119.919 371.1 120.519 371.2 121.219 371.2Z" fill="#00D3D2"/>
<path d="M151.819 369.7C151.919 369.6 152.119 369.5 152.419 369.5C152.719 369.5 153.019 369.6 153.319 369.8C153.619 369.9 153.919 370.1 154.219 370.4C154.519 370.6 154.819 370.9 155.019 371.1C155.219 371.4 155.419 371.6 155.419 371.8C155.519 372 155.419 372.3 155.319 372.4C154.719 373.1 154.019 373.7 153.319 374.2C152.619 374.7 151.819 375.1 151.119 375.4C150.319 375.7 149.619 375.9 148.819 376.1C148.019 376.2 147.219 376.3 146.519 376.2C145.319 376.1 144.219 375.9 143.219 375.4C142.119 374.9 141.219 374.3 140.419 373.5C139.619 372.7 139.019 371.7 138.519 370.5C138.019 369.3 137.819 368 137.819 366.5C137.819 365.7 137.919 364.9 138.119 364.1C138.319 363.3 138.619 362.6 138.919 361.8C139.319 361.1 139.719 360.4 140.219 359.8C140.719 359.2 141.319 358.6 142.119 358.2C142.819 357.7 143.619 357.4 144.519 357.1C145.419 356.8 146.319 356.7 147.419 356.7C148.719 356.7 149.919 356.9 150.919 357.4C151.919 357.9 152.719 358.5 153.419 359.3C154.119 360.1 154.619 361 155.019 362C155.419 363 155.619 364.1 155.719 365.1C155.719 365.5 155.719 365.8 155.719 366.2C155.719 366.6 155.619 366.9 155.419 367.2C155.319 367.5 155.119 367.8 154.919 368C154.719 368.2 154.419 368.3 154.119 368.3C153.719 368.3 153.219 368.3 152.619 368.3C152.019 368.3 151.419 368.3 150.719 368.3C150.019 368.3 149.319 368.3 148.619 368.3C147.919 368.3 147.119 368.3 146.419 368.3C145.719 368.3 144.919 368.3 144.219 368.3C143.519 368.3 142.819 368.3 142.219 368.3C142.419 368.9 142.619 369.5 142.919 369.9C143.219 370.4 143.519 370.8 143.919 371.1C144.319 371.4 144.719 371.7 145.219 371.8C145.719 372 146.219 372 146.719 372.1C147.519 372.1 148.419 371.9 149.219 371.5C150.319 371.1 151.019 370.5 151.819 369.7ZM146.719 361.3C145.919 361.3 145.219 361.6 144.619 362C144.019 362.4 143.519 362.9 143.119 363.5H150.619C150.519 363.2 150.319 362.9 150.119 362.6C149.919 362.3 149.619 362.1 149.319 361.9C149.019 361.7 148.619 361.6 148.219 361.5C147.719 361.4 147.219 361.3 146.719 361.3Z" fill="#00D3D2"/>
<path d="M168.619 375.3C168.619 375.5 168.519 375.7 168.219 375.8C168.019 376 167.619 376.1 167.319 376.2C167.019 376.3 166.519 376.3 166.119 376.4C165.719 376.4 165.319 376.4 164.919 376.3C164.519 376.2 164.219 376.1 164.019 375.9C163.819 375.7 163.619 375.4 163.619 375.1L163.719 351.6C163.719 351.4 163.819 351.3 164.119 351.1C164.319 351 164.619 350.9 165.019 350.8C165.419 350.7 165.719 350.7 166.119 350.7C166.519 350.7 166.919 350.7 167.219 350.7C167.619 350.7 167.819 350.8 168.119 351C168.319 351.1 168.519 351.3 168.519 351.5L168.619 375.3Z" fill="#00D3D2"/>
<path d="M179.619 356.8C179.019 356.8 178.419 356.7 178.019 356.4C177.619 356.1 177.219 355.8 177.019 355.4C176.819 355 176.719 354.6 176.719 354.1C176.719 353.6 176.819 353.2 177.019 352.8C177.219 352.4 177.519 352.1 177.919 351.8C178.319 351.5 178.819 351.4 179.519 351.4C180.119 351.4 180.619 351.5 181.019 351.8C181.419 352.1 181.719 352.4 181.919 352.8C182.119 353.2 182.219 353.6 182.219 354.1C182.219 354.6 182.119 355 181.919 355.4C181.719 355.8 181.419 356.1 181.019 356.4C180.719 356.6 180.219 356.8 179.619 356.8ZM181.919 375.3C181.919 375.5 181.819 375.7 181.519 375.8C181.319 376 180.919 376.1 180.619 376.2C180.219 376.3 179.819 376.3 179.419 376.4C179.019 376.5 178.619 376.4 178.219 376.3C177.819 376.2 177.519 376.1 177.319 375.9C177.119 375.7 176.919 375.4 176.919 375.1L177.119 358.5C177.119 358.3 177.219 358.2 177.519 358C177.719 357.9 178.019 357.8 178.419 357.7C178.819 357.6 179.119 357.6 179.519 357.6C179.919 357.6 180.319 357.6 180.619 357.6C181.019 357.6 181.219 357.7 181.519 357.9C181.719 358 181.919 358.2 181.919 358.4V375.3Z" fill="#00D3D2"/>
<path d="M199.719 369.4L205.319 357.9C205.419 357.7 205.619 357.6 205.819 357.6C206.119 357.6 206.419 357.6 206.719 357.7C207.019 357.8 207.419 357.9 207.819 358.1C208.219 358.3 208.519 358.4 208.819 358.6C209.119 358.8 209.319 359 209.519 359.2C209.719 359.4 209.719 359.6 209.619 359.7C209.519 359.9 209.319 360.2 209.119 360.7C208.919 361.2 208.619 361.7 208.319 362.4C208.019 363.1 207.719 363.8 207.319 364.6C206.919 365.4 206.519 366.2 206.219 367C205.819 367.8 205.419 368.6 205.019 369.5C204.619 370.3 204.219 371.1 203.919 371.8C203.519 372.5 203.219 373.2 202.919 373.8C202.619 374.4 202.419 374.9 202.219 375.2C202.119 375.3 202.019 375.4 201.719 375.5C201.519 375.6 201.219 375.7 200.819 375.7C200.519 375.7 200.119 375.8 199.819 375.7C199.419 375.7 199.119 375.7 198.819 375.6C198.519 375.5 198.219 375.5 198.019 375.4C197.819 375.3 197.619 375.2 197.619 375C197.419 374.6 197.219 374.1 197.019 373.5C196.719 372.9 196.419 372.2 196.019 371.5C195.619 370.8 195.319 370 194.919 369.2C194.519 368.4 194.119 367.6 193.719 366.7C193.319 365.9 192.919 365.1 192.519 364.3C192.119 363.5 191.719 362.8 191.419 362.2C191.119 361.6 190.819 361 190.519 360.5C190.319 360 190.119 359.7 190.019 359.5C189.919 359.3 190.019 359.2 190.119 359C190.319 358.8 190.519 358.6 190.819 358.4C191.119 358.2 191.419 358 191.819 357.9C192.219 357.7 192.519 357.6 192.919 357.5C193.219 357.4 193.519 357.4 193.819 357.4C194.119 357.4 194.219 357.5 194.319 357.7L199.719 369.4Z" fill="#00D3D2"/>
<path d="M230.119 369.7C230.219 369.6 230.419 369.5 230.719 369.5C231.019 369.5 231.319 369.6 231.619 369.8C231.919 369.9 232.219 370.1 232.519 370.4C232.819 370.6 233.119 370.9 233.319 371.1C233.519 371.4 233.719 371.6 233.719 371.8C233.819 372 233.719 372.3 233.619 372.4C233.019 373.1 232.319 373.7 231.619 374.2C230.919 374.7 230.119 375.1 229.419 375.4C228.619 375.7 227.919 375.9 227.119 376.1C226.319 376.2 225.519 376.3 224.819 376.2C223.619 376.1 222.519 375.9 221.519 375.4C220.419 374.9 219.519 374.3 218.719 373.5C217.919 372.7 217.319 371.7 216.819 370.5C216.319 369.3 216.119 368 216.119 366.5C216.119 365.7 216.219 364.9 216.419 364.1C216.619 363.3 216.919 362.6 217.219 361.8C217.619 361.1 218.019 360.4 218.519 359.8C219.019 359.2 219.619 358.6 220.419 358.2C221.119 357.7 221.919 357.4 222.819 357.1C223.719 356.8 224.619 356.7 225.719 356.7C227.019 356.7 228.219 356.9 229.219 357.4C230.219 357.9 231.019 358.5 231.719 359.3C232.419 360.1 232.919 361 233.319 362C233.719 363 233.919 364.1 234.019 365.1C234.019 365.5 234.019 365.8 234.019 366.2C234.019 366.6 233.919 366.9 233.719 367.2C233.619 367.5 233.419 367.8 233.219 368C233.019 368.2 232.719 368.3 232.419 368.3C232.019 368.3 231.519 368.3 230.919 368.3C230.319 368.3 229.719 368.3 229.019 368.3C228.319 368.3 227.619 368.3 226.919 368.3C226.219 368.3 225.419 368.3 224.719 368.3C224.019 368.3 223.219 368.3 222.519 368.3C221.819 368.3 221.119 368.3 220.519 368.3C220.719 368.9 220.919 369.5 221.219 369.9C221.519 370.4 221.819 370.8 222.219 371.1C222.619 371.4 223.019 371.7 223.519 371.8C224.019 372 224.519 372 225.019 372.1C225.819 372.1 226.719 371.9 227.519 371.5C228.519 371.1 229.319 370.5 230.119 369.7ZM225.019 361.3C224.219 361.3 223.519 361.6 222.919 362C222.319 362.4 221.819 362.9 221.419 363.5H228.919C228.819 363.2 228.619 362.9 228.419 362.6C228.219 362.3 227.919 362.1 227.619 361.9C227.319 361.7 226.919 361.6 226.519 361.5C226.019 361.4 225.519 361.3 225.019 361.3Z" fill="#00D3D2"/>
<path d="M246.719 358.6C247.119 358.4 247.619 358.1 248.119 358C248.619 357.8 249.219 357.7 249.819 357.6C250.419 357.5 251.019 357.5 251.719 357.6C252.319 357.6 253.019 357.8 253.619 357.9C254.219 358.1 254.819 358.3 255.419 358.7C256.019 359 256.519 359.5 257.019 360C257.219 360.2 257.219 360.4 257.219 360.7C257.219 361 257.119 361.3 257.019 361.6C256.919 361.9 256.719 362.2 256.619 362.5C256.419 362.8 256.219 363.1 256.019 363.3C255.819 363.5 255.619 363.7 255.419 363.8C255.219 363.9 255.019 363.9 254.919 363.8C254.419 363.4 253.919 363.1 253.319 362.9C252.819 362.7 252.219 362.5 251.619 362.5C251.019 362.4 250.519 362.4 250.019 362.5C249.519 362.6 249.019 362.7 248.619 362.8C248.219 363 247.819 363.2 247.519 363.4C247.219 363.6 247.019 363.9 246.819 364.2L247.019 375.9C247.019 376.1 246.919 376.3 246.619 376.4C246.419 376.6 246.019 376.7 245.719 376.8C245.319 376.9 244.919 376.9 244.519 377C244.119 377 243.719 377 243.319 376.9C242.919 376.8 242.619 376.7 242.419 376.5C242.219 376.3 242.019 376 242.019 375.7C242.019 375.3 242.019 374.8 242.019 374.2C242.019 373.6 242.019 372.8 242.019 372C242.019 371.2 242.019 370.3 242.019 369.4C242.019 368.5 242.019 367.5 242.019 366.6C242.019 365.6 242.019 364.7 242.019 363.8C242.019 362.9 242.019 362 242.019 361.3C242.019 360.5 242.019 359.8 242.019 359.3C242.019 358.7 242.019 358.3 242.019 358C242.019 357.8 242.119 357.7 242.419 357.5C242.619 357.4 242.919 357.3 243.319 357.2C243.719 357.1 244.019 357.1 244.419 357.1C244.819 357.1 245.219 357.1 245.519 357.1C245.919 357.1 246.119 357.2 246.419 357.4C246.619 357.5 246.819 357.7 246.819 357.9L246.719 358.6Z" fill="#00D3D2"/>
<path d="M275.819 366.8C276.119 365.6 276.419 364.5 276.719 363.4C277.019 362.3 277.319 361.3 277.519 360.5C277.719 359.6 277.919 358.9 278.119 358.3C278.319 357.7 278.419 357.3 278.419 357.1C278.419 356.9 278.619 356.8 278.919 356.7C279.219 356.6 279.519 356.6 279.819 356.6C280.219 356.6 280.519 356.7 280.919 356.8C281.319 356.9 281.719 357 282.019 357.1C282.319 357.2 282.619 357.4 282.819 357.6C283.019 357.8 283.119 358 283.019 358.1L276.619 381.9C276.619 382.1 276.419 382.2 276.119 382.3C275.819 382.4 275.519 382.4 275.119 382.4C274.719 382.4 274.319 382.3 273.919 382.3C273.519 382.2 273.119 382.1 272.819 381.9C272.519 381.7 272.219 381.5 272.019 381.3C271.819 381 271.819 380.8 271.819 380.4C271.919 380.1 272.019 379.7 272.119 379.2C272.319 378.7 272.419 378.1 272.619 377.4C272.819 376.7 273.019 376 273.219 375.2C273.419 374.4 273.719 373.6 273.919 372.8C273.319 371.9 272.619 371 271.919 370.1C271.219 369.2 270.519 368.2 269.919 367.3C269.219 366.4 268.619 365.5 268.019 364.7C267.419 363.9 266.819 363.1 266.419 362.5C265.919 361.8 265.519 361.3 265.219 360.8C264.919 360.3 264.619 360 264.519 359.9C264.419 359.7 264.419 359.6 264.519 359.3C264.619 359.1 264.819 358.8 265.019 358.5C265.219 358.2 265.519 358 265.819 357.7C266.119 357.4 266.419 357.2 266.719 357.1C267.019 356.9 267.319 356.8 267.619 356.8C267.919 356.8 268.019 356.8 268.219 357L275.819 366.8Z" fill="#00D3D2"/>
<path d="M315.019 357C315.919 357 316.719 357.1 317.419 357.3C318.119 357.5 318.819 357.8 319.419 358.1V351.6C319.419 351.4 319.519 351.2 319.819 351.1C320.019 350.9 320.419 350.8 320.719 350.7C321.119 350.6 321.519 350.6 321.919 350.5C322.319 350.5 322.719 350.5 323.119 350.6C323.519 350.7 323.819 350.8 324.019 351C324.219 351.2 324.419 351.5 324.419 351.8C324.419 352.1 324.419 352.6 324.419 353.2C324.419 353.8 324.419 354.5 324.419 355.3C324.419 356.1 324.419 357 324.419 357.9C324.419 358.8 324.419 359.8 324.419 360.8C324.419 361.8 324.419 362.8 324.419 363.9C324.419 364.9 324.419 366 324.419 366.9C324.419 367.9 324.419 368.8 324.419 369.7C324.419 370.6 324.419 371.4 324.419 372.1C324.419 372.8 324.419 373.4 324.419 373.9C324.419 374.4 324.419 374.7 324.419 374.9C324.419 375.1 324.319 375.2 324.019 375.4C323.719 375.6 323.519 375.6 323.119 375.7C322.719 375.8 322.419 375.8 322.019 375.9C321.619 375.9 321.219 375.9 320.919 375.9C320.619 375.9 320.319 375.8 320.019 375.7C319.819 375.6 319.619 375.4 319.619 375.2V374.7C319.019 375.1 318.319 375.3 317.619 375.5C316.919 375.7 316.019 375.8 315.219 375.8C314.119 375.8 313.119 375.6 312.219 375.3C311.319 375 310.519 374.5 309.919 373.9C309.319 373.3 308.719 372.6 308.219 371.8C307.819 371 307.419 370.1 307.219 369.2C307.019 368.3 306.919 367.4 306.919 366.4C306.919 365.4 307.019 364.5 307.219 363.6C307.419 362.7 307.819 361.8 308.219 361C308.619 360.2 309.219 359.5 309.819 358.9C310.419 358.3 311.219 357.8 312.119 357.4C312.919 357.2 313.919 357 315.019 357ZM315.719 371.2C316.319 371.2 316.819 371 317.319 370.8C317.819 370.5 318.219 370.2 318.519 369.8C318.819 369.4 319.119 368.9 319.319 368.4C319.519 367.9 319.619 367.4 319.619 366.8V365.8C319.619 365.3 319.419 364.7 319.219 364.2C319.019 363.7 318.719 363.3 318.419 362.9C318.119 362.5 317.619 362.2 317.119 362C316.619 361.8 316.019 361.6 315.419 361.6C314.719 361.6 314.119 361.7 313.619 362C313.119 362.3 312.719 362.6 312.319 363.1C312.019 363.6 311.719 364.1 311.619 364.7C311.419 365.3 311.419 365.9 311.419 366.5C311.419 367.1 311.519 367.7 311.719 368.3C311.919 368.9 312.219 369.4 312.519 369.8C312.919 370.2 313.319 370.6 313.819 370.8C314.419 371.1 315.019 371.2 315.719 371.2Z" fill="#00D3D2"/>
<path d="M346.219 369.7C346.319 369.6 346.519 369.5 346.819 369.5C347.119 369.5 347.419 369.6 347.719 369.8C348.019 369.9 348.319 370.1 348.619 370.4C348.919 370.6 349.219 370.9 349.419 371.1C349.619 371.4 349.819 371.6 349.819 371.8C349.919 372 349.819 372.3 349.719 372.4C349.119 373.1 348.419 373.7 347.719 374.2C347.019 374.7 346.219 375.1 345.519 375.4C344.719 375.7 344.019 375.9 343.219 376.1C342.419 376.2 341.619 376.3 340.919 376.2C339.719 376.1 338.619 375.9 337.619 375.4C336.519 374.9 335.619 374.3 334.819 373.5C334.019 372.7 333.419 371.7 332.919 370.5C332.419 369.3 332.219 368 332.219 366.5C332.219 365.7 332.319 364.9 332.519 364.1C332.719 363.3 333.019 362.6 333.319 361.8C333.719 361.1 334.119 360.4 334.619 359.8C335.119 359.2 335.719 358.6 336.519 358.2C337.219 357.7 338.019 357.4 338.919 357.1C339.819 356.8 340.719 356.7 341.819 356.7C343.119 356.7 344.319 356.9 345.319 357.4C346.319 357.9 347.119 358.5 347.819 359.3C348.519 360.1 349.019 361 349.419 362C349.819 363 350.019 364.1 350.119 365.1C350.119 365.5 350.119 365.8 350.119 366.2C350.119 366.6 350.019 366.9 349.819 367.2C349.719 367.5 349.519 367.8 349.319 368C349.119 368.2 348.819 368.3 348.519 368.3C348.119 368.3 347.619 368.3 347.019 368.3C346.419 368.3 345.819 368.3 345.119 368.3C344.419 368.3 343.719 368.3 343.019 368.3C342.319 368.3 341.519 368.3 340.819 368.3C340.119 368.3 339.319 368.3 338.619 368.3C337.919 368.3 337.219 368.3 336.619 368.3C336.819 368.9 337.019 369.5 337.319 369.9C337.619 370.4 337.919 370.8 338.319 371.1C338.719 371.4 339.119 371.7 339.619 371.8C340.119 372 340.619 372 341.119 372.1C341.919 372.1 342.819 371.9 343.619 371.5C344.719 371.1 345.519 370.5 346.219 369.7ZM341.119 361.3C340.319 361.3 339.619 361.6 339.019 362C338.419 362.4 337.919 362.9 337.519 363.5H345.019C344.919 363.2 344.719 362.9 344.519 362.6C344.319 362.3 344.019 362.1 343.719 361.9C343.419 361.7 343.019 361.6 342.619 361.5C342.219 361.4 341.719 361.3 341.119 361.3Z" fill="#00D3D2"/>
<path d="M383.519 375.7C382.619 375.7 381.819 375.6 381.119 375.4C380.419 375.2 379.719 374.9 379.119 374.6V381.3C379.119 381.5 379.019 381.7 378.719 381.8C378.519 382 378.119 382.1 377.819 382.2C377.419 382.3 377.019 382.3 376.619 382.4C376.219 382.4 375.819 382.4 375.419 382.3C375.019 382.2 374.719 382.1 374.519 381.9C374.319 381.7 374.119 381.4 374.119 381.1C374.119 380.8 374.119 380.3 374.119 379.7C374.119 379.1 374.119 378.4 374.119 377.6C374.119 376.8 374.119 375.9 374.119 375C374.119 374 374.119 373.1 374.119 372C374.119 371 374.119 369.9 374.119 368.9C374.119 367.8 374.119 366.8 374.119 365.8C374.119 364.8 374.119 363.9 374.119 363C374.119 362.1 374.119 361.3 374.119 360.6C374.119 359.9 374.119 359.3 374.119 358.8C374.119 358.3 374.119 358 374.119 357.8C374.119 357.6 374.219 357.5 374.519 357.3C374.719 357.2 375.019 357.1 375.419 357C375.719 356.9 376.119 356.9 376.519 356.8C376.919 356.8 377.319 356.8 377.619 356.8C377.919 356.8 378.219 356.9 378.519 357C378.719 357.1 378.919 357.3 378.919 357.5V358C379.519 357.6 380.219 357.4 380.919 357.2C381.619 357 382.519 356.9 383.319 356.9C384.419 356.9 385.419 357.1 386.319 357.4C387.219 357.8 388.019 358.2 388.619 358.8C389.319 359.4 389.819 360.1 390.319 360.9C390.719 361.7 391.119 362.6 391.319 363.5C391.519 364.4 391.619 365.3 391.619 366.3C391.619 367.3 391.519 368.2 391.319 369.1C391.119 370 390.719 370.9 390.319 371.7C389.919 372.5 389.319 373.2 388.719 373.8C388.019 374.4 387.319 374.9 386.419 375.3C385.519 375.6 384.519 375.7 383.519 375.7ZM382.819 361.5C382.219 361.5 381.719 361.7 381.219 361.9C380.719 362.2 380.319 362.5 380.019 362.9C379.719 363.3 379.419 363.8 379.219 364.3C379.019 364.8 378.919 365.3 378.919 365.9V366.9C378.919 367.4 379.119 368 379.319 368.5C379.519 369 379.819 369.4 380.119 369.8C380.419 370.2 380.919 370.5 381.419 370.7C381.919 370.9 382.519 371.1 383.119 371.1C383.819 371.1 384.419 371 384.919 370.7C385.419 370.4 385.819 370.1 386.219 369.6C386.519 369.1 386.819 368.6 386.919 368C387.119 367.4 387.119 366.8 387.119 366.2C387.119 365.6 387.019 365 386.819 364.4C386.619 363.8 386.319 363.3 386.019 362.9C385.619 362.5 385.219 362.1 384.719 361.9C384.119 361.6 383.519 361.5 382.819 361.5Z" fill="#00D3D2"/>
<path d="M416.919 375.3C416.919 375.5 416.819 375.7 416.519 375.8C416.319 376 415.919 376.1 415.619 376.2C415.219 376.3 414.819 376.4 414.419 376.4C414.019 376.4 413.619 376.4 413.219 376.3C412.819 376.2 412.519 376.1 412.319 375.9C412.119 375.7 411.919 375.5 411.919 375.1V374.8C410.719 375.6 409.519 376 408.119 376C407.119 376 406.319 375.9 405.519 375.6C404.719 375.4 404.019 375 403.319 374.6C402.719 374.2 402.119 373.6 401.619 373.1C401.119 372.5 400.719 371.9 400.419 371.2C400.119 370.5 399.819 369.8 399.719 369C399.519 368.2 399.419 367.5 399.419 366.7C399.419 365.9 399.419 365.1 399.619 364.2C399.719 363.4 400.019 362.6 400.319 361.9C400.619 361.2 401.019 360.5 401.519 359.8C402.019 359.2 402.619 358.6 403.219 358.1C403.919 357.6 404.619 357.3 405.519 357C406.319 356.7 407.319 356.6 408.319 356.6C409.019 356.6 409.719 356.7 410.319 356.8C410.919 357 411.519 357.2 412.119 357.5C412.119 357.4 412.119 357.3 412.119 357.3C412.119 357.2 412.119 357.2 412.119 357.1C412.119 356.9 412.219 356.8 412.519 356.6C412.719 356.5 413.019 356.4 413.419 356.3C413.819 356.2 414.119 356.2 414.519 356.2C414.919 356.2 415.319 356.2 415.619 356.3C416.019 356.4 416.219 356.5 416.519 356.6C416.719 356.7 416.919 356.9 416.919 357.1V375.3ZM407.719 361.5C407.119 361.5 406.619 361.7 406.219 361.9C405.719 362.2 405.419 362.5 405.019 363C404.719 363.5 404.419 364 404.319 364.6C404.119 365.2 404.119 365.9 404.119 366.6C404.119 366.9 404.119 367.3 404.219 367.6C404.319 368 404.419 368.3 404.519 368.7C404.619 369.1 404.819 369.4 405.019 369.7C405.219 370 405.419 370.3 405.719 370.6C406.019 370.8 406.319 371 406.619 371.2C406.919 371.4 407.319 371.4 407.719 371.4C408.419 371.4 409.019 371.2 409.519 370.9C410.019 370.6 410.519 370.2 410.819 369.7C411.219 369.2 411.419 368.6 411.619 368C411.819 367.4 411.919 366.7 411.919 366.1C411.919 365.5 411.819 364.9 411.619 364.3C411.419 363.7 411.119 363.2 410.819 362.8C410.419 362.4 410.019 362 409.519 361.8C409.019 361.6 408.419 361.5 407.719 361.5Z" fill="#00D3D2"/>
<path d="M429.819 359C429.919 358.9 430.119 358.9 430.319 358.8C430.519 358.7 430.619 358.7 430.819 358.6C432.419 358 433.719 357.6 434.919 357.6C436.119 357.6 437.119 357.9 437.919 358.5C438.719 359.1 439.419 360 439.919 361.3C440.419 362.6 440.719 364.2 440.819 366.1C440.919 367.4 440.919 368.9 441.019 370.3C441.019 371.8 441.019 373.4 440.919 375.2C440.919 375.5 440.819 375.7 440.519 375.9C440.319 376.1 440.019 376.2 439.619 376.3C439.319 376.4 438.919 376.4 438.519 376.4C438.119 376.4 437.719 376.4 437.419 376.3C437.119 376.2 436.819 376.1 436.619 375.9C436.419 375.7 436.319 375.5 436.319 375.2C436.419 373.5 436.419 371.9 436.519 370.5C436.519 369.1 436.519 367.9 436.519 366.8C436.419 365.9 436.319 365.1 436.219 364.5C436.019 363.9 435.819 363.4 435.419 363C435.119 362.7 434.619 362.5 434.019 362.5C433.419 362.5 432.719 362.6 431.919 363C431.219 363.3 430.619 363.6 430.019 364L430.119 375.4C430.119 375.6 430.019 375.8 429.719 375.9C429.519 376.1 429.119 376.2 428.819 376.3C428.519 376.4 428.019 376.4 427.619 376.5C427.219 376.5 426.819 376.5 426.419 376.4C426.019 376.3 425.719 376.2 425.519 376C425.319 375.8 425.119 375.5 425.119 375.2C425.119 374.8 425.119 374.3 425.119 373.6C425.119 372.9 425.119 372.2 425.119 371.4C425.119 370.6 425.119 369.7 425.119 368.8C425.119 367.9 425.119 367 425.119 366C425.119 365.1 425.119 364.2 425.119 363.3C425.119 362.4 425.119 361.6 425.119 360.9C425.119 360.2 425.119 359.6 425.119 359C425.119 358.5 425.119 358.1 425.119 357.9C425.119 357.7 425.219 357.6 425.519 357.4C425.719 357.3 426.019 357.2 426.419 357.1C426.819 357 427.119 357 427.519 357C427.919 357 428.319 357 428.619 357C429.019 357 429.219 357.1 429.519 357.3C429.719 357.4 429.919 357.6 429.919 357.8L429.819 359ZM430.019 354.3C429.919 354.4 429.819 354.5 429.719 354.5C429.619 354.5 429.419 354.5 429.319 354.4C429.119 354.3 429.019 354.2 428.819 354.1C428.619 354 428.519 353.9 428.419 353.7C428.319 353.6 428.219 353.4 428.219 353.2C428.219 353 428.219 352.9 428.319 352.7C428.719 352.1 429.019 351.6 429.419 351.3C429.819 351 430.219 350.8 430.619 350.8C431.019 350.8 431.419 350.8 431.819 351C432.219 351.2 432.619 351.4 433.119 351.6C433.419 351.8 433.719 351.9 433.919 352C434.119 352 434.319 352 434.419 352C434.619 351.9 434.719 351.8 434.819 351.7C434.919 351.5 435.019 351.4 435.219 351.2C435.319 351 435.519 350.9 435.619 350.9C435.819 350.9 435.919 350.8 436.119 350.9C436.319 350.9 436.519 351 436.719 351.1C436.919 351.2 437.019 351.3 437.219 351.4C437.319 351.5 437.419 351.7 437.519 351.8C437.619 352 437.519 352.1 437.519 352.3C437.219 352.8 436.919 353.3 436.619 353.7C436.219 354.1 435.819 354.3 435.419 354.5C435.019 354.7 434.519 354.7 434.119 354.6C433.619 354.5 433.219 354.3 432.719 354C432.419 353.8 432.219 353.7 431.919 353.5C431.719 353.4 431.419 353.3 431.219 353.3C431.019 353.3 430.819 353.4 430.619 353.5C430.419 353.7 430.219 354 430.019 354.3Z" fill="#00D3D2"/>
<path d="M466.219 375.3C466.219 375.5 466.119 375.7 465.819 375.8C465.619 376 465.219 376.1 464.919 376.2C464.519 376.3 464.119 376.4 463.719 376.4C463.319 376.4 462.919 376.4 462.519 376.3C462.119 376.2 461.819 376.1 461.619 375.9C461.419 375.7 461.219 375.5 461.219 375.1V374.8C460.019 375.6 458.819 376 457.419 376C456.419 376 455.619 375.9 454.819 375.6C454.019 375.4 453.319 375 452.619 374.6C452.019 374.2 451.419 373.6 450.919 373.1C450.419 372.5 450.019 371.9 449.719 371.2C449.419 370.5 449.119 369.8 449.019 369C448.819 368.2 448.719 367.5 448.719 366.7C448.719 365.9 448.719 365.1 448.919 364.2C449.019 363.4 449.319 362.6 449.619 361.9C449.919 361.2 450.319 360.5 450.819 359.8C451.319 359.1 451.919 358.6 452.519 358.1C453.219 357.6 453.919 357.3 454.819 357C455.619 356.7 456.619 356.6 457.619 356.6C458.319 356.6 459.019 356.7 459.619 356.8C460.219 357 460.819 357.2 461.419 357.5C461.419 357.4 461.419 357.3 461.419 357.3C461.419 357.2 461.419 357.2 461.419 357.1C461.419 356.9 461.519 356.8 461.819 356.6C462.019 356.5 462.319 356.4 462.719 356.3C463.119 356.2 463.419 356.2 463.819 356.2C464.219 356.2 464.619 356.2 464.919 356.3C465.319 356.4 465.519 356.5 465.819 356.6C466.019 356.7 466.219 356.9 466.219 357.1V375.3ZM457.019 361.5C456.419 361.5 455.919 361.7 455.519 361.9C455.019 362.2 454.719 362.5 454.319 363C454.019 363.5 453.719 364 453.619 364.6C453.419 365.2 453.419 365.9 453.419 366.6C453.419 366.9 453.419 367.3 453.519 367.6C453.619 368 453.719 368.3 453.819 368.7C453.919 369.1 454.119 369.4 454.319 369.7C454.519 370 454.719 370.3 455.019 370.6C455.319 370.8 455.619 371 455.919 371.2C456.219 371.4 456.619 371.4 457.019 371.4C457.719 371.4 458.319 371.2 458.819 370.9C459.319 370.6 459.819 370.2 460.119 369.7C460.519 369.2 460.719 368.6 460.919 368C461.119 367.4 461.219 366.7 461.219 366.1C461.219 365.5 461.119 364.9 460.919 364.3C460.719 363.7 460.419 363.2 460.119 362.8C459.719 362.4 459.319 362 458.819 361.8C458.319 361.6 457.719 361.5 457.019 361.5Z" fill="#00D3D2"/>
<path d="M479.319 375.3C479.319 375.5 479.219 375.7 478.919 375.8C478.719 376 478.319 376.1 478.019 376.2C477.619 376.3 477.219 376.3 476.819 376.4C476.419 376.4 476.019 376.4 475.619 376.3C475.219 376.2 474.919 376.1 474.719 375.9C474.519 375.7 474.319 375.4 474.319 375.1L474.419 351.6C474.419 351.4 474.519 351.3 474.819 351.1C475.019 351 475.319 350.9 475.719 350.8C476.119 350.7 476.419 350.7 476.819 350.7C477.219 350.7 477.619 350.7 477.919 350.7C478.319 350.7 478.519 350.8 478.819 351C479.019 351.1 479.219 351.3 479.219 351.5L479.319 375.3Z" fill="#00D3D2"/>
<path d="M501.519 369.7C501.619 369.6 501.819 369.5 502.119 369.5C502.419 369.5 502.719 369.6 503.019 369.8C503.319 369.9 503.619 370.1 503.919 370.4C504.219 370.6 504.519 370.9 504.719 371.1C504.919 371.4 505.119 371.6 505.119 371.8C505.219 372 505.119 372.3 505.019 372.4C504.419 373.1 503.719 373.7 503.019 374.2C502.319 374.7 501.519 375.1 500.819 375.4C500.019 375.7 499.319 375.9 498.519 376.1C497.719 376.2 496.919 376.3 496.219 376.2C495.019 376.1 493.919 375.9 492.919 375.4C491.919 374.9 490.919 374.3 490.119 373.5C489.319 372.7 488.719 371.7 488.219 370.5C487.719 369.3 487.519 368 487.519 366.5C487.519 365.7 487.619 364.9 487.819 364.1C488.019 363.3 488.319 362.6 488.619 361.8C489.019 361.1 489.419 360.4 489.919 359.8C490.419 359.2 491.019 358.6 491.819 358.2C492.519 357.7 493.319 357.4 494.219 357.1C495.119 356.8 496.019 356.7 497.119 356.7C498.419 356.7 499.619 356.9 500.619 357.4C501.619 357.9 502.419 358.5 503.119 359.3C503.819 360.1 504.319 361 504.719 362C505.119 363 505.319 364.1 505.419 365.1C505.419 365.5 505.419 365.8 505.419 366.2C505.419 366.6 505.319 366.9 505.119 367.2C505.019 367.5 504.819 367.8 504.619 368C504.419 368.2 504.119 368.3 503.819 368.3C503.419 368.3 502.919 368.3 502.319 368.3C501.719 368.3 501.119 368.3 500.419 368.3C499.719 368.3 499.019 368.3 498.319 368.3C497.619 368.3 496.819 368.3 496.119 368.3C495.419 368.3 494.619 368.3 493.919 368.3C493.219 368.3 492.519 368.3 491.919 368.3C492.119 368.9 492.319 369.5 492.619 369.9C492.919 370.4 493.219 370.8 493.619 371.1C494.019 371.4 494.419 371.7 494.919 371.8C495.419 372 495.919 372 496.419 372.1C497.219 372.1 498.119 371.9 498.919 371.5C500.019 371.1 500.819 370.5 501.519 369.7ZM496.419 361.3C495.619 361.3 494.919 361.6 494.319 362C493.719 362.4 493.219 362.9 492.819 363.5H500.319C500.219 363.2 500.019 362.9 499.819 362.6C499.619 362.3 499.319 362.1 499.019 361.9C498.719 361.7 498.319 361.6 497.919 361.5C497.519 361.4 497.019 361.3 496.419 361.3Z" fill="#00D3D2"/>
<path d="M527.319 371.3C527.319 372.2 527.119 372.9 526.819 373.6C526.519 374.2 526.119 374.8 525.519 375.2C525.019 375.6 524.419 375.9 523.719 376.1C523.019 376.3 522.319 376.4 521.519 376.4C520.719 376.4 519.919 376.4 519.119 376.2C518.319 376 517.519 375.8 516.819 375.5C516.119 375.2 515.419 374.8 514.819 374.4C514.219 374 513.719 373.5 513.219 372.9C513.119 372.7 513.019 372.5 513.119 372.3C513.219 372 513.319 371.8 513.419 371.5C513.619 371.2 513.719 370.9 514.019 370.6C514.219 370.3 514.519 370.1 514.719 369.9C514.919 369.7 515.219 369.6 515.419 369.5C515.619 369.4 515.819 369.5 515.919 369.6C516.219 369.9 516.619 370.2 517.019 370.5C517.419 370.8 517.819 371 518.219 371.2C518.619 371.4 519.019 371.6 519.519 371.7C519.919 371.8 520.319 371.8 520.619 371.8C520.919 371.8 521.219 371.7 521.519 371.5C521.719 371.3 521.919 371.1 522.019 370.8C522.119 370.5 522.019 370.2 521.719 369.9C521.419 369.6 521.019 369.3 520.519 368.9C520.019 368.6 519.419 368.2 518.719 367.8C518.019 367.4 517.419 367 516.819 366.6C516.219 366.2 515.619 365.7 515.019 365.2C514.419 364.7 514.019 364.1 513.719 363.6C513.419 363 513.219 362.4 513.219 361.8C513.219 361.2 513.319 360.6 513.519 360.1C513.719 359.5 514.019 359 514.419 358.5C514.819 358 515.319 357.6 515.919 357.3C516.519 357 517.119 356.7 517.719 356.5C518.319 356.3 519.119 356.3 519.819 356.4C520.519 356.5 521.219 356.6 521.919 356.8C522.619 357 523.319 357.2 523.919 357.5C524.519 357.8 525.119 358.2 525.619 358.6C526.119 359 526.519 359.5 526.919 360C527.019 360.2 527.119 360.4 527.019 360.7C527.019 361 526.919 361.2 526.719 361.5C526.519 361.8 526.319 362 526.119 362.3C525.919 362.6 525.619 362.8 525.419 363C525.219 363.2 524.919 363.3 524.719 363.4C524.519 363.5 524.319 363.4 524.219 363.3C523.719 362.9 523.219 362.6 522.719 362.2C522.219 361.9 521.619 361.6 521.119 361.4C520.619 361.2 520.219 361.1 519.819 361.1C519.419 361.1 519.119 361.3 518.919 361.6C518.819 361.8 518.819 362 518.919 362.1C519.019 362.2 519.119 362.4 519.219 362.6C519.419 362.8 519.519 362.9 519.819 363.1C520.019 363.3 520.319 363.4 520.519 363.5C520.719 363.6 521.019 363.8 521.219 363.9C521.419 364 521.619 364.1 521.819 364.2C522.619 364.5 523.319 364.9 524.019 365.4C524.719 365.9 525.319 366.4 525.819 367C526.319 367.6 526.719 368.3 527.019 369.1C527.119 369.7 527.319 370.5 527.319 371.3Z" fill="#00D3D2"/>
<path d="M30.219 281.3C38.319 282 46.519 282.6 54.819 283.1C55.819 283.1 56.619 283.5 57.219 284.2C57.819 284.9 58.019 285.7 58.019 286.6C57.419 291.7 56.719 296.8 56.019 301.8C55.919 302.7 55.519 303.5 54.719 304.2C53.919 304.9 53.019 305.2 52.019 305.3C35.619 305.2 19.319 303.6 3.21896 300.5C2.21896 300.2 1.41895 299.7 0.818953 298.9C0.218953 298.1 -0.0810501 297.2 0.0189499 296.3C1.51895 269.1 4.21896 242 8.11896 215C8.21896 214.1 8.61896 213.3 9.41896 212.6C10.219 211.9 11.1189 211.6 12.0189 211.6C19.2189 211.6 26.419 211.9 33.619 212.5C34.519 212.6 35.219 213 35.819 213.8C36.419 214.6 36.619 215.4 36.519 216.4C34.419 238.2 32.319 259.8 30.219 281.3Z" fill="#00D3D2"/>
<path d="M93.819 211.7C95.119 214.4 97.619 219.6 101.319 227.2C104.919 234.8 107.719 240.5 109.419 244.3C111.219 248.1 113.419 253 116.219 259.1C119.019 265.2 121.519 270.8 123.719 275.8C125.919 280.8 128.019 285.8 129.919 290.7C130.319 291.7 130.219 292.8 129.519 293.9C128.919 295 128.019 295.6 126.919 295.8C120.119 297.1 113.219 298.3 106.319 299.4C104.719 299.6 103.619 298.9 102.919 297.4C101.419 294.2 99.819 290.8 98.119 287.3C90.019 288.4 81.919 289.4 73.719 290.3C73.019 294.1 72.319 297.8 71.719 301.3C71.419 302.9 70.419 303.8 68.819 304C61.819 304.6 54.819 305.2 47.819 305.6C46.619 305.7 45.619 305.2 44.819 304.4C43.919 303.5 43.619 302.5 43.819 301.4C44.519 296.2 45.219 290.8 46.119 285.4C47.019 280 48.019 274 49.319 267.4C50.619 260.8 51.619 255.5 52.419 251.4C53.219 247.3 54.419 241.1 56.119 232.9C57.819 224.6 58.919 219 59.419 216C59.819 214.3 60.819 213.3 62.419 213C71.619 211.7 80.919 210.5 90.219 209.5C91.919 209.4 93.119 210.1 93.819 211.7ZM77.319 269.5C81.319 269 85.419 268.5 89.519 268C89.419 267.8 86.419 260.4 80.619 245.5C80.419 247.3 80.119 249.8 79.619 253C79.119 256.3 78.719 259.2 78.319 261.9C77.919 264.6 77.519 267.1 77.319 269.5Z" fill="#00D3D2"/>
<path d="M231.419 276.6C235.819 281.4 239.919 285.8 243.619 289.7C244.219 290.4 244.419 291.3 244.419 292.2C244.319 293.1 243.919 293.9 243.119 294.6C232.519 303.1 220.419 306.6 206.919 305.1C191.419 303.4 180.219 297 173.419 285.8C167.819 276.7 165.819 265.8 167.419 253.2C168.819 240.4 173.219 230.3 180.419 222.8C189.519 213.6 202.019 209.9 217.819 211.9C229.219 213.3 238.819 218.1 246.819 226.1C247.619 226.8 247.919 227.6 247.919 228.6C247.919 229.6 247.519 230.4 246.819 231.1C242.619 234.9 238.419 238.8 234.219 242.6C233.519 243.2 232.819 243.5 231.919 243.4C231.019 243.4 230.219 243.1 229.519 242.5C226.319 239.5 222.319 237.7 217.419 237.1C214.419 236.7 211.719 236.8 209.419 237.4C207.119 238 205.219 238.8 203.919 240C202.519 241.2 201.319 242.7 200.419 244.6C199.419 246.5 198.719 248.4 198.319 250.2C197.919 252 197.519 254.2 197.219 256.6C196.919 259.1 196.819 261.2 196.819 263.1C196.819 265 197.019 266.9 197.519 269C198.019 271.1 198.819 272.9 199.819 274.3C200.819 275.7 202.419 277 204.519 278.1C206.619 279.2 209.219 279.9 212.219 280.3C217.619 280.9 222.419 279.5 226.619 276.1C227.319 275.5 228.219 275.3 229.119 275.3C230.119 275.6 230.819 276 231.419 276.6Z" fill="#00D3D2"/>
<path d="M276.119 301.3C269.219 303.5 262.019 304.6 254.719 304.6C253.819 304.6 252.919 304.2 252.119 303.5C251.319 302.8 250.819 302 250.719 301.1C246.019 274.3 241.919 247.3 238.419 220.3C238.319 219.3 238.519 218.4 239.019 217.5C239.619 216.6 240.319 216 241.219 215.7C248.219 213.5 255.319 212.4 262.619 212.4C263.519 212.4 264.419 212.8 265.219 213.4C266.019 214.1 266.519 214.9 266.619 215.9C271.319 242.7 275.419 269.6 278.919 296.7C279.019 297.6 278.819 298.5 278.319 299.4C277.719 300.3 277.019 301 276.119 301.3Z" fill="#00D3D2"/>
<path d="M356.319 261.9C355.819 265.8 355.319 269.4 354.619 272.9C353.719 277.9 352.619 283.7 351.319 290.3C351.419 290.4 351.219 290.9 350.819 291.7C350.419 292.6 349.519 293.7 348.219 295.2C346.919 296.7 345.219 298.1 343.119 299.3C333.619 305 322.819 307 310.919 305.1C293.319 302.3 281.119 295.2 274.419 283.6C269.219 274.7 267.819 263.7 269.919 250.8C271.919 238 276.819 228.1 284.519 221.2C294.419 212.4 307.819 209.5 324.719 212.3C337.819 214.5 348.219 220.6 355.919 230.5C356.519 231.3 356.819 232.1 356.719 233.1C356.619 234 356.219 234.8 355.419 235.3C351.119 238.6 346.719 242 342.119 245.4C341.319 245.9 340.419 246.1 339.419 246C338.419 245.8 337.619 245.3 337.019 244.5C333.819 239.8 329.419 236.9 323.619 235.9C319.919 235.3 316.619 235.4 313.819 236.2C311.019 237 308.819 238.4 307.219 240.5C305.519 242.5 304.219 244.8 303.319 247.2C302.419 249.6 301.619 252.4 301.119 255.6C298.519 271.9 303.019 281 314.719 282.9C321.119 283.9 325.419 283.3 327.619 280.9C327.719 280.5 327.819 279.7 328.019 278.6C328.219 277.5 328.319 276.5 328.519 275.7C327.519 275.5 325.719 275.2 323.119 274.8C320.519 274.4 319.019 274.1 318.619 274.1C317.619 273.9 316.919 273.5 316.319 272.8C315.719 272.1 315.519 271.3 315.719 270.3C316.619 265.3 317.519 260.2 318.519 255.2C318.619 254.3 319.119 253.5 319.919 252.9C320.719 252.2 321.619 251.9 322.519 252C333.019 252.6 343.319 254.4 353.519 257.3C354.419 257.6 355.119 258.2 355.719 259C356.319 260 356.519 260.9 356.319 261.9Z" fill="#00D3D2"/>
<path d="M385.119 273C385.419 275.3 386.219 277 387.819 278.1C389.319 279.2 391.219 279.6 393.419 279.3C395.619 279 397.419 278.2 398.719 276.8C400.019 275.4 400.519 273.5 400.319 271.3C398.319 252.6 396.219 234 393.919 215.5C393.819 214.5 394.019 213.6 394.619 212.9C395.219 212.1 396.019 211.7 397.019 211.7C404.219 211.1 411.319 210.7 418.519 210.4C419.419 210.4 420.319 210.7 421.019 211.3C421.819 211.9 422.319 212.7 422.419 213.7C425.519 232.4 427.819 251.1 429.519 269.9C430.419 279.1 427.219 287.1 420.219 293.8C413.719 300 405.719 303.6 396.219 304.5C386.719 305.6 378.119 303.9 370.519 299.3C362.219 294.2 357.519 287.1 356.319 278C353.819 259.3 352.019 240.5 350.919 221.6C350.919 220.6 351.219 219.7 351.819 218.9C352.419 218.1 353.219 217.6 354.119 217.5C361.319 216.1 368.319 215 375.419 214C376.419 213.8 377.219 214 378.019 214.6C378.719 215.2 379.219 216 379.319 217C381.019 235.8 383.019 254.4 385.119 273ZM376.819 195.3C378.919 197 380.119 199.1 380.419 201.6C380.719 204.1 380.019 206.5 378.319 208.6C376.619 210.7 374.519 211.9 372.019 212.2C369.419 212.5 367.019 211.8 365.019 210.2C362.919 208.6 361.819 206.4 361.519 203.8C361.219 201.2 361.919 198.8 363.519 196.8C365.119 194.8 367.319 193.6 369.919 193.3C372.419 192.9 374.719 193.6 376.819 195.3ZM404.819 192.1C406.819 193.7 408.019 195.9 408.319 198.5C408.619 201.1 407.919 203.5 406.319 205.5C404.719 207.5 402.519 208.7 399.919 209C397.319 209.3 394.919 208.6 392.919 206.9C390.819 205.2 389.719 203.1 389.419 200.6C389.119 198.1 389.819 195.7 391.419 193.6C393.019 191.5 395.219 190.3 397.819 190C400.419 189.8 402.719 190.5 404.819 192.1Z" fill="#00D3D2"/>
<path d="M628.119 216.5C628.819 219.5 630.219 225 632.219 233.2C634.219 241.4 635.719 247.5 636.619 251.6C637.519 255.7 638.819 260.9 640.319 267.5C641.819 274 643.119 280 644.219 285.4C645.319 290.8 646.319 296.1 647.219 301.3C647.419 302.4 647.019 303.4 646.219 304.3C645.419 305.2 644.419 305.7 643.219 305.7C636.319 305.5 629.319 305.3 622.319 305C620.719 304.9 619.819 304 619.419 302.4C618.619 298.9 617.819 295.3 616.819 291.5C608.719 290.9 600.519 290.2 592.319 289.5C590.819 293.1 589.419 296.6 588.119 299.8C587.519 301.3 586.319 302 584.719 301.9C577.719 301.1 570.819 300.2 563.819 299.2C562.719 299 561.819 298.4 561.119 297.4C560.419 296.4 560.319 295.3 560.719 294.3C562.419 289.3 564.319 284.2 566.219 279.1C568.219 274 570.419 268.3 573.019 262.1C575.619 255.9 577.719 250.9 579.319 247C580.919 243.2 583.419 237.4 586.719 229.6C590.019 221.8 592.319 216.6 593.419 213.8C594.119 212.2 595.319 211.4 596.919 211.5C606.219 212.1 615.519 212.9 624.819 213.8C626.719 213.8 627.719 214.8 628.119 216.5ZM600.119 269.7C604.119 270 608.219 270.4 612.319 270.7C612.219 270.5 610.919 262.6 608.219 246.9C607.619 248.6 606.819 251 605.719 254.1C604.619 257.2 603.619 260 602.619 262.5C601.719 265 600.819 267.4 600.119 269.7Z" fill="#00D3D2"/>
<path d="M481.919 239.1C473.419 237.8 464.919 236.7 456.219 235.7C455.619 241.2 455.219 245.3 454.919 248C462.219 248.8 469.519 249.6 476.819 250.6C477.819 250.7 478.619 251.1 479.219 251.9C479.819 252.7 480.119 253.5 480.019 254.4C479.419 259.6 478.919 264.7 478.419 269.8C478.319 270.8 477.919 271.6 477.119 272.2C476.319 272.8 475.419 273.1 474.519 273C467.219 272.4 459.919 271.7 452.619 270.9C452.219 274.3 451.919 277.8 451.519 281.4C460.119 282.3 468.719 283 477.319 283.5C478.319 283.5 479.119 283.9 479.719 284.6C480.319 285.3 480.519 286.1 480.419 287C479.719 292.1 479.019 297.1 478.319 302.2C478.119 303.1 477.619 303.9 476.919 304.5C476.119 305.2 475.319 305.5 474.419 305.5C457.619 305.4 440.919 303.6 424.419 300.2C423.519 300 422.719 299.5 422.119 298.7C421.519 297.9 421.219 297 421.319 296.1C423.019 268.9 425.919 241.8 430.019 214.9C430.119 214 430.519 213.2 431.319 212.6C432.119 211.9 432.919 211.6 433.819 211.6C450.619 211.7 467.319 213.5 483.819 216.9C484.719 217.1 485.419 217.6 486.119 218.4C486.719 219.2 487.019 220.1 487.019 221C486.619 226.1 486.219 231.2 485.919 236.2C485.819 237.1 485.419 237.8 484.719 238.4C484.019 239 482.919 239.3 481.919 239.1Z" fill="#00D3D2"/>
<path d="M540.819 255.3C539.319 241.9 537.719 228.6 535.919 215.2C535.819 214.2 536.019 213.3 536.619 212.6C537.219 211.8 538.019 211.4 539.019 211.4C546.219 210.8 553.319 210.3 560.519 210C561.419 210 562.319 210.3 563.019 211C563.819 211.7 564.319 212.4 564.419 213.3C569.019 240.2 572.019 267.3 573.319 294.5C573.419 295 573.319 295.5 573.119 295.9C572.919 296.3 572.719 296.7 572.419 297.1C572.119 297.5 571.719 297.8 571.319 298C570.919 298.3 570.519 298.4 570.119 298.6C562.419 299.9 554.819 301.1 547.219 302.1C546.019 302.3 545.019 301.9 544.219 300.9C537.419 292.2 527.319 279.8 514.119 263.6C515.519 276.3 517.019 289 518.619 301.7C518.719 302.7 518.519 303.5 517.919 304.3C517.319 305 516.619 305.4 515.719 305.5C508.519 306 501.419 306.5 494.219 306.9C493.219 306.9 492.319 306.6 491.519 305.9C490.719 305.2 490.219 304.5 490.119 303.6C485.519 276.7 482.519 249.6 481.219 222.4C481.219 221.5 481.519 220.6 482.119 219.8C482.719 219 483.519 218.5 484.519 218.3C491.519 217 498.519 215.9 505.619 215C506.819 214.8 507.819 215.2 508.519 216.2C515.619 225.1 526.419 238.1 540.819 255.3ZM495.519 205.5C499.419 200 504.219 197 510.119 196.3C513.119 196 516.319 196.5 519.719 198C523.319 199.4 526.419 200 528.919 199.7C533.019 199.3 536.119 197.5 538.219 194.6L543.619 199.5C540.119 204.2 535.619 206.9 529.919 207.5C526.319 207.9 522.819 207.4 519.519 206C519.219 205.9 518.619 205.6 517.819 205.3C517.019 205 516.419 204.7 516.119 204.6C515.819 204.5 515.319 204.3 514.619 204.1C514.019 203.9 513.319 203.8 512.819 203.8C512.219 203.8 511.619 203.8 510.919 203.9C506.719 204.4 503.219 206.4 500.419 210.2L495.519 205.5Z" fill="#00D3D2"/>
</svg>
