<svg width="21" height="12" viewBox="0 0 21 12" fill="none" xmlns="http://www.w3.org/2000/svg">
<path d="M20.4893 3.15922H19.1611V1.94829C19.1611 1.81081 19.0389 1.69898 18.8881 1.69898H18.8877H17.5596V0.486615C17.5596 0.349138 17.4373 0.237305 17.2865 0.237305H17.2861H1.03613C0.885352 0.237305 0.762695 0.348782 0.762695 0.486259V0.486615V8.73381C0.762695 8.87164 0.884961 8.98312 1.03613 8.98312H2.36426V10.1941C2.36387 10.3315 2.48613 10.4434 2.63691 10.4437C2.6373 10.4437 2.6373 10.4437 2.6377 10.4437H3.96582V11.6547C3.96582 11.7921 4.08809 11.904 4.23887 11.904H4.23926H20.4893C20.64 11.904 20.7623 11.7929 20.7627 11.6557V3.40854C20.7627 3.2707 20.6404 3.15922 20.4893 3.15922ZM1.30957 0.736282H17.0115V8.4845H1.30957V0.736282ZM2.91191 8.98312H17.285C17.4361 8.98312 17.5584 8.87164 17.5584 8.73381V2.19724H18.6139V9.9451H2.91191V8.98312ZM20.2158 11.4061H4.51387V10.4437H18.8877C19.0385 10.4437 19.1611 10.3322 19.1611 10.1948V10.1944V3.65785H20.2158V11.4061Z" fill="#00D3D2"/>
<path d="M3.39824 7.59411C3.39824 7.73158 3.52051 7.84342 3.67129 7.84342H3.67168H14.6494C14.8002 7.84342 14.9229 7.73194 14.9229 7.59446V7.59411C14.9236 7.03422 15.4209 6.58084 16.035 6.58012C16.1857 6.58012 16.3084 6.46865 16.3084 6.33117V6.33081V2.88997C16.3084 2.75249 16.1861 2.64066 16.0354 2.64066H16.035C15.4209 2.63994 14.9232 2.1862 14.9229 1.62632C14.9229 1.48884 14.8006 1.37701 14.6498 1.37701H14.6494H3.67168C3.5209 1.37701 3.39824 1.48848 3.39824 1.62596V1.62632C3.39785 2.1862 2.9002 2.63994 2.28613 2.64066C2.13535 2.64066 2.0127 2.75213 2.0127 2.88961V2.88997V6.33081C2.0127 6.46829 2.13496 6.58012 2.28574 6.58012H2.28613C2.9002 6.58084 3.39746 7.03422 3.39824 7.59411ZM2.55957 3.11862C3.25762 3.01106 3.80449 2.51244 3.92246 1.87598H14.3982C14.5162 2.51244 15.0631 3.01106 15.7611 3.11862V6.10216C15.0631 6.20972 14.5162 6.70834 14.3982 7.3448H3.92246C3.80449 6.70834 3.25762 6.20972 2.55957 6.10216V3.11862Z" fill="#00D3D2"/>
<path d="M9.67109 5.49206H8.02539C7.87422 5.49206 7.75195 5.60354 7.75195 5.74137C7.75195 5.8792 7.87422 5.99068 8.02539 5.99068H8.88789V6.4544C8.88789 6.59223 9.01016 6.70371 9.16133 6.70371C9.3125 6.70371 9.43477 6.59223 9.43477 6.4544V5.99068H9.67148C10.1676 5.99032 10.5695 5.62384 10.5699 5.17152V4.61021C10.5695 4.47238 10.4469 4.36126 10.2957 4.36161H8.29844V4.04926C8.29883 3.87225 8.45586 3.72908 8.65 3.72872H10.2957C10.4469 3.72872 10.5691 3.61724 10.5691 3.47941C10.5691 3.34158 10.4469 3.2301 10.2957 3.2301H9.43477V2.76603C9.43477 2.62819 9.3125 2.51672 9.16133 2.51672C9.01016 2.51672 8.88789 2.62819 8.88789 2.76603V3.22974H8.65039C8.1543 3.23046 7.75273 3.59659 7.75195 4.04891V4.61021C7.75195 4.74805 7.87422 4.85952 8.02539 4.85952H10.0227V5.17152C10.0227 5.34817 9.86523 5.49206 9.67109 5.49206Z" fill="#00D3D2"/>
<path d="M12.5191 5.3706C12.9797 5.3706 13.3527 5.03011 13.3527 4.61056C13.3527 4.19101 12.9793 3.85052 12.5191 3.85052C12.059 3.85052 11.6855 4.19101 11.6855 4.61056C11.6859 5.03011 12.0586 5.36989 12.5191 5.3706ZM12.5191 4.34878C12.6777 4.34878 12.8059 4.46596 12.8059 4.6102C12.8059 4.75445 12.6773 4.87162 12.5191 4.87162C12.3605 4.87162 12.2324 4.75445 12.2324 4.6102C12.232 4.46596 12.3605 4.34878 12.5191 4.34878Z" fill="#00D3D2"/>
<path d="M5.80137 5.3706C6.26192 5.3706 6.63496 5.03011 6.63496 4.61056C6.63496 4.19065 6.26153 3.85052 5.80137 3.85052C5.34121 3.85052 4.96777 4.19101 4.96777 4.61056C4.96816 5.03011 5.34121 5.36989 5.80137 5.3706ZM5.80137 4.34878C5.95996 4.34878 6.08809 4.46596 6.08809 4.6102C6.08809 4.7548 5.95957 4.87162 5.80137 4.87162C5.64317 4.87162 5.51465 4.75445 5.51465 4.6102C5.51465 4.46596 5.64317 4.34878 5.80137 4.34878Z" fill="#00D3D2"/>
</svg>
