<svg width="18" height="18" viewBox="0 0 18 18" fill="none" xmlns="http://www.w3.org/2000/svg">
<path d="M17.2912 6.09535L11.6666 0.470816C11.363 0.167219 10.9581 0 10.5264 0C10.0948 0 9.68987 0.16715 9.38623 0.470746L0.470816 9.3862C0.167219 9.68983 0 10.0947 0 10.5263C0 10.958 0.167219 11.3629 0.470816 11.6665L1.16439 12.3601C1.16446 12.3601 1.1645 12.3602 1.16457 12.3602C1.16464 12.3603 1.16471 12.3604 1.16478 12.3604L5.8261 17.0218H5.18067C4.97633 17.0218 4.81064 17.1874 4.81064 17.3918C4.81064 17.5961 4.97633 17.7618 5.18067 17.7618H7.2341C7.23459 17.7618 7.23504 17.7619 7.23552 17.7619C7.23601 17.7619 7.23646 17.7618 7.23695 17.7618L12.5815 17.7619C12.7858 17.7619 12.9515 17.5962 12.9515 17.3919C12.9515 17.1875 12.7858 17.0218 12.5815 17.0218L8.64509 17.0218L17.2912 8.37563C17.9199 7.74693 17.9199 6.72398 17.2912 6.09535ZM16.7679 7.85233L7.8524 16.7678C7.68889 16.9313 7.47032 17.0214 7.23688 17.0218H7.23407C7.00069 17.0214 6.78219 16.9313 6.61876 16.7678L1.94956 12.0986L10.5116 3.53651C10.6561 3.39202 10.6561 3.1577 10.5116 3.01321C10.367 2.86871 10.1328 2.86871 9.98822 3.01324L1.42622 11.5753L0.994087 11.1432C0.830302 10.9794 0.740101 10.7603 0.740101 10.5264C0.740101 10.2924 0.830302 10.0733 0.994121 9.9095L9.90954 0.994087C10.0734 0.830302 10.2924 0.740101 10.5264 0.740101C10.7604 0.740101 10.9795 0.830302 11.1433 0.994121L13.1452 2.99596L4.58305 11.5581C4.43856 11.7026 4.43856 11.9369 4.58305 12.0815C4.65532 12.1537 4.75003 12.1898 4.84471 12.1898C4.93938 12.1898 5.03409 12.1537 5.10636 12.0814L13.6685 3.5193L16.7679 6.61862C17.108 6.95875 17.1079 7.5122 16.7679 7.85233Z" fill="#00D3D2"/>
<path d="M9.11783 10.6869C8.97334 10.5424 8.73909 10.5425 8.59449 10.6869L5.68259 13.5988C5.53809 13.7433 5.53809 13.9776 5.68259 14.1221C5.75486 14.1944 5.84957 14.2305 5.94424 14.2305C6.03892 14.2305 6.13363 14.1944 6.2059 14.1221L9.1178 11.2103C9.26233 11.0657 9.26233 10.8314 9.11783 10.6869Z" fill="#00D3D2"/>
<path d="M7.92376 13.4511L6.72947 14.6454C6.58497 14.7899 6.58497 15.0242 6.72947 15.1688C6.80173 15.241 6.89644 15.2771 6.99112 15.2771C7.08586 15.2771 7.18051 15.241 7.25277 15.1688L8.44707 13.9745C8.59157 13.83 8.59157 13.5956 8.44707 13.4511C8.30257 13.3066 8.06836 13.3066 7.92376 13.4511Z" fill="#00D3D2"/>
<path d="M9.02222 12.3522L8.86524 12.5092C8.72071 12.6537 8.72071 12.8879 8.8652 13.0325C8.93743 13.1048 9.03218 13.1409 9.12686 13.1409C9.22153 13.1409 9.31624 13.1048 9.38847 13.0325L9.54546 12.8756C9.68999 12.7311 9.68999 12.4968 9.54549 12.3523C9.40107 12.2078 9.16672 12.2077 9.02222 12.3522Z" fill="#00D3D2"/>
<path d="M14.1236 5.68181C14.0542 5.61243 13.9601 5.57343 13.8619 5.57343C13.7638 5.57343 13.6697 5.61243 13.6003 5.68181L12.0303 7.2518C11.9609 7.32122 11.9219 7.41531 11.9219 7.51345C11.9219 7.6116 11.9609 7.70572 12.0303 7.77511L13.0769 8.82168C13.1492 8.89395 13.2439 8.93006 13.3386 8.93006C13.4333 8.93006 13.528 8.89391 13.6002 8.82168L15.1702 7.25177C15.3147 7.10727 15.3147 6.87295 15.1702 6.72846L14.1236 5.68181ZM13.3386 8.03676L12.8152 7.51345L13.8619 6.46681L14.3852 6.99015L13.3386 8.03676Z" fill="#00D3D2"/>
<path d="M11.1132 2.78121C11.208 2.78121 11.3027 2.74506 11.3749 2.67276L11.5319 2.5157C11.6763 2.37117 11.6763 2.13686 11.5318 1.9924C11.3873 1.84794 11.1529 1.84797 11.0085 1.9925L10.8515 2.14956C10.707 2.29409 10.7071 2.5284 10.8516 2.67286C10.9239 2.74513 11.0185 2.78121 11.1132 2.78121Z" fill="#00D3D2"/>
<path d="M3.71946 12.4213L3.56247 12.5783C3.41798 12.7228 3.41798 12.9571 3.56247 13.1016C3.63474 13.1739 3.72945 13.21 3.82413 13.21C3.9188 13.21 4.01351 13.1739 4.08578 13.1016L4.24276 12.9446C4.38726 12.8001 4.38726 12.5658 4.24276 12.4213C4.09823 12.2768 3.86399 12.2768 3.71946 12.4213Z" fill="#00D3D2"/>
</svg>
