<svg width="116" height="17" viewBox="0 0 116 17" fill="none" xmlns="http://www.w3.org/2000/svg">
<path d="M9.17976 0.300331L11.4538 4.92827C11.5321 5.08735 11.6814 5.19706 11.8562 5.22265L16.9415 5.96502C17.3803 6.02902 17.5551 6.57026 17.2383 6.8811L13.5586 10.4832C13.433 10.6058 13.3747 10.785 13.4056 10.9587L14.2741 16.0455C14.3488 16.4844 13.89 16.819 13.4985 16.6124L8.94853 14.2097C8.79195 14.1275 8.60623 14.1275 8.45147 14.2097L3.90332 16.6106C3.51186 16.8172 3.05304 16.4826 3.12769 16.0437L3.99617 10.9568C4.02531 10.7831 3.96886 10.6039 3.84323 10.4814L0.161743 6.87927C-0.155062 6.56843 0.0197269 6.02719 0.45852 5.9632L5.54379 5.22083C5.71857 5.19523 5.86787 5.08552 5.94616 4.92644L8.22024 0.300331C8.41688 -0.10011 8.98312 -0.10011 9.17976 0.300331Z" fill="#FFC43D"/>
<path d="M33.8297 0.300331L36.1037 4.92827C36.182 5.08735 36.3313 5.19706 36.5061 5.22265L41.5914 5.96502C42.0302 6.02902 42.205 6.57026 41.8882 6.8811L38.2085 10.4832C38.0829 10.6058 38.0246 10.785 38.0555 10.9587L38.924 16.0455C38.9987 16.4844 38.5399 16.819 38.1484 16.6124L33.5984 14.2097C33.4418 14.1275 33.2561 14.1275 33.1014 14.2097L28.5532 16.6106C28.1618 16.8172 27.7029 16.4826 27.7776 16.0437L28.6461 10.9568C28.6752 10.7831 28.6188 10.6039 28.4931 10.4814L24.8116 6.87927C24.4948 6.56843 24.6696 6.02719 25.1084 5.9632L30.1937 5.22083C30.3685 5.19523 30.5178 5.08552 30.5961 4.92644L32.8701 0.300331C33.0668 -0.10011 33.633 -0.10011 33.8297 0.300331Z" fill="#FFC43D"/>
<path d="M58.4798 0.300331L60.7539 4.92827C60.8322 5.08735 60.9815 5.19706 61.1563 5.22265L66.2415 5.96502C66.6803 6.02902 66.8551 6.57026 66.5383 6.8811L62.8586 10.4832C62.733 10.6058 62.6747 10.785 62.7057 10.9587L63.5742 16.0455C63.6488 16.4844 63.19 16.819 62.7985 16.6124L58.2486 14.2097C58.092 14.1275 57.9063 14.1275 57.7515 14.2097L53.2034 16.6106C52.8119 16.8172 52.3531 16.4826 52.4277 16.0437L53.2962 10.9568C53.3254 10.7831 53.2689 10.6039 53.1433 10.4814L49.4618 6.87927C49.145 6.56843 49.3198 6.02719 49.7586 5.9632L54.8438 5.22083C55.0186 5.19523 55.1679 5.08552 55.2462 4.92644L57.5203 0.300331C57.7169 -0.10011 58.2832 -0.10011 58.4798 0.300331Z" fill="#FFC43D"/>
<path d="M83.1297 0.300331L85.4038 4.92827C85.4821 5.08735 85.6314 5.19706 85.8062 5.22265L90.8914 5.96502C91.3302 6.02902 91.505 6.57026 91.1882 6.8811L87.5085 10.4832C87.3829 10.6058 87.3246 10.785 87.3556 10.9587L88.2241 16.0455C88.2987 16.4844 87.8399 16.819 87.4485 16.6124L82.8985 14.2097C82.7419 14.1275 82.5562 14.1275 82.4014 14.2097L77.8533 16.6106C77.4618 16.8172 77.003 16.4826 77.0776 16.0437L77.9461 10.9568C77.9753 10.7831 77.9188 10.6039 77.7932 10.4814L74.1117 6.87927C73.7949 6.56843 73.9697 6.02719 74.4085 5.9632L79.4937 5.22083C79.6685 5.19523 79.8178 5.08552 79.8961 4.92644L82.1702 0.300331C82.3668 -0.10011 82.9331 -0.10011 83.1297 0.300331Z" fill="#FFC43D"/>
<path d="M107.78 0.300331L110.054 4.92827C110.132 5.08735 110.282 5.19706 110.456 5.22265L115.542 5.96502C115.98 6.02902 116.155 6.57026 115.838 6.8811L112.159 10.4832C112.033 10.6058 111.975 10.785 112.006 10.9587L112.874 16.0455C112.949 16.4844 112.49 16.819 112.099 16.6124L107.549 14.2097C107.392 14.1275 107.206 14.1275 107.052 14.2097L102.503 16.6106C102.112 16.8172 101.653 16.4826 101.728 16.0437L102.596 10.9568C102.625 10.7831 102.569 10.6039 102.443 10.4814L98.7618 6.87927C98.445 6.56843 98.6198 6.02719 99.0586 5.9632L104.144 5.22083C104.319 5.19523 104.468 5.08552 104.546 4.92644L106.82 0.300331C107.017 -0.10011 107.583 -0.10011 107.78 0.300331Z" fill="#FFC43D"/>
</svg>
