<svg width="116" height="17" viewBox="0 0 116 17" fill="none" xmlns="http://www.w3.org/2000/svg">
<path d="M9.17976 0.300331L11.4538 4.92827C11.5321 5.08735 11.6814 5.19706 11.8562 5.22265L16.9415 5.96502C17.3803 6.02902 17.5551 6.57026 17.2383 6.8811L13.5586 10.4832C13.433 10.6058 13.3747 10.785 13.4056 10.9587L14.2741 16.0455C14.3488 16.4844 13.89 16.819 13.4985 16.6124L8.94853 14.2097C8.79195 14.1275 8.60623 14.1275 8.45147 14.2097L3.90332 16.6106C3.51186 16.8172 3.05304 16.4826 3.12769 16.0437L3.99617 10.9568C4.02531 10.7831 3.96886 10.6039 3.84323 10.4814L0.161743 6.87927C-0.155062 6.56843 0.0197269 6.02719 0.45852 5.9632L5.54379 5.22083C5.71857 5.19523 5.86787 5.08552 5.94616 4.92644L8.22024 0.300331C8.41688 -0.10011 8.98312 -0.10011 9.17976 0.300331Z" fill="#FFC43D"/>
<path d="M33.8297 0.300331L36.1037 4.92827C36.182 5.08735 36.3313 5.19706 36.5061 5.22265L41.5914 5.96502C42.0302 6.02902 42.205 6.57026 41.8882 6.8811L38.2085 10.4832C38.0829 10.6058 38.0246 10.785 38.0555 10.9587L38.924 16.0455C38.9987 16.4844 38.5399 16.819 38.1484 16.6124L33.5984 14.2097C33.4418 14.1275 33.2561 14.1275 33.1014 14.2097L28.5532 16.6106C28.1618 16.8172 27.7029 16.4826 27.7776 16.0437L28.6461 10.9568C28.6752 10.7831 28.6188 10.6039 28.4931 10.4814L24.8116 6.87927C24.4948 6.56843 24.6696 6.02719 25.1084 5.9632L30.1937 5.22083C30.3685 5.19523 30.5178 5.08552 30.5961 4.92644L32.8701 0.300331C33.0668 -0.10011 33.633 -0.10011 33.8297 0.300331Z" fill="#FFC43D"/>
<path d="M58.4798 0.300331L60.7539 4.92827C60.8322 5.08735 60.9815 5.19706 61.1563 5.22265L66.2415 5.96502C66.6803 6.02902 66.8551 6.57026 66.5383 6.8811L62.8586 10.4832C62.733 10.6058 62.6747 10.785 62.7057 10.9587L63.5742 16.0455C63.6488 16.4844 63.19 16.819 62.7985 16.6124L58.2486 14.2097C58.092 14.1275 57.9063 14.1275 57.7515 14.2097L53.2034 16.6106C52.8119 16.8172 52.3531 16.4826 52.4277 16.0437L53.2962 10.9568C53.3254 10.7831 53.2689 10.6039 53.1433 10.4814L49.4618 6.87927C49.145 6.56843 49.3198 6.02719 49.7586 5.9632L54.8438 5.22083C55.0186 5.19523 55.1679 5.08552 55.2462 4.92644L57.5203 0.300331C57.7169 -0.10011 58.2832 -0.10011 58.4798 0.300331Z" fill="#FFC43D"/>
<path d="M83.1297 0.300331L85.4038 4.92827C85.4821 5.08735 85.6314 5.19706 85.8062 5.22265L90.8914 5.96502C91.3302 6.02902 91.505 6.57026 91.1882 6.8811L87.5085 10.4832C87.3829 10.6058 87.3246 10.785 87.3556 10.9587L88.2241 16.0455C88.2987 16.4844 87.8399 16.819 87.4485 16.6124L82.8985 14.2097C82.7419 14.1275 82.5562 14.1275 82.4014 14.2097L77.8533 16.6106C77.4618 16.8172 77.003 16.4826 77.0776 16.0437L77.9461 10.9568C77.9753 10.7831 77.9188 10.6039 77.7932 10.4814L74.1117 6.87927C73.7949 6.56843 73.9697 6.02719 74.4085 5.9632L79.4937 5.22083C79.6685 5.19523 79.8178 5.08552 79.8961 4.92644L82.1702 0.300331C82.3668 -0.10011 82.9331 -0.10011 83.1297 0.300331Z" fill="#FFC43D"/>
<path d="M107.331 0.520838L107.331 0.520719C107.325 0.50837 107.32 0.505406 107.318 0.504373L107.318 0.50435C107.315 0.5023 107.309 0.5 107.3 0.5C107.292 0.5 107.285 0.5023 107.282 0.50435L107.282 0.504373C107.28 0.505406 107.275 0.50837 107.269 0.520719L107.269 0.520908L104.995 5.14701L104.995 5.14722C104.845 5.45208 104.556 5.6658 104.216 5.71555L104.216 5.71558L99.1308 6.45795L99.1308 6.45796C99.1189 6.4597 99.1152 6.46294 99.1136 6.46436L99.1136 6.46438C99.1104 6.46718 99.1057 6.47312 99.1026 6.4826C99.0995 6.49209 99.0997 6.50014 99.1008 6.50507C99.1015 6.50797 99.1029 6.51343 99.1119 6.52225C99.1119 6.52229 99.112 6.52234 99.112 6.52238L102.792 10.1235C102.793 10.1236 102.793 10.1238 102.793 10.124C102.793 10.124 102.793 10.124 102.793 10.124C103.039 10.3642 103.145 10.7092 103.089 11.0395L103.089 11.041L102.221 16.1276C102.221 16.1276 102.221 16.1276 102.221 16.1277C102.218 16.1408 102.221 16.1463 102.222 16.149C102.224 16.1535 102.228 16.1598 102.236 16.1654C102.243 16.171 102.25 16.1727 102.254 16.1731L102.254 16.1731C102.255 16.1733 102.26 16.1737 102.27 16.1684C102.27 16.1684 102.27 16.1684 102.27 16.1684L106.817 13.7683C106.817 13.7681 106.817 13.768 106.818 13.7679C107.12 13.6075 107.48 13.6089 107.781 13.7671L107.782 13.7676L112.332 16.1702L107.331 0.520838ZM107.331 0.520838L109.605 5.14877L109.605 5.14905C109.755 5.45391 110.044 5.66763 110.384 5.71738L110.384 5.71741L115.469 6.45978L115.469 6.45979C115.481 6.46154 115.485 6.46481 115.487 6.46621C115.49 6.46901 115.495 6.47495 115.498 6.48443C115.501 6.49392 115.5 6.50197 115.499 6.50689C115.499 6.50982 115.497 6.51532 115.488 6.52421L111.81 10.1253M107.331 0.520838L111.81 10.1253M111.81 10.1253C111.809 10.1255 111.809 10.1256 111.809 10.1258M111.81 10.1253L111.809 10.1258M111.809 10.1258C111.566 10.3628 111.454 10.7074 111.513 11.0443C111.513 11.045 111.513 11.0457 111.513 11.0464L112.381 16.1294C112.381 16.1295 112.381 16.1296 112.381 16.1297C112.384 16.1427 112.381 16.1482 112.38 16.1508C112.378 16.1553 112.374 16.1617 112.366 16.1672C112.359 16.1728 112.352 16.1746 112.348 16.1749C112.347 16.1751 112.342 16.1757 112.332 16.1702L111.809 10.1258Z" stroke="#FFC43D"/>
</svg>
