<svg width="313" height="391" viewBox="0 0 313 391" fill="none" xmlns="http://www.w3.org/2000/svg">
<mask id="mask0" mask-type="alpha" maskUnits="userSpaceOnUse" x="0" y="0" width="313" height="391">
<rect width="313" height="391" fill="#C4C4C4"/>
</mask>
<g mask="url(#mask0)">
<path d="M61.3223 -452.459C2.36135 -429.491 -31.8103 -364.704 -37.2404 -301.622C-42.6705 -238.539 -24.7548 -176.089 -7.30186 -115.237C10.1511 -54.3851 27.5375 8.32522 21.0602 71.3046C16.5091 115.552 0.184571 159.286 6.11924 203.351C11.9826 246.838 39.4051 285.3 73.9044 312.373C108.404 339.446 149.667 356.532 191.116 370.89C231.019 384.719 274.145 396.481 315.005 385.724C356.65 374.783 388.613 342.523 421.795 315.044C463.706 280.32 510.6 251.637 560.571 230.131C616.096 206.208 678.037 189.344 718.415 144.355C743.351 116.542 757.265 80.7872 770.019 45.6606C799.035 -34.1574 824.702 -123.634 792.109 -202.072C774.059 -245.501 739.873 -280.168 703.342 -309.759C615.716 -380.755 509.701 -428.878 398.555 -448.091C350.903 -456.331 302.259 -459.371 255.584 -471.946C222.909 -480.735 191.264 -494.157 157.692 -498.066C124.119 -501.975 86.5247 -494.245 65.2723 -467.945" fill="#DAF6F6"/>
</g>
</svg>
