<svg width="214" height="211" viewBox="0 0 214 211" fill="none" xmlns="http://www.w3.org/2000/svg">
<path d="M125.644 35.0566C113.095 28.0527 98.6167 23.4986 84.2134 25.3584C69.7941 27.2053 55.6464 36.4596 50.6836 50.2384C45.87 63.5725 50.0684 78.0337 51.1955 92.0288C52.339 106.199 50.266 120.701 53.0162 134.609C56.4797 152.191 67.9347 167.866 83.5477 176.354C99.1606 184.841 118.643 186.041 135.471 179.493C151.633 173.215 164.653 160.572 175.555 146.968C179.896 141.57 184.08 135.749 185.593 129.031C187.434 120.965 185.24 112.648 182.672 104.89C172.407 73.7553 153.112 42.5562 121.887 32.9323" fill="#DAF6F6"/>
</svg>
