<svg width="554" height="800" viewBox="0 0 554 800" fill="none" xmlns="http://www.w3.org/2000/svg">
<mask id="mask0" mask-type="alpha" maskUnits="userSpaceOnUse" x="0" y="0" width="554" height="800">
<rect width="554" height="800" fill="#C4C4C4" fill-opacity="0.6"/>
</mask>
<g mask="url(#mask0)">
<path d="M98.2725 -45.4594C39.3115 -22.4905 5.13985 42.2959 -0.290243 105.378C-5.72034 168.461 12.1954 230.911 29.6483 291.763C47.1013 352.615 64.4877 415.325 58.0104 478.305C53.4593 522.552 37.1348 566.286 43.0694 610.351C48.9328 653.838 76.3553 692.3 110.855 719.373C145.354 746.446 186.617 763.532 228.066 777.89C267.969 791.719 311.095 803.481 351.955 792.724C393.6 781.783 425.563 749.523 458.746 722.044C500.657 687.32 547.55 658.637 597.521 637.131C653.046 613.208 714.987 596.344 755.365 551.355C780.301 523.542 794.216 487.787 806.969 452.661C835.985 372.843 861.652 283.366 829.059 204.928C811.009 161.499 776.823 126.832 740.292 97.2414C652.666 26.2447 546.651 -21.8779 435.505 -41.0915C387.853 -49.3313 339.209 -52.3706 292.535 -64.9456C259.859 -73.7354 228.215 -87.1574 194.642 -91.0661C161.069 -94.9748 123.475 -87.2453 102.223 -60.9451" fill="#DAF6F6"/>
</g>
</svg>
