<svg width="384" height="794" viewBox="0 0 384 794" fill="none" xmlns="http://www.w3.org/2000/svg">
<mask id="mask0" mask-type="alpha" maskUnits="userSpaceOnUse" x="0" y="0" width="384" height="794">
<rect width="384" height="794" fill="#C4C4C4" fill-opacity="0.5"/>
</mask>
<g mask="url(#mask0)">
<path d="M95.7094 875.026C158.976 873.901 213.473 824.961 240.417 767.665C267.361 710.368 272.186 645.578 276.891 582.448C281.596 519.318 287.007 454.467 314.897 397.63C334.493 357.698 364.955 322.326 374.651 278.933C384.213 236.107 371.811 190.527 348.824 153.181C325.838 115.834 293.047 85.5136 259.138 57.687C226.495 30.8929 190.112 4.92111 148.055 0.85953C105.199 -3.30149 64.0403 15.8899 23.3943 30.1744C-27.9499 48.2319 -81.8755 58.8975 -136.203 61.7634C-196.576 64.9728 -260.525 59.3378 -313.986 87.5566C-347.012 105.01 -372.45 133.732 -396.581 162.267C-451.447 227.093 -506.518 302.14 -503.112 387.012C-501.221 434.005 -481.159 478.367 -457.139 518.78C-399.529 615.733 -316.745 697.597 -219.134 754.119C-177.286 778.355 -132.706 798.055 -93.2768 826.018C-65.6683 845.582 -40.632 869.134 -10.4914 884.429C19.6492 899.725 57.5935 905.495 86.64 888.184" fill="#DAF6F6"/>
</g>
</svg>
