<svg width="232" height="157" viewBox="0 0 232 157" fill="none" xmlns="http://www.w3.org/2000/svg">
<mask id="mask0" mask-type="alpha" maskUnits="userSpaceOnUse" x="0" y="0" width="232" height="157">
<rect width="232" height="157" fill="#C4C4C4"/>
</mask>
<g mask="url(#mask0)">
<path d="M58.7801 21.9654C45.1123 24.2763 31.484 29.5301 21.8059 39.4452C12.1081 49.3603 7.11107 64.5489 11.7526 77.6044C16.2361 90.2452 28.1658 98.3629 37.5081 107.962C46.9689 117.68 54.2176 129.55 64.7252 138.122C77.998 148.965 96.1098 153.666 112.977 150.624C129.845 147.583 145.191 136.897 153.842 122.104C162.158 107.903 164.251 90.897 164.172 74.4442C164.153 67.9066 163.758 61.1517 160.815 55.3251C157.299 48.3135 150.603 43.5139 143.967 39.3464C117.362 22.5974 83.9431 11.1615 54.6719 22.637" fill="#DAF6F6"/>
<g clip-path="url(#clip0)">
<path d="M135.878 87.3974C134.975 87.1301 134.027 87.6489 133.762 88.5529C129.633 102.618 140.222 116.685 154.785 116.685C166.866 116.685 176.693 106.846 176.693 94.7494C176.693 82.6532 166.864 72.8136 154.785 72.8136C147.76 72.8136 141.109 76.2256 136.998 81.9418C136.448 82.7076 136.623 83.7724 137.385 84.323C138.15 84.8735 139.213 84.7013 139.763 83.9355C143.236 79.1075 148.852 76.2256 154.785 76.2256C164.988 76.2256 173.285 84.5359 173.285 94.7516C173.285 104.965 164.986 113.275 154.785 113.275C142.442 113.275 133.557 101.358 137.032 89.5181C137.299 88.6095 136.783 87.6625 135.878 87.3974Z" fill="#2D3047"/>
<path d="M150.578 103.796L167.955 88.2448C168.657 87.6172 168.718 86.5388 168.091 85.8364C167.464 85.1341 166.387 85.0729 165.686 85.7005L149.507 100.176L143.604 94.2645C142.939 93.5984 141.859 93.5984 141.194 94.2645C140.529 94.9306 140.529 96.0113 141.194 96.6774L148.238 103.728C148.878 104.369 149.903 104.396 150.578 103.796Z" fill="#2D3047"/>
<path d="M173.827 71.2555C173.096 70.6619 172.023 70.7729 171.431 71.5047C170.838 72.2365 170.949 73.3104 171.677 73.9063C177.979 79.0312 181.592 86.6278 181.592 94.7478C181.592 109.497 169.65 121.507 154.938 121.586C141.658 122.191 127.98 110.587 127.98 94.7478C127.98 75.0844 148.527 62.0571 166.272 70.4875C167.12 70.893 168.136 70.5305 168.541 69.6786C168.946 68.829 168.582 67.8095 167.733 67.4062C163.717 65.4963 159.413 64.5176 154.94 64.4949V39.9061C154.94 37.4184 152.915 35.3929 150.43 35.3929H136.064V27.8711C136.064 14.2207 121.983 5.15137 109.645 10.6161C97.3199 5.15817 83.2232 14.2048 83.2232 27.8711V35.3929H75.5096C73.0206 35.3929 71 37.4161 71 39.9061V120.445C71 122.932 73.0206 124.96 75.5096 124.96C75.5345 124.96 154.752 125.001 154.786 125.001C171.446 125.001 185 111.427 185 94.7478C185 85.5947 180.927 77.0351 173.827 71.2555ZM133.111 38.805H140.737V48.1416C140.737 49.0841 141.502 49.8476 142.441 49.8476C143.38 49.8476 144.144 49.0841 144.144 48.1416V38.805H150.428C151.034 38.805 151.53 39.2989 151.53 39.9061V64.6716C148.96 64.948 146.482 65.5507 144.144 66.4343V54.9657C144.144 54.0209 143.382 53.2597 142.441 53.2597C141.499 53.2597 140.737 54.0209 140.737 54.9657V67.9726C137.897 69.4702 135.327 71.4073 133.111 73.6956V38.805ZM132.657 27.8711V35.3929C131.783 35.3929 131.037 35.3929 130.156 35.3929V27.8711C130.156 20.2608 123.567 14.1754 115.811 15.0091C115.096 14.2411 114.315 13.5319 113.48 12.8907C123.171 10.4461 132.657 17.823 132.657 27.8711ZM118.338 18.4075C123.067 18.9558 126.751 22.9909 126.751 27.8711V35.3929H120.888C120.533 29.9894 122.049 24.783 118.338 18.4075ZM86.6308 27.8711C86.6308 13.1785 105.606 6.58098 114.492 18.7474C116.37 21.3053 117.478 24.4613 117.478 27.8711V35.3929H114.98V27.8711C114.98 23.6117 112.903 19.7715 109.645 17.4039C101.164 11.2097 89.1311 17.3223 89.1311 27.8711V35.3929H86.6308V27.8711ZM111.573 27.8711V35.3929H107.715V27.8711C107.715 25.7142 108.434 23.725 109.643 22.1254C110.853 23.7227 111.573 25.7142 111.573 27.8711ZM107.126 19.8122C105.364 22.0235 104.307 24.8283 104.307 27.8711V35.3929H101.807V27.8711C101.807 24.4613 102.918 21.3053 104.796 18.7474C105.629 18.9943 106.409 19.3568 107.126 19.8122ZM98.4015 35.3929H92.5388V27.8711C92.5388 22.9909 96.2225 18.9581 100.952 18.4075C97.2316 24.7921 98.7567 29.969 98.4015 35.3929ZM129.706 121.548H75.5096C74.9032 121.548 74.4076 121.052 74.4076 120.445V39.9061C74.4076 39.2989 74.9032 38.805 75.5096 38.805H120.886C120.895 38.805 120.897 38.805 120.897 38.805H129.704V77.9006C122.843 88.1027 122.873 101.436 129.704 111.597V121.548H129.706ZM140.739 121.548H133.114V115.802C135.329 118.088 137.902 120.03 140.739 121.525V121.548Z" fill="#2D3047"/>
</g>
</g>
<defs>
<clipPath id="clip0">
<rect width="114" height="116" fill="white" transform="translate(71 9)"/>
</clipPath>
</defs>
</svg>
