<svg width="15" height="18" viewBox="0 0 15 18" fill="none" xmlns="http://www.w3.org/2000/svg">
<g clip-path="url(#clip0)">
<path d="M7.50002 8.19999C8.30002 8.19999 9.10002 7.99999 9.80002 7.49999C10.4 6.99999 11 6.39999 11.3 5.69999C11.6 4.89999 11.7 4.09999 11.5 3.29999C11.3 2.49999 11 1.79999 10.4 1.19999C9.80002 0.599993 9.10002 0.199993 8.30002 0.099993C7.50002 -0.100007 6.70002 -7.00355e-06 5.90002 0.299993C5.20002 0.599993 4.50002 1.09999 4.10002 1.79999C3.60002 2.49999 3.40002 3.29999 3.40002 4.09999C3.40002 5.19999 3.80002 6.19999 4.60002 6.99999C5.40002 7.79999 6.40002 8.19999 7.50002 8.19999ZM4.80002 4.09999C4.80002 3.39999 5.10002 2.69999 5.60002 2.19999C6.10002 1.69999 6.80002 1.39999 7.50002 1.39999C8.00002 1.39999 8.50002 1.49999 9.00002 1.79999C9.50002 2.09999 9.80002 2.49999 10 2.99999C10.2 3.49999 10.3 3.99999 10.2 4.59999C10 5.09999 9.80002 5.59999 9.40002 5.99999C9.00002 6.39999 8.50002 6.59999 8.00002 6.69999C7.50002 6.89999 7.00002 6.79999 6.50002 6.59999C6.00002 6.39999 5.50002 5.99999 5.20002 5.59999C4.90002 5.19999 4.80002 4.59999 4.80002 4.09999Z" fill="#2D3047"/>
<path d="M14.6 12.2C13.7 11.2 12.6 10.5 11.3 9.90001C10.1 9.40001 8.8 9.10001 7.4 9.10001C6.1 9.10001 4.7 9.40001 3.5 9.90001C2.3 10.4 1.2 11.2 0.2 12.2C0.1 12.4 0 12.7 0 13V16C0 16.3 0.1 16.7 0.4 16.9C0.6 17.1 1 17.3 1.3 17.3H13.8C14.1 17.3 14.5 17.2 14.7 16.9C14.9 16.7 15.1 16.3 15.1 16V13C15 12.7 14.9 12.4 14.6 12.2ZM13.6 13.1V15.9H1.4V13.1C2.2 12.3 3.1 11.6 4.2 11.2C5.3 10.7 6.4 10.5 7.5 10.5C8.7 10.5 9.8 10.7 10.8 11.2C11.9 11.6 12.8 12.2 13.6 13.1Z" fill="#2D3047"/>
</g>
<defs>
<clipPath id="clip0">
<rect width="15" height="17.3" fill="white"/>
</clipPath>
</defs>
</svg>
