<svg width="40" height="40" viewBox="0 0 40 40" fill="none" xmlns="http://www.w3.org/2000/svg">
<circle cx="20" cy="20" r="19.5" stroke="#00D3D2"/>
<path fill-rule="evenodd" clip-rule="evenodd" d="M25.6687 14.3255C24.9307 13.5861 24.0527 12.9999 23.0854 12.6007C22.1181 12.2016 21.0808 11.9974 20.0337 12C15.6428 12 12.0683 15.5567 12.0666 19.9285C12.0666 21.3257 12.4331 22.6893 13.1297 23.8923L12 28L16.2232 26.8969C17.3914 27.5298 18.7001 27.8616 20.0302 27.8622H20.0337C24.4237 27.8622 27.9982 24.3056 28 19.9338C28.003 18.892 27.7985 17.86 27.3984 16.8974C26.9982 15.9348 26.4104 15.0606 25.6687 14.3255ZM20.0337 26.5242H20.031C18.845 26.5243 17.6809 26.2067 16.6607 25.6048L16.4193 25.4617L13.9133 26.1161L14.5815 23.6847L14.4244 23.4356C13.7613 22.385 13.4103 21.1692 13.4119 19.9285C13.4136 16.295 16.3838 13.339 20.0364 13.339C20.9062 13.337 21.7679 13.5068 22.5714 13.8385C23.3749 14.1702 24.1043 14.6572 24.7174 15.2714C25.3339 15.8826 25.8224 16.6093 26.1549 17.4096C26.4875 18.2099 26.6573 19.0678 26.6547 19.9338C26.6529 23.5672 23.6827 26.5242 20.0337 26.5242ZM23.6659 21.588C23.4662 21.4882 22.4883 21.0095 22.3055 20.9433C22.1236 20.877 21.9913 20.8443 21.8582 21.0422C21.7251 21.24 21.3435 21.686 21.2273 21.8185C21.111 21.951 20.9948 21.9669 20.796 21.868C20.5972 21.7691 19.9556 21.5597 19.1951 20.885C18.6032 20.3595 18.2039 19.7112 18.0876 19.5125C17.9714 19.3138 18.0752 19.2069 18.1755 19.108C18.2651 19.0197 18.3743 18.8766 18.4736 18.7609C18.573 18.6452 18.6059 18.5631 18.6724 18.4306C18.739 18.2981 18.7061 18.1824 18.6556 18.0835C18.6059 17.9837 18.2074 17.0086 18.0415 16.6121C17.8809 16.2279 17.7167 16.2791 17.5942 16.2738C17.4674 16.2686 17.3405 16.2663 17.2135 16.2667C17.1126 16.2693 17.0133 16.2926 16.9218 16.3351C16.8303 16.3777 16.7487 16.4386 16.682 16.514C16.4992 16.7128 15.9853 17.1915 15.9853 18.1665C15.9853 19.1415 16.6988 20.0839 16.7982 20.2164C16.8976 20.3489 18.2021 22.3493 20.1988 23.2078C20.6744 23.4118 21.0453 23.5337 21.3338 23.6255C21.8103 23.7766 22.2442 23.7545 22.5877 23.7041C22.9701 23.6476 23.7653 23.2254 23.9312 22.7626C24.0971 22.2999 24.0971 21.9033 24.0475 21.8203C23.9978 21.7373 23.8638 21.6869 23.6659 21.588Z" fill="#00D3D2"/>
</svg>
